Velvelyne-Bold.ufo
<glyph name="exclam" format="2">
  <advance width="536"/>
  <unicode hex="0021"/>
  <note>
exclam
</note>
  <outline>
    <contour>
      <point x="269" y="1245" type="move"/>
      <point x="269" y="449" type="line"/>
    </contour>
    <component base="dotaccentcomb" xOffset="2" yOffset="-1277"/>
  </outline>
</glyph>
<glyph name="numbersign" format="2">
  <advance width="1129"/>
  <unicode hex="0023"/>
  <note>
numbersign
</note>
  <outline>
    <contour>
      <point x="497" y="1341" type="move"/>
      <point x="465" y="993" type="line" smooth="yes"/>
      <point x="454" y="876"/>
      <point x="419" y="867"/>
      <point x="300" y="867" type="curve" smooth="yes"/>
      <point x="206" y="867" type="line"/>
    </contour>
    <contour>
      <point x="979" y="959" type="move"/>
      <point x="896" y="959" type="line" smooth="yes"/>
      <point x="765" y="959"/>
      <point x="744" y="947"/>
      <point x="733" y="834" type="curve" smooth="yes"/>
      <point x="709" y="577" type="line" smooth="yes"/>
      <point x="698" y="459"/>
      <point x="693" y="449"/>
      <point x="579" y="450" type="curve" smooth="yes"/>
      <point x="454" y="451" type="line" smooth="yes"/>
      <point x="341" y="452"/>
      <point x="319" y="436"/>
      <point x="307" y="324" type="curve" smooth="yes"/>
      <point x="284" y="101" type="line"/>
    </contour>
    <contour>
      <point x="834" y="1341" type="move"/>
      <point x="816" y="1082" type="line" smooth="yes"/>
      <point x="806" y="944"/>
      <point x="780" y="929"/>
      <point x="648" y="929" type="curve" smooth="yes"/>
      <point x="574" y="929" type="line" smooth="yes"/>
      <point x="437" y="929"/>
      <point x="423" y="909"/>
      <point x="413" y="802" type="curve" smooth="yes"/>
      <point x="389" y="545" type="line" smooth="yes"/>
      <point x="378" y="432"/>
      <point x="364" y="419"/>
      <point x="224" y="419" type="curve" smooth="yes"/>
      <point x="150" y="419" type="line"/>
    </contour>
    <contour>
      <point x="919" y="490" type="move"/>
      <point x="814" y="490" type="line" smooth="yes"/>
      <point x="697" y="490"/>
      <point x="660" y="481"/>
      <point x="650" y="363" type="curve" smooth="yes"/>
      <point x="628" y="101" type="line"/>
    </contour>
  </outline>
</glyph>
<glyph name="dollar" format="2">
  <advance width="1085"/>
  <unicode hex="0024"/>
  <note>
dollar
</note>
  <outline>
    <contour>
      <point x="846" y="986" type="move"/>
      <point x="814" y="1080"/>
      <point x="688" y="1175"/>
      <point x="532" y="1175" type="curve" smooth="yes"/>
      <point x="337" y="1175"/>
      <point x="208" y="1086"/>
      <point x="208" y="927" type="curve" smooth="yes"/>
      <point x="208" y="794"/>
      <point x="310" y="696"/>
      <point x="413" y="696" type="curve" smooth="yes"/>
      <point x="479" y="696"/>
      <point x="535" y="735"/>
      <point x="534" y="885" type="curve" smooth="yes"/>
      <point x="532" y="1331" type="line"/>
    </contour>
    <contour>
      <point x="529" y="-100" type="move"/>
      <point x="529" y="418" type="line" smooth="yes"/>
      <point x="529" y="557"/>
      <point x="570" y="603"/>
      <point x="658" y="603" type="curve" smooth="yes"/>
      <point x="773" y="602"/>
      <point x="885" y="515"/>
      <point x="885" y="374" type="curve" smooth="yes"/>
      <point x="885" y="178"/>
      <point x="705" y="85"/>
      <point x="531" y="85" type="curve" smooth="yes"/>
      <point x="347" y="85"/>
      <point x="203" y="178"/>
      <point x="160" y="296" type="curve" smooth="yes"/>
    </contour>
    <contour>
      <point x="466" y="706" type="move"/>
      <point x="565" y="584" type="line"/>
    </contour>
  </outline>
</glyph>
<glyph name="ampersand" format="2">
  <advance width="1341"/>
  <unicode hex="0026"/>
  <note>
ampersand
</note>
  <outline>
    <contour>
      <point x="1141" y="126" type="move"/>
      <point x="1130" y="68"/>
      <point x="1078" y="17"/>
      <point x="1008" y="23" type="curve" smooth="yes"/>
      <point x="877" y="34"/>
      <point x="908" y="205"/>
      <point x="819" y="209" type="curve" smooth="yes"/>
      <point x="722" y="213"/>
      <point x="660" y="27"/>
      <point x="492" y="27" type="curve" smooth="yes"/>
      <point x="305" y="27"/>
      <point x="200" y="162"/>
      <point x="200" y="334" type="curve" smooth="yes"/>
      <point x="200" y="610"/>
      <point x="364" y="781"/>
      <point x="544" y="775" type="curve"/>
    </contour>
    <contour>
      <point x="552" y="771" type="move"/>
      <point x="516" y="507"/>
      <point x="655" y="209"/>
      <point x="810" y="210" type="curve" smooth="yes"/>
      <point x="983" y="211"/>
      <point x="1009" y="464"/>
      <point x="989" y="584" type="curve"/>
    </contour>
    <contour>
      <point x="556" y="778" type="curve" smooth="yes"/>
      <point x="420" y="784"/>
      <point x="378" y="931"/>
      <point x="394" y="1094" type="curve" smooth="yes"/>
      <point x="407" y="1228"/>
      <point x="483" y="1326"/>
      <point x="612" y="1322" type="curve" smooth="yes"/>
      <point x="749" y="1318"/>
      <point x="828" y="1220"/>
      <point x="825" y="1062" type="curve" smooth="yes"/>
      <point x="821" y="876"/>
      <point x="705" y="772"/>
    </contour>
  </outline>
</glyph>
<glyph name="parenleft" format="2">
  <advance width="647"/>
  <unicode hex="0028"/>
  <note>
parenleft
</note>
  <outline>
    <contour>
      <point x="390" y="1324" type="move"/>
      <point x="264" y="1045"/>
      <point x="208" y="821"/>
      <point x="208" y="552" type="curve" smooth="yes"/>
      <point x="208" y="188"/>
      <point x="299" y="-80"/>
      <point x="395" y="-293" type="curve" smooth="yes"/>
    </contour>
  </outline>
</glyph>
<glyph name="parenright" format="2">
  <advance width="644"/>
  <unicode hex="0029"/>
  <note>
parenright
</note>
  <outline>
    <contour>
      <point x="210" y="1324" type="move"/>
      <point x="336" y="1045"/>
      <point x="392" y="821"/>
      <point x="392" y="552" type="curve" smooth="yes"/>
      <point x="392" y="188"/>
      <point x="301" y="-80"/>
      <point x="205" y="-293" type="curve" smooth="yes"/>
    </contour>
  </outline>
</glyph>
<glyph name="hyphen" format="2">
  <advance width="740"/>
  <unicode hex="002D"/>
  <note>
hyphen
</note>
  <outline>
    <contour>
      <point x="210" y="555" type="move"/>
      <point x="530" y="555" type="line"/>
    </contour>
  </outline>
</glyph>
<glyph name="zero" format="2">
  <advance width="1059"/>
  <unicode hex="0030"/>
  <note>
zero
</note>
  <outline>
    <contour>
      <point x="516" y="1228" type="curve" smooth="yes"/>
      <point x="628" y="1228"/>
      <point x="849" y="1151"/>
      <point x="849" y="691" type="curve" smooth="yes"/>
      <point x="849" y="212"/>
      <point x="651" y="100"/>
      <point x="530" y="100" type="curve" smooth="yes"/>
      <point x="409" y="100"/>
      <point x="200" y="220"/>
      <point x="200" y="694" type="curve" smooth="yes"/>
      <point x="200" y="1151"/>
      <point x="428" y="1228"/>
    </contour>
  </outline>
</glyph>
<glyph name="three" format="2">
  <advance width="1013"/>
  <unicode hex="0033"/>
  <note>
three
</note>
  <outline>
    <contour>
      <point x="222" y="1092" type="move"/>
      <point x="262" y="1160"/>
      <point x="345" y="1226"/>
      <point x="468" y="1226" type="curve" smooth="yes"/>
      <point x="638" y="1226"/>
      <point x="747" y="1123"/>
      <point x="747" y="1010" type="curve" smooth="yes"/>
      <point x="747" y="924"/>
      <point x="684" y="872"/>
      <point x="618" y="848" type="curve" smooth="yes"/>
      <point x="544" y="823"/>
      <point x="467" y="799"/>
      <point x="467" y="698" type="curve" smooth="yes"/>
      <point x="467" y="605"/>
      <point x="545" y="564"/>
      <point x="625" y="523" type="curve" smooth="yes"/>
      <point x="712" y="480"/>
      <point x="801" y="439"/>
      <point x="803" y="324" type="curve" smooth="yes"/>
      <point x="806" y="195"/>
      <point x="684" y="94"/>
      <point x="508" y="94" type="curve" smooth="yes"/>
      <point x="360" y="94"/>
      <point x="245" y="186"/>
      <point x="205" y="253" type="curve"/>
    </contour>
    <contour>
      <point x="458" y="698" type="move"/>
      <point x="363" y="698" type="line"/>
    </contour>
  </outline>
</glyph>
<glyph name="nine" format="2">
  <advance width="1040"/>
  <unicode hex="0039"/>
  <note>
nine
</note>
  <outline>
    <contour>
      <point x="268" y="205" type="move"/>
      <point x="297" y="159"/>
      <point x="376" y="95"/>
      <point x="473" y="94" type="curve" smooth="yes"/>
      <point x="597" y="93"/>
      <point x="688" y="159"/>
      <point x="745" y="259" type="curve" smooth="yes"/>
      <point x="802" y="359"/>
      <point x="826" y="491"/>
      <point x="818" y="619" type="curve" smooth="yes"/>
      <point x="815" y="667"/>
      <point x="794" y="694"/>
      <point x="767" y="698" type="curve" smooth="yes"/>
      <point x="736" y="706"/>
      <point x="698" y="687"/>
      <point x="671" y="649" type="curve" smooth="yes"/>
      <point x="630" y="590"/>
      <point x="566" y="545"/>
      <point x="463" y="541" type="curve" smooth="yes"/>
      <point x="329" y="534"/>
      <point x="200" y="640"/>
      <point x="200" y="859" type="curve" smooth="yes"/>
      <point x="200" y="1089"/>
      <point x="355" y="1253"/>
      <point x="536" y="1255" type="curve" smooth="yes"/>
      <point x="717" y="1257"/>
      <point x="814" y="1144"/>
      <point x="817" y="996" type="curve" smooth="yes"/>
      <point x="820" y="887"/>
      <point x="738" y="805"/>
      <point x="766" y="702" type="curve" smooth="yes"/>
    </contour>
  </outline>
</glyph>
<glyph name="equal" format="2">
  <advance width="974"/>
  <unicode hex="003D"/>
  <note>
equal
</note>
  <outline>
    <contour>
      <point x="200" y="801" type="move"/>
      <point x="774" y="801" type="line"/>
    </contour>
    <contour>
      <point x="200" y="362" type="move"/>
      <point x="774" y="362" type="line"/>
    </contour>
  </outline>
</glyph>
<glyph name="question" format="2">
  <advance width="990"/>
  <unicode hex="003F"/>
  <note>
question
</note>
  <outline>
    <component base="dotaccentcomb" xOffset="216" yOffset="-1276"/>
    <contour>
      <point x="469" y="433" type="move"/>
      <point x="495" y="541"/>
      <point x="568" y="624"/>
      <point x="656" y="735" type="curve" smooth="yes"/>
      <point x="727" y="821"/>
      <point x="790" y="917"/>
      <point x="790" y="1069" type="curve" smooth="yes"/>
      <point x="790" y="1240"/>
      <point x="670" y="1337"/>
      <point x="507" y="1337" type="curve" smooth="yes"/>
      <point x="338" y="1337"/>
      <point x="222" y="1199"/>
      <point x="200" y="1056" type="curve" smooth="yes"/>
    </contour>
  </outline>
</glyph>
<glyph name="at" format="2">
  <advance width="1720"/>
  <unicode hex="0040"/>
  <note>
at
</note>
  <outline>
    <contour>
      <point x="1205" y="1026" type="move"/>
      <point x="1202" y="950"/>
      <point x="1163" y="861"/>
      <point x="1163" y="808" type="curve" smooth="yes"/>
      <point x="1163" y="750"/>
      <point x="1194" y="679"/>
      <point x="1189" y="614" type="curve" smooth="yes"/>
      <point x="1182" y="527"/>
      <point x="1126" y="464"/>
      <point x="1111" y="411" type="curve" smooth="yes"/>
      <point x="1086" y="317"/>
      <point x="1100" y="186"/>
      <point x="1214" y="186" type="curve" smooth="yes"/>
      <point x="1415" y="186"/>
      <point x="1518" y="449"/>
      <point x="1520" y="708" type="curve" smooth="yes"/>
      <point x="1523" y="1037"/>
      <point x="1330" y="1312"/>
      <point x="975" y="1311" type="curve" smooth="yes"/>
      <point x="500" y="1308"/>
      <point x="208" y="905"/>
      <point x="200" y="512" type="curve" smooth="yes"/>
      <point x="192" y="165"/>
      <point x="440" y="-161"/>
      <point x="783" y="-161" type="curve" smooth="yes"/>
      <point x="941" y="-161"/>
      <point x="1082" y="-119"/>
      <point x="1158" y="-78" type="curve"/>
    </contour>
    <contour>
      <point x="1158" y="814" type="move"/>
      <point x="1115" y="827"/>
      <point x="1091" y="851"/>
      <point x="1068" y="875" type="curve" smooth="yes"/>
      <point x="1038" y="910"/>
      <point x="1012" y="947"/>
      <point x="953" y="967" type="curve" smooth="yes"/>
      <point x="716" y="1045"/>
      <point x="541" y="739"/>
      <point x="541" y="494" type="curve" smooth="yes"/>
      <point x="541" y="360"/>
      <point x="586" y="199"/>
      <point x="755" y="200" type="curve" smooth="yes"/>
      <point x="847" y="201"/>
      <point x="902" y="254"/>
      <point x="958" y="314" type="curve" smooth="yes"/>
      <point x="996" y="355"/>
      <point x="1050" y="403"/>
      <point x="1105" y="411" type="curve" smooth="yes"/>
    </contour>
  </outline>
</glyph>
<glyph name="B" format="2">
  <advance width="1172"/>
  <unicode hex="0042"/>
  <note>
B
</note>
  <anchor x="591" y="0" name="bottom"/>
  <anchor x="301" y="325" name="center"/>
  <anchor x="591" y="1300" name="top"/>
  <outline>
    <contour>
      <point x="377" y="1200" type="curve" smooth="yes"/>
      <point x="622" y="1200" type="line" smooth="yes"/>
      <point x="783" y="1200"/>
      <point x="905" y="1131"/>
      <point x="905" y="1012" type="curve" smooth="yes"/>
      <point x="905" y="937"/>
      <point x="850" y="886"/>
      <point x="790" y="841" type="curve" smooth="yes"/>
      <point x="715" y="786"/>
      <point x="631" y="742"/>
      <point x="632" y="680" type="curve" smooth="yes"/>
      <point x="633" y="600"/>
      <point x="720" y="559"/>
      <point x="804" y="511" type="curve" smooth="yes"/>
      <point x="884" y="464"/>
      <point x="962" y="411"/>
      <point x="962" y="311" type="curve" smooth="yes"/>
      <point x="962" y="199"/>
      <point x="829" y="100"/>
      <point x="585" y="100" type="curve" smooth="yes"/>
      <point x="398" y="100" type="line" smooth="yes"/>
      <point x="274" y="100"/>
      <point x="240" y="116"/>
      <point x="240" y="239" type="curve" smooth="yes"/>
      <point x="240" y="463" type="line" smooth="yes"/>
      <point x="240" y="515"/>
      <point x="265" y="550"/>
      <point x="291" y="579" type="curve" smooth="yes"/>
      <point x="315" y="609"/>
      <point x="340" y="633"/>
      <point x="340" y="670" type="curve" smooth="yes"/>
      <point x="340" y="707"/>
      <point x="311" y="733"/>
      <point x="284" y="763" type="curve" smooth="yes"/>
      <point x="261" y="789"/>
      <point x="240" y="820"/>
      <point x="240" y="866" type="curve" smooth="yes"/>
      <point x="240" y="1073" type="line" smooth="yes"/>
      <point x="240" y="1168"/>
      <point x="261" y="1200"/>
    </contour>
    <contour>
      <point x="353" y="672" type="move"/>
      <point x="619" y="678" type="line"/>
    </contour>
  </outline>
</glyph>
<glyph name="E" format="2">
  <advance width="1116"/>
  <unicode hex="0045"/>
  <note>
E
</note>
  <anchor x="563" y="0" name="bottom"/>
  <anchor x="1005" y="10" name="ogonek"/>
  <anchor x="563" y="1300" name="top"/>
  <anchor x="30" y="1300" name="topleft"/>
  <outline>
    <contour>
      <point x="883" y="1200" type="move"/>
      <point x="408" y="1200" type="line" smooth="yes"/>
      <point x="293" y="1200"/>
      <point x="240" y="1146"/>
      <point x="240" y="1027" type="curve" smooth="yes"/>
      <point x="240" y="980" type="line" smooth="yes"/>
      <point x="240" y="905"/>
      <point x="270" y="852"/>
      <point x="296" y="805" type="curve" smooth="yes"/>
      <point x="322" y="760"/>
      <point x="350" y="710"/>
      <point x="350" y="667" type="curve" smooth="yes"/>
      <point x="350" y="616"/>
      <point x="329" y="571"/>
      <point x="304" y="528" type="curve" smooth="yes"/>
      <point x="273" y="476"/>
      <point x="241" y="420"/>
      <point x="241" y="325" type="curve" smooth="yes"/>
      <point x="241" y="249" type="line" smooth="yes"/>
      <point x="241" y="161"/>
      <point x="300" y="100"/>
      <point x="384" y="100" type="curve" smooth="yes"/>
      <point x="906" y="100" type="line"/>
    </contour>
    <contour>
      <point x="354" y="663" type="move"/>
      <point x="834" y="663" type="line"/>
    </contour>
  </outline>
</glyph>
<glyph name="F" format="2">
  <advance width="1031"/>
  <unicode hex="0046"/>
  <note>
F
</note>
  <anchor x="521" y="0" name="bottom"/>
  <anchor x="521" y="1300" name="top"/>
  <outline>
    <contour>
      <point x="851" y="1200" type="move"/>
      <point x="423" y="1200" type="line" smooth="yes"/>
      <point x="297" y="1200"/>
      <point x="240" y="1150"/>
      <point x="240" y="1031" type="curve" smooth="yes"/>
      <point x="240" y="980" type="line" smooth="yes"/>
      <point x="240" y="908"/>
      <point x="269" y="856"/>
      <point x="297" y="807" type="curve" smooth="yes"/>
      <point x="324" y="760"/>
      <point x="350" y="712"/>
      <point x="350" y="641" type="curve" smooth="yes"/>
      <point x="350" y="579"/>
      <point x="328" y="534"/>
      <point x="303" y="490" type="curve" smooth="yes"/>
      <point x="273" y="437"/>
      <point x="240" y="383"/>
      <point x="240" y="299" type="curve" smooth="yes"/>
      <point x="240" y="98" type="line" smooth="yes"/>
    </contour>
    <contour>
      <point x="371" y="641" type="move"/>
      <point x="767" y="641" type="line"/>
    </contour>
  </outline>
</glyph>
<glyph name="G" format="2">
  <advance width="1343"/>
  <unicode hex="0047"/>
  <note>
G
</note>
  <anchor x="672" y="0" name="bottom"/>
  <anchor x="672" y="1320" name="top"/>
  <outline>
    <contour>
      <point x="1007" y="1033" type="move"/>
      <point x="966" y="1121"/>
      <point x="847" y="1225"/>
      <point x="666" y="1225" type="curve" smooth="yes"/>
      <point x="434" y="1225"/>
      <point x="200" y="1025"/>
      <point x="200" y="645" type="curve" smooth="yes"/>
      <point x="200" y="211"/>
      <point x="508" y="75"/>
      <point x="715" y="75" type="curve" smooth="yes"/>
      <point x="922" y="75"/>
      <point x="1143" y="159"/>
      <point x="1143" y="373" type="curve" smooth="yes"/>
      <point x="1143" y="445" type="line" smooth="yes"/>
      <point x="1143" y="537"/>
      <point x="1088" y="583"/>
      <point x="1024" y="583" type="curve" smooth="yes"/>
      <point x="946" y="583"/>
      <point x="832" y="565"/>
      <point x="740" y="540" type="curve"/>
    </contour>
  </outline>
</glyph>
<glyph name="H" format="2">
  <advance width="1260"/>
  <unicode hex="0048"/>
  <note>
H
</note>
  <anchor x="630" y="0" name="bottom"/>
  <anchor x="630" y="975" name="center"/>
  <anchor x="630" y="1300" name="top"/>
  <anchor x="30" y="1300" name="topleft"/>
  <outline>
    <contour>
      <point x="240" y="1200" type="move"/>
      <point x="240" y="1043" type="line" smooth="yes"/>
      <point x="240" y="968"/>
      <point x="263" y="913"/>
      <point x="288" y="865" type="curve" smooth="yes"/>
      <point x="317" y="808"/>
      <point x="350" y="760"/>
      <point x="350" y="700" type="curve" smooth="yes"/>
      <point x="350" y="634"/>
      <point x="322" y="591"/>
      <point x="294" y="544" type="curve" smooth="yes"/>
      <point x="267" y="499"/>
      <point x="240" y="451"/>
      <point x="240" y="377" type="curve" smooth="yes"/>
      <point x="240" y="100" type="line"/>
    </contour>
    <contour>
      <point x="1020" y="1200" type="move"/>
      <point x="1020" y="1030" type="line" smooth="yes"/>
      <point x="1020" y="962"/>
      <point x="995" y="909"/>
      <point x="969" y="858" type="curve" smooth="yes"/>
      <point x="940" y="803"/>
      <point x="910" y="752"/>
      <point x="910" y="692" type="curve" smooth="yes"/>
      <point x="910" y="637"/>
      <point x="937" y="593"/>
      <point x="964" y="545" type="curve" smooth="yes"/>
      <point x="992" y="495"/>
      <point x="1020" y="441"/>
      <point x="1020" y="367" type="curve" smooth="yes"/>
      <point x="1020" y="100" type="line"/>
    </contour>
    <contour>
      <point x="912" y="695" type="move"/>
      <point x="357" y="695" type="line"/>
    </contour>
  </outline>
</glyph>
<glyph name="I" format="2">
  <advance width="580"/>
  <unicode hex="0049"/>
  <note>
I
</note>
  <anchor x="290" y="0" name="bottom"/>
  <anchor x="397" y="9" name="ogonek"/>
  <anchor x="290" y="1300" name="top"/>
  <anchor x="20" y="1300" name="topleft"/>
  <outline>
    <contour>
      <point x="290" y="1200" type="move"/>
      <point x="290" y="100" type="line"/>
    </contour>
  </outline>
</glyph>
<glyph name="M" format="2">
  <advance width="1531"/>
  <unicode hex="004D"/>
  <note>
M
</note>
  <anchor x="766" y="0" name="bottom"/>
  <anchor x="766" y="1300" name="top"/>
  <outline>
    <contour>
      <point x="260" y="100" type="move"/>
      <point x="260" y="1101" type="line" smooth="yes"/>
      <point x="260" y="1177"/>
      <point x="295" y="1213"/>
      <point x="335" y="1213" type="curve" smooth="yes"/>
      <point x="371" y="1213"/>
      <point x="409" y="1183"/>
      <point x="429" y="1128" type="curve" smooth="yes"/>
      <point x="709" y="349" type="line" smooth="yes"/>
      <point x="735" y="278"/>
      <point x="796" y="281"/>
      <point x="821" y="349" type="curve" smooth="yes"/>
      <point x="1102" y="1128" type="line" smooth="yes"/>
      <point x="1122" y="1184"/>
      <point x="1161" y="1213"/>
      <point x="1197" y="1213" type="curve" smooth="yes"/>
      <point x="1236" y="1213"/>
      <point x="1271" y="1177"/>
      <point x="1271" y="1101" type="curve" smooth="yes"/>
      <point x="1271" y="100" type="line"/>
    </contour>
    <contour>
      <point x="766" y="253" type="move"/>
      <point x="766" y="100" type="line"/>
    </contour>
  </outline>
</glyph>
<glyph name="N" format="2">
  <advance width="1278"/>
  <unicode hex="004E"/>
  <note>
N
</note>
  <anchor x="609" y="0" name="bottom"/>
  <anchor x="667" y="1300" name="top"/>
  <outline>
    <contour>
      <point x="240" y="100" type="move"/>
      <point x="240" y="1024" type="line" smooth="yes"/>
      <point x="240" y="1148"/>
      <point x="337" y="1176"/>
      <point x="409" y="1056" type="curve" smooth="yes"/>
      <point x="895" y="243" type="line" smooth="yes"/>
      <point x="952" y="147"/>
      <point x="1038" y="153"/>
      <point x="1038" y="291" type="curve" smooth="yes"/>
      <point x="1038" y="1200" type="line"/>
    </contour>
    <contour>
      <point x="272" y="1224" type="move"/>
      <point x="295" y="1145" type="line"/>
    </contour>
    <contour>
      <point x="994" y="172" type="move"/>
      <point x="1021" y="75" type="line"/>
    </contour>
  </outline>
</glyph>
<glyph name="O" format="2">
  <advance width="1370"/>
  <unicode hex="004F"/>
  <note>
O
</note>
  <anchor x="685" y="0" name="bottom"/>
  <anchor x="685" y="650" name="center"/>
  <anchor x="1233" y="10" name="ogonek"/>
  <anchor x="685" y="1321" name="top"/>
  <anchor x="20" y="1300" name="topleft"/>
  <anchor x="1350" y="1300" name="topright"/>
  <outline>
    <contour>
      <point x="685" y="75" type="curve" smooth="yes"/>
      <point x="939" y="75"/>
      <point x="1170" y="307"/>
      <point x="1170" y="649" type="curve" smooth="yes"/>
      <point x="1170" y="986"/>
      <point x="978" y="1225"/>
      <point x="685" y="1225" type="curve" smooth="yes"/>
      <point x="399" y="1225"/>
      <point x="200" y="980"/>
      <point x="200" y="649" type="curve" smooth="yes"/>
      <point x="200" y="321"/>
      <point x="428" y="75"/>
    </contour>
  </outline>
</glyph>
<glyph name="P" format="2">
  <advance width="1165"/>
  <unicode hex="0050"/>
  <note>
P
</note>
  <anchor x="588" y="0" name="bottom"/>
  <anchor x="588" y="1300" name="top"/>
  <outline>
    <contour>
      <point x="240" y="100" type="move"/>
      <point x="240" y="168" type="line" smooth="yes"/>
      <point x="240" y="265"/>
      <point x="270" y="326"/>
      <point x="299" y="384" type="curve" smooth="yes"/>
      <point x="324" y="435"/>
      <point x="348" y="482"/>
      <point x="347" y="550" type="curve" smooth="yes"/>
      <point x="346" y="628"/>
      <point x="317" y="684"/>
      <point x="290" y="744" type="curve" smooth="yes"/>
      <point x="264" y="799"/>
      <point x="240" y="856"/>
      <point x="240" y="933" type="curve" smooth="yes"/>
      <point x="240" y="1043" type="line" smooth="yes"/>
      <point x="240" y="1160"/>
      <point x="281" y="1200"/>
      <point x="401" y="1200" type="curve" smooth="yes"/>
      <point x="621" y="1200" type="line" smooth="yes"/>
      <point x="831" y="1200"/>
      <point x="965" y="1078"/>
      <point x="965" y="891" type="curve" smooth="yes"/>
      <point x="965" y="678"/>
      <point x="781" y="552"/>
      <point x="605" y="552" type="curve" smooth="yes"/>
      <point x="361" y="552" type="line"/>
    </contour>
  </outline>
</glyph>
<glyph name="T" format="2">
  <advance width="1216"/>
  <unicode hex="0054"/>
  <note>
T
</note>
  <anchor x="608" y="0" name="bottom"/>
  <anchor x="608" y="650" name="center"/>
  <anchor x="608" y="1300" name="top"/>
  <outline>
    <contour>
      <point x="200" y="1200" type="move"/>
      <point x="330" y="1200" type="line" smooth="yes"/>
      <point x="391" y="1200"/>
      <point x="431" y="1172"/>
      <point x="471" y="1145" type="curve" smooth="yes"/>
      <point x="507" y="1121"/>
      <point x="542" y="1098"/>
      <point x="594" y="1098" type="curve" smooth="yes"/>
      <point x="649" y="1098"/>
      <point x="688" y="1120"/>
      <point x="728" y="1144" type="curve" smooth="yes"/>
      <point x="775" y="1171"/>
      <point x="822" y="1200"/>
      <point x="898" y="1200" type="curve" smooth="yes"/>
      <point x="1026" y="1200" type="line"/>
    </contour>
    <contour>
      <point x="594" y="1089" type="move"/>
      <point x="594" y="93" type="line"/>
    </contour>
  </outline>
</glyph>
<glyph name="W" format="2">
  <advance width="1752"/>
  <unicode hex="0057"/>
  <note>
W
</note>
  <anchor x="876" y="0" name="bottom"/>
  <anchor x="876" y="1300" name="top"/>
  <outline>
    <contour>
      <point x="1537" y="1200" type="move"/>
      <point x="1323" y="267" type="line" smooth="yes"/>
      <point x="1300" y="166"/>
      <point x="1274" y="87"/>
      <point x="1230" y="87" type="curve" smooth="yes"/>
      <point x="1184" y="87"/>
      <point x="1152" y="162"/>
      <point x="1126" y="262" type="curve" smooth="yes"/>
      <point x="974" y="853" type="line" smooth="yes"/>
      <point x="954" y="931"/>
      <point x="915" y="969"/>
      <point x="878" y="969" type="curve" smooth="yes"/>
      <point x="842" y="969"/>
      <point x="807" y="935"/>
      <point x="790" y="869" type="curve" smooth="yes"/>
      <point x="634" y="262" type="line" smooth="yes"/>
      <point x="608" y="160"/>
      <point x="571" y="87"/>
      <point x="532" y="87" type="curve" smooth="yes"/>
      <point x="497" y="87"/>
      <point x="459" y="160"/>
      <point x="435" y="262" type="curve" smooth="yes"/>
      <point x="215" y="1201" type="line"/>
    </contour>
    <contour>
      <point x="879" y="1200" type="move"/>
      <point x="879" y="1017" type="line"/>
    </contour>
  </outline>
</glyph>
<glyph name="X" format="2">
  <advance width="1105"/>
  <unicode hex="0058"/>
  <note>
X
</note>
  <anchor x="553" y="0" name="bottom"/>
  <anchor x="553" y="1300" name="top"/>
  <outline>
    <contour>
      <point x="248" y="1200" type="move"/>
      <point x="463" y="848" type="line" smooth="yes"/>
      <point x="516" y="761"/>
      <point x="582" y="758"/>
      <point x="637" y="849" type="curve" smooth="yes"/>
      <point x="850" y="1200" type="line"/>
    </contour>
    <contour>
      <point x="555" y="761" type="move"/>
      <point x="555" y="653"/>
      <point x="647" y="523"/>
      <point x="721" y="403" type="curve" smooth="yes"/>
      <point x="907" y="100" type="line"/>
    </contour>
    <contour>
      <point x="593" y="559" type="move"/>
      <point x="492" y="559"/>
      <point x="398" y="431"/>
      <point x="313" y="290" type="curve" smooth="yes"/>
      <point x="199" y="100" type="line"/>
    </contour>
  </outline>
</glyph>
<glyph name="backslash" format="2">
  <advance width="467"/>
  <unicode hex="005C"/>
  <note>
backslash
</note>
  <outline>
    <contour>
      <point x="313" y="95" type="move"/>
      <point x="211" y="556"/>
      <point x="53" y="1286"/>
      <point x="45" y="1325" type="curve"/>
    </contour>
  </outline>
</glyph>
<glyph name="bracketright" format="2">
  <advance width="558"/>
  <unicode hex="005D"/>
  <note>
bracketright
</note>
  <outline>
    <contour>
      <point x="130" y="1394" type="move"/>
      <point x="232" y="1394" type="line" smooth="yes"/>
      <point x="318" y="1394"/>
      <point x="334" y="1368"/>
      <point x="334" y="1283" type="curve" smooth="yes"/>
      <point x="338" y="-266" type="line" smooth="yes"/>
      <point x="338" y="-350"/>
      <point x="317" y="-373"/>
      <point x="242" y="-373" type="curve" smooth="yes"/>
      <point x="135" y="-373" type="line"/>
    </contour>
  </outline>
</glyph>
<glyph name="a" format="2">
  <advance width="1068"/>
  <unicode hex="0061"/>
  <note>
a
</note>
  <anchor x="527" y="0" name="bottom"/>
  <anchor x="995" y="-2" name="ogonek"/>
  <anchor x="527" y="985" name="top"/>
  <outline>
    <contour>
      <point x="286" y="820" type="move"/>
      <point x="340" y="877"/>
      <point x="429" y="936"/>
      <point x="523" y="936" type="curve" smooth="yes"/>
      <point x="652" y="936"/>
      <point x="757" y="841"/>
      <point x="769" y="735" type="curve" smooth="yes"/>
      <point x="774" y="692"/>
      <point x="765" y="651"/>
      <point x="757" y="630" type="curve" smooth="yes"/>
      <point x="747" y="604"/>
      <point x="734" y="583"/>
      <point x="734" y="560" type="curve" smooth="yes"/>
      <point x="734" y="540"/>
      <point x="746" y="524"/>
      <point x="757" y="503" type="curve" smooth="yes"/>
      <point x="767" y="484"/>
      <point x="776" y="462"/>
      <point x="776" y="432" type="curve" smooth="yes"/>
      <point x="776" y="402"/>
      <point x="764" y="379"/>
      <point x="753" y="357" type="curve" smooth="yes"/>
      <point x="743" y="337"/>
      <point x="729" y="318"/>
      <point x="733" y="290" type="curve" smooth="yes"/>
      <point x="737" y="261"/>
      <point x="764" y="234"/>
      <point x="782" y="213" type="curve" smooth="yes"/>
      <point x="800" y="193"/>
      <point x="813" y="163"/>
      <point x="828" y="128" type="curve" smooth="yes"/>
      <point x="839" y="104"/>
      <point x="859" y="88"/>
      <point x="888" y="90" type="curve"/>
    </contour>
    <contour>
      <point x="731" y="555" type="move"/>
      <point x="552" y="555" type="line" smooth="yes"/>
      <point x="429" y="555"/>
      <point x="334" y="533"/>
      <point x="274" y="484" type="curve" smooth="yes"/>
      <point x="222" y="443"/>
      <point x="195" y="381"/>
      <point x="195" y="298" type="curve" smooth="yes"/>
      <point x="195" y="226"/>
      <point x="217" y="173"/>
      <point x="255" y="139" type="curve" smooth="yes"/>
      <point x="290" y="107"/>
      <point x="340" y="90"/>
      <point x="400" y="91" type="curve" smooth="yes"/>
      <point x="492" y="92"/>
      <point x="543" y="151"/>
      <point x="601" y="205" type="curve" smooth="yes"/>
      <point x="634" y="236"/>
      <point x="692" y="279"/>
      <point x="734" y="299" type="curve" smooth="yes"/>
    </contour>
  </outline>
</glyph>
<glyph name="d" format="2">
  <advance width="1060"/>
  <unicode hex="0064"/>
  <note>
d
</note>
  <anchor x="525" y="0" name="bottom"/>
  <anchor x="788" y="1140" name="center"/>
  <anchor x="525" y="1005" name="top"/>
  <anchor x="1030" y="1425" name="topright"/>
  <outline>
    <component base="_fut" xOffset="113"/>
    <contour>
      <point x="746" y="293" type="move"/>
      <point x="679" y="289"/>
      <point x="641" y="239"/>
      <point x="600" y="189" type="curve" smooth="yes"/>
      <point x="560" y="140"/>
      <point x="502" y="94"/>
      <point x="445" y="93" type="curve" smooth="yes"/>
      <point x="378" y="91"/>
      <point x="326" y="131"/>
      <point x="288" y="191" type="curve" smooth="yes"/>
      <point x="235" y="276"/>
      <point x="210" y="401"/>
      <point x="210" y="508" type="curve" smooth="yes"/>
      <point x="210" y="621"/>
      <point x="223" y="756"/>
      <point x="280" y="841" type="curve" smooth="yes"/>
      <point x="314" y="892"/>
      <point x="370" y="924"/>
      <point x="435" y="924" type="curve" smooth="yes"/>
      <point x="502" y="924"/>
      <point x="553" y="891"/>
      <point x="599" y="856" type="curve" smooth="yes"/>
      <point x="649" y="818"/>
      <point x="693" y="780"/>
      <point x="745" y="780" type="curve"/>
    </contour>
  </outline>
</glyph>
<glyph name="f" format="2">
  <advance width="622"/>
  <unicode hex="0066"/>
  <note>
f
</note>
  <anchor x="311" y="0" name="bottom"/>
  <anchor x="311" y="1425" name="top"/>
  <outline>
    <contour>
      <point x="462" y="1329" type="move"/>
      <point x="346" y="1338"/>
      <point x="309" y="1239"/>
      <point x="309" y="1077" type="curve" smooth="yes"/>
      <point x="309" y="91" type="line"/>
    </contour>
    <contour>
      <point x="200" y="975" type="move"/>
      <point x="445" y="975" type="line"/>
    </contour>
  </outline>
</glyph>
<glyph name="g" format="2">
  <advance width="1040"/>
  <unicode hex="0067"/>
  <note>
g
</note>
  <anchor x="520" y="-396" name="bottom"/>
  <anchor x="492" y="967" name="top"/>
  <outline>
    <contour>
      <point x="810" y="916" type="move"/>
      <point x="810" y="892"/>
      <point x="801" y="848"/>
      <point x="791" y="819" type="curve" smooth="yes"/>
      <point x="780" y="788"/>
      <point x="763" y="761"/>
      <point x="763" y="731" type="curve" smooth="yes"/>
      <point x="763" y="705"/>
      <point x="776" y="684"/>
      <point x="788" y="660" type="curve" smooth="yes"/>
      <point x="799" y="638"/>
      <point x="808" y="613"/>
      <point x="808" y="576" type="curve" smooth="yes"/>
      <point x="807" y="480" type="line" smooth="yes"/>
      <point x="807" y="436"/>
      <point x="797" y="403"/>
      <point x="786" y="377" type="curve" smooth="yes"/>
      <point x="772" y="340"/>
      <point x="756" y="315"/>
      <point x="756" y="281" type="curve" smooth="yes"/>
      <point x="756" y="253"/>
      <point x="768" y="234"/>
      <point x="780" y="208" type="curve" smooth="yes"/>
      <point x="793" y="183"/>
      <point x="805" y="136"/>
      <point x="805" y="58" type="curve" smooth="yes"/>
      <point x="805" y="-153"/>
      <point x="701" y="-306"/>
      <point x="501" y="-306" type="curve" smooth="yes"/>
      <point x="382" y="-306"/>
      <point x="272" y="-234"/>
      <point x="245" y="-173" type="curve" smooth="yes"/>
    </contour>
    <contour>
      <point x="757" y="729" type="move"/>
      <point x="705" y="747"/>
      <point x="674" y="776"/>
      <point x="647" y="807" type="curve" smooth="yes"/>
      <point x="601" y="856"/>
      <point x="568" y="909"/>
      <point x="475" y="908" type="curve" smooth="yes"/>
      <point x="328" y="907"/>
      <point x="210" y="796"/>
      <point x="210" y="507" type="curve" smooth="yes"/>
      <point x="210" y="232"/>
      <point x="296" y="100"/>
      <point x="468" y="100" type="curve" smooth="yes"/>
      <point x="550" y="100"/>
      <point x="598" y="154"/>
      <point x="642" y="203" type="curve" smooth="yes"/>
      <point x="675" y="238"/>
      <point x="725" y="276"/>
      <point x="748" y="279" type="curve" smooth="yes"/>
    </contour>
  </outline>
</glyph>
<glyph name="h" format="2">
  <advance width="1047"/>
  <unicode hex="0068"/>
  <note>
h
</note>
  <anchor x="524" y="0" name="bottom"/>
  <anchor x="267" y="1140" name="center"/>
  <anchor x="524" y="1425" name="top"/>
  <outline>
    <contour identifier="ID0x7fc43b6e7b40">
      <point x="250" y="100" type="move"/>
      <point x="250" y="446" type="line" smooth="yes"/>
      <point x="250" y="528"/>
      <point x="264" y="581"/>
      <point x="279" y="622" type="curve" smooth="yes"/>
      <point x="296" y="667"/>
      <point x="313" y="699"/>
      <point x="313" y="743" type="curve" smooth="yes"/>
      <point x="313" y="789"/>
      <point x="295" y="820"/>
      <point x="278" y="863" type="curve" smooth="yes"/>
      <point x="264" y="900"/>
      <point x="250" y="946"/>
      <point x="250" y="1029" type="curve" smooth="yes"/>
      <point x="250" y="1325" type="line"/>
    </contour>
    <contour>
      <point x="317" y="750" type="move"/>
      <point x="354" y="845"/>
      <point x="462" y="923"/>
      <point x="578" y="923" type="curve" smooth="yes"/>
      <point x="724" y="923"/>
      <point x="807" y="805"/>
      <point x="807" y="633" type="curve" smooth="yes"/>
      <point x="807" y="100" type="line"/>
    </contour>
  </outline>
</glyph>
<glyph name="l" format="2">
  <advance width="500"/>
  <unicode hex="006C"/>
  <note>
l
</note>
  <anchor x="250" y="0" name="bottom"/>
  <anchor x="250" y="643" name="center"/>
  <anchor x="250" y="1425" name="top"/>
  <anchor x="470" y="1425" name="topright"/>
  <outline>
    <contour>
      <point x="250" y="1319" type="move"/>
      <point x="250" y="86" type="line"/>
    </contour>
  </outline>
</glyph>
<glyph name="o" format="2">
  <advance width="1050"/>
  <unicode hex="006F"/>
  <note>
o
</note>
  <anchor x="525" y="0" name="bottom"/>
  <anchor x="525" y="503" name="center"/>
  <anchor x="945" y="10" name="ogonek"/>
  <anchor x="530" y="975" name="top"/>
  <anchor x="1030" y="1005" name="topright"/>
  <outline>
    <contour>
      <point x="530" y="78" type="curve" smooth="yes"/>
      <point x="720" y="78"/>
      <point x="840" y="254"/>
      <point x="840" y="503" type="curve" smooth="yes"/>
      <point x="840" y="748"/>
      <point x="723" y="925"/>
      <point x="530" y="925" type="curve" smooth="yes"/>
      <point x="338" y="925"/>
      <point x="210" y="752"/>
      <point x="210" y="503" type="curve" smooth="yes"/>
      <point x="210" y="285"/>
      <point x="319" y="78"/>
    </contour>
  </outline>
</glyph>
<glyph name="p" format="2">
  <advance width="1042"/>
  <unicode hex="0070"/>
  <note>
p
</note>
  <anchor x="521" y="0" name="bottom"/>
  <anchor x="521" y="1005" name="top"/>
  <outline>
    <component base="_fut" xScale="-1" yScale="-1" xOffset="937" yOffset="1032" identifier="36265193"/>
    <contour>
      <point x="307" y="728" type="move"/>
      <point x="360" y="727"/>
      <point x="395" y="785"/>
      <point x="445" y="836" type="curve" smooth="yes"/>
      <point x="484" y="876"/>
      <point x="546" y="912"/>
      <point x="607" y="912" type="curve" smooth="yes"/>
      <point x="666" y="912"/>
      <point x="730" y="875"/>
      <point x="765" y="827" type="curve" smooth="yes"/>
      <point x="821" y="750"/>
      <point x="832" y="610"/>
      <point x="832" y="503" type="curve" smooth="yes"/>
      <point x="832" y="348"/>
      <point x="802" y="243"/>
      <point x="756" y="178" type="curve" smooth="yes"/>
      <point x="725" y="133"/>
      <point x="656" y="91"/>
      <point x="597" y="91" type="curve" smooth="yes"/>
      <point x="538" y="91"/>
      <point x="484" y="130"/>
      <point x="445" y="168" type="curve" smooth="yes"/>
      <point x="406" y="207"/>
      <point x="369" y="247"/>
      <point x="302" y="247" type="curve" smooth="yes"/>
    </contour>
  </outline>
</glyph>
<glyph name="r" format="2">
  <advance width="850"/>
  <unicode hex="0072"/>
  <note>
r
</note>
  <anchor x="425" y="0" name="bottom"/>
  <anchor x="425" y="1045" name="top"/>
  <outline>
    <component base="_fut2" xOffset="102" yOffset="-1"/>
    <contour>
      <point x="720" y="858" type="move"/>
      <point x="695" y="884"/>
      <point x="640" y="911"/>
      <point x="574" y="901" type="curve" smooth="yes"/>
      <point x="540" y="896"/>
      <point x="486" y="872"/>
      <point x="433" y="837" type="curve" smooth="yes"/>
      <point x="372" y="795"/>
      <point x="314" y="737"/>
      <point x="292" y="673" type="curve" smooth="yes"/>
    </contour>
  </outline>
</glyph>
<glyph name="t" format="2">
  <advance width="731"/>
  <unicode hex="0074"/>
  <note>
t
</note>
  <anchor x="366" y="0" name="bottom"/>
  <anchor x="366" y="503" name="center"/>
  <anchor x="366" y="1296" name="top"/>
  <anchor x="711" y="1425" name="topright"/>
  <outline>
    <contour>
      <point x="317" y="1196" type="move"/>
      <point x="318" y="1101"/>
      <point x="320" y="977"/>
      <point x="200" y="969" type="curve"/>
    </contour>
    <contour>
      <point x="247" y="971" type="move"/>
      <point x="531" y="971" type="line"/>
    </contour>
    <contour>
      <point x="180" y="969" type="move"/>
      <point x="306" y="959"/>
      <point x="313" y="822"/>
      <point x="314" y="715" type="curve" smooth="yes"/>
      <point x="317" y="284" type="line" smooth="yes"/>
      <point x="317" y="225"/>
      <point x="328" y="175"/>
      <point x="357" y="139" type="curve" smooth="yes"/>
      <point x="387" y="102"/>
      <point x="436" y="80"/>
      <point x="510" y="81" type="curve"/>
    </contour>
  </outline>
</glyph>
<glyph name="u" format="2">
  <advance width="1036"/>
  <unicode hex="0075"/>
  <note>
u
</note>
  <guideline x="300" y="1024" angle="0"/>
  <anchor x="513" y="0" name="bottom"/>
  <anchor x="903" y="0" name="ogonek"/>
  <anchor x="523" y="1104" name="top"/>
  <anchor x="1006" y="1005" name="topright"/>
  <outline>
    <contour identifier="ID0x7fc43b852950">
      <point x="737" y="277" type="move"/>
      <point x="640" y="214"/>
      <point x="589" y="87"/>
      <point x="448" y="87" type="curve" smooth="yes"/>
      <point x="262" y="87"/>
      <point x="240" y="245"/>
      <point x="240" y="461" type="curve" smooth="yes"/>
      <point x="240" y="916" type="line"/>
    </contour>
    <component base="_fut2" xScale="-1" yScale="-1" xOffset="934" yOffset="1004"/>
  </outline>
</glyph>
<glyph name="v" format="2">
  <advance width="942"/>
  <unicode hex="0076"/>
  <note>
v
</note>
  <anchor x="471" y="0" name="bottom"/>
  <anchor x="471" y="1005" name="top"/>
  <outline>
    <contour>
      <point x="180" y="906" type="move"/>
      <point x="398" y="171" type="line" smooth="yes"/>
      <point x="426" y="75"/>
      <point x="505" y="73"/>
      <point x="536" y="175" type="curve" smooth="yes"/>
      <point x="762" y="909" type="line"/>
    </contour>
  </outline>
</glyph>
<glyph name="w" format="2">
  <advance width="1370"/>
  <unicode hex="0077"/>
  <note>
w
</note>
  <anchor x="685" y="0" name="bottom"/>
  <anchor x="685" y="897" name="top"/>
  <outline>
    <contour>
      <point x="180" y="918" type="move"/>
      <point x="345" y="172" type="line" smooth="yes"/>
      <point x="357" y="116"/>
      <point x="381" y="88"/>
      <point x="406" y="88" type="curve" smooth="yes"/>
      <point x="430" y="88"/>
      <point x="456" y="116"/>
      <point x="470" y="172" type="curve" smooth="yes"/>
      <point x="627" y="799" type="line" smooth="yes"/>
      <point x="639" y="848"/>
      <point x="662" y="872"/>
      <point x="684" y="872" type="curve" smooth="yes"/>
      <point x="707" y="872"/>
      <point x="730" y="848"/>
      <point x="741" y="799" type="curve" smooth="yes"/>
      <point x="890" y="172" type="line" smooth="yes"/>
      <point x="903" y="116"/>
      <point x="928" y="88"/>
      <point x="952" y="88" type="curve" smooth="yes"/>
      <point x="977" y="88"/>
      <point x="1002" y="116"/>
      <point x="1015" y="172" type="curve" smooth="yes"/>
      <point x="1190" y="918" type="line"/>
    </contour>
  </outline>
</glyph>
<glyph name="exclamdown" format="2">
  <advance width="536"/>
  <unicode hex="00A1"/>
  <note>
exclamdown
</note>
  <outline>
    <contour>
      <point x="272" y="670" type="move"/>
      <point x="272" y="-117" type="line"/>
    </contour>
    <component base="dotaccentcomb" yScale="-1" xOffset="2" yOffset="2388"/>
  </outline>
</glyph>
<glyph name="cent" format="2">
  <advance width="997"/>
  <unicode hex="00A2"/>
  <note>
cent
</note>
  <outline>
    <contour>
      <point x="815" y="927" type="move"/>
      <point x="813" y="1020"/>
      <point x="746" y="1133"/>
      <point x="662" y="1133" type="curve" smooth="yes"/>
      <point x="639" y="1133"/>
      <point x="620" y="1123"/>
      <point x="605" y="1112" type="curve" smooth="yes"/>
      <point x="585" y="1098"/>
      <point x="568" y="1081"/>
      <point x="550" y="1081" type="curve" smooth="yes"/>
      <point x="536" y="1081"/>
      <point x="524" y="1092"/>
      <point x="510" y="1103" type="curve" smooth="yes"/>
      <point x="494" y="1117"/>
      <point x="475" y="1133"/>
      <point x="447" y="1133" type="curve" smooth="yes"/>
      <point x="300" y="1133"/>
      <point x="200" y="916"/>
      <point x="200" y="674" type="curve" smooth="yes"/>
      <point x="200" y="468"/>
      <point x="276" y="209"/>
      <point x="447" y="209" type="curve" smooth="yes"/>
      <point x="475" y="209"/>
      <point x="494" y="225"/>
      <point x="510" y="239" type="curve" smooth="yes"/>
      <point x="524" y="250"/>
      <point x="536" y="261"/>
      <point x="550" y="261" type="curve" smooth="yes"/>
      <point x="568" y="261"/>
      <point x="585" y="244"/>
      <point x="605" y="230" type="curve" smooth="yes"/>
      <point x="620" y="219"/>
      <point x="639" y="209"/>
      <point x="662" y="209" type="curve"/>
      <point x="720" y="209"/>
      <point x="790" y="312"/>
      <point x="810" y="399" type="curve" smooth="yes"/>
    </contour>
    <contour>
      <point x="550" y="1258" type="move"/>
      <point x="550" y="816"/>
      <point x="550" y="76"/>
      <point x="550" y="63" type="curve"/>
    </contour>
  </outline>
</glyph>
<glyph name="currency" format="2">
  <advance width="970"/>
  <unicode hex="00A4"/>
  <note>
currency
</note>
  <outline>
    <contour>
      <point x="200" y="1108" type="move"/>
      <point x="200" y="1036"/>
      <point x="217" y="996"/>
      <point x="232" y="961" type="curve" smooth="yes"/>
      <point x="245" y="932"/>
      <point x="257" y="906"/>
      <point x="257" y="878" type="curve" smooth="yes"/>
      <point x="257" y="834"/>
      <point x="235" y="806"/>
      <point x="218" y="763" type="curve" smooth="yes"/>
      <point x="208" y="737"/>
      <point x="200" y="706"/>
      <point x="200" y="649" type="curve" smooth="yes"/>
      <point x="200" y="592"/>
      <point x="208" y="561"/>
      <point x="218" y="535" type="curve" smooth="yes"/>
      <point x="235" y="492"/>
      <point x="257" y="464"/>
      <point x="257" y="420" type="curve" smooth="yes"/>
      <point x="257" y="392"/>
      <point x="245" y="366"/>
      <point x="232" y="337" type="curve" smooth="yes"/>
      <point x="217" y="302"/>
      <point x="200" y="262"/>
      <point x="200" y="210" type="curve"/>
    </contour>
    <contour>
      <point x="256" y="427" type="move"/>
      <point x="329" y="427"/>
      <point x="386" y="359"/>
      <point x="487" y="360" type="curve" smooth="yes"/>
      <point x="556" y="361"/>
      <point x="647" y="420"/>
      <point x="706" y="427" type="curve" smooth="yes"/>
    </contour>
    <contour>
      <point x="713" y="881" type="move"/>
      <point x="654" y="882"/>
      <point x="581" y="947"/>
      <point x="481" y="947" type="curve" smooth="yes"/>
      <point x="394" y="947"/>
      <point x="337" y="881"/>
      <point x="265" y="881" type="curve"/>
    </contour>
    <contour>
      <point x="770" y="1111" type="move"/>
      <point x="770" y="1039"/>
      <point x="753" y="999"/>
      <point x="738" y="964" type="curve" smooth="yes"/>
      <point x="725" y="935"/>
      <point x="713" y="909"/>
      <point x="713" y="881" type="curve" smooth="yes"/>
      <point x="713" y="837"/>
      <point x="735" y="809"/>
      <point x="752" y="766" type="curve" smooth="yes"/>
      <point x="762" y="740"/>
      <point x="770" y="709"/>
      <point x="770" y="652" type="curve" smooth="yes"/>
      <point x="770" y="595"/>
      <point x="762" y="564"/>
      <point x="752" y="538" type="curve" smooth="yes"/>
      <point x="735" y="495"/>
      <point x="713" y="467"/>
      <point x="713" y="423" type="curve" smooth="yes"/>
      <point x="713" y="395"/>
      <point x="725" y="369"/>
      <point x="738" y="340" type="curve" smooth="yes"/>
      <point x="753" y="305"/>
      <point x="770" y="265"/>
      <point x="770" y="213" type="curve"/>
    </contour>
  </outline>
</glyph>
<glyph name="brokenbar" format="2">
  <advance width="400"/>
  <unicode hex="00A6"/>
  <note>
brokenbar
</note>
  <outline>
    <contour>
      <point x="200" y="215" type="move"/>
      <point x="200" y="-294" type="line"/>
    </contour>
    <contour>
      <point x="200" y="1324" type="move"/>
      <point x="200" y="815" type="line" smooth="yes"/>
    </contour>
  </outline>
</glyph>
<glyph name="ordfeminine" format="2">
  <advance width="779"/>
  <unicode hex="00AA"/>
  <note>
ordfeminine
</note>
  <anchor x="382" y="838" name="bottom"/>
  <anchor x="625" y="837" name="ogonek"/>
  <anchor x="382" y="1348" name="top"/>
  <outline>
    <contour identifier="ID0x126c3c0d0">
      <point x="257" y="1262" type="move"/>
      <point x="284" y="1295"/>
      <point x="331" y="1330"/>
      <point x="380" y="1330" type="curve" smooth="yes"/>
      <point x="447" y="1330"/>
      <point x="501" y="1273"/>
      <point x="507" y="1218" type="curve" smooth="yes"/>
      <point x="510" y="1196"/>
      <point x="505" y="1175"/>
      <point x="501" y="1164" type="curve" smooth="yes"/>
      <point x="496" y="1151"/>
      <point x="489" y="1140"/>
      <point x="489" y="1128" type="curve" smooth="yes"/>
      <point x="489" y="1117"/>
      <point x="496" y="1109"/>
      <point x="501" y="1098" type="curve" smooth="yes"/>
      <point x="506" y="1088"/>
      <point x="511" y="1077"/>
      <point x="511" y="1061" type="curve" smooth="yes"/>
      <point x="511" y="1046"/>
      <point x="505" y="1034"/>
      <point x="499" y="1023" type="curve" smooth="yes"/>
      <point x="494" y="1012"/>
      <point x="487" y="1002"/>
      <point x="489" y="988" type="curve" smooth="yes"/>
      <point x="491" y="973"/>
      <point x="505" y="959"/>
      <point x="514" y="948" type="curve" smooth="yes"/>
      <point x="524" y="938"/>
      <point x="530" y="922"/>
      <point x="538" y="904" type="curve" smooth="yes"/>
      <point x="544" y="891"/>
      <point x="554" y="883"/>
      <point x="569" y="884" type="curve"/>
    </contour>
    <contour>
      <point x="488" y="1125" type="move"/>
      <point x="395" y="1125" type="line" smooth="yes"/>
      <point x="331" y="1125"/>
      <point x="282" y="1114"/>
      <point x="251" y="1088" type="curve" smooth="yes"/>
      <point x="224" y="1067"/>
      <point x="210" y="1035"/>
      <point x="210" y="992" type="curve" smooth="yes"/>
      <point x="210" y="955"/>
      <point x="221" y="927"/>
      <point x="241" y="910" type="curve" smooth="yes"/>
      <point x="259" y="893"/>
      <point x="285" y="884"/>
      <point x="316" y="885" type="curve" smooth="yes"/>
      <point x="364" y="885"/>
      <point x="390" y="916"/>
      <point x="420" y="944" type="curve" smooth="yes"/>
      <point x="437" y="960"/>
      <point x="468" y="982"/>
      <point x="489" y="993" type="curve" smooth="yes"/>
    </contour>
  </outline>
</glyph>
<glyph name="logicalnot" format="2">
  <advance width="1000"/>
  <unicode hex="00AC"/>
  <note>
logicalnot
</note>
  <outline>
    <contour>
      <point x="200" y="659" type="move"/>
      <point x="653" y="662" type="line" smooth="yes"/>
      <point x="766" y="663"/>
      <point x="800" y="625"/>
      <point x="800" y="523" type="curve" smooth="yes"/>
      <point x="800" y="300" type="line"/>
    </contour>
  </outline>
</glyph>
<glyph name="registered" format="2">
  <advance width="1408"/>
  <unicode hex="00AE"/>
  <note>
registered
</note>
  <outline>
    <contour>
      <point x="704" y="1320" type="curve" smooth="yes"/>
      <point x="1086" y="1320"/>
      <point x="1167" y="1033"/>
      <point x="1175" y="974" type="curve" smooth="yes"/>
      <point x="1185" y="915"/>
      <point x="1170" y="848"/>
      <point x="1150" y="809" type="curve" smooth="yes"/>
      <point x="1126" y="761"/>
      <point x="1096" y="720"/>
      <point x="1096" y="679" type="curve" smooth="yes"/>
      <point x="1096" y="640"/>
      <point x="1123" y="610"/>
      <point x="1150" y="571" type="curve" smooth="yes"/>
      <point x="1173" y="536"/>
      <point x="1187" y="504"/>
      <point x="1187" y="446" type="curve" smooth="yes"/>
      <point x="1187" y="388"/>
      <point x="1091" y="101"/>
      <point x="704" y="101" type="curve" smooth="yes"/>
      <point x="317" y="101"/>
      <point x="221" y="388"/>
      <point x="221" y="446" type="curve" smooth="yes"/>
      <point x="221" y="504"/>
      <point x="235" y="536"/>
      <point x="258" y="571" type="curve" smooth="yes"/>
      <point x="285" y="610"/>
      <point x="312" y="640"/>
      <point x="312" y="679" type="curve" smooth="yes"/>
      <point x="312" y="720"/>
      <point x="282" y="761"/>
      <point x="258" y="809" type="curve" smooth="yes"/>
      <point x="238" y="848"/>
      <point x="223" y="915"/>
      <point x="233" y="974" type="curve" smooth="yes"/>
      <point x="241" y="1033"/>
      <point x="322" y="1320"/>
    </contour>
    <contour>
      <point x="537" y="449" type="move"/>
      <point x="537" y="552" type="line" smooth="yes"/>
      <point x="537" y="634"/>
      <point x="588" y="660"/>
      <point x="587" y="709" type="curve" smooth="yes"/>
      <point x="587" y="755"/>
      <point x="537" y="789"/>
      <point x="536" y="852" type="curve" smooth="yes"/>
      <point x="536" y="984" type="line" smooth="yes"/>
      <point x="536" y="1010"/>
      <point x="546" y="1021"/>
      <point x="572" y="1021" type="curve" smooth="yes"/>
      <point x="738" y="1020" type="line" smooth="yes"/>
      <point x="827" y="1019"/>
      <point x="900" y="987"/>
      <point x="901" y="867" type="curve" smooth="yes"/>
      <point x="902" y="785"/>
      <point x="865" y="772"/>
      <point x="844" y="747" type="curve" smooth="yes"/>
      <point x="832" y="733"/>
      <point x="827" y="696"/>
      <point x="796" y="686" type="curve" smooth="yes"/>
      <point x="749" y="671"/>
      <point x="707" y="712"/>
      <point x="654" y="712" type="curve" smooth="yes"/>
      <point x="597" y="712" type="line"/>
    </contour>
    <contour>
      <point x="798" y="684" type="move"/>
      <point x="800" y="643"/>
      <point x="823" y="581"/>
      <point x="847" y="543" type="curve" smooth="yes"/>
      <point x="903" y="450" type="line"/>
    </contour>
  </outline>
</glyph>
<glyph name="degree" format="2">
  <advance width="844"/>
  <unicode hex="00B0"/>
  <note>
degree
</note>
  <outline>
    <contour>
      <point x="628" y="1219" type="curve" smooth="yes"/>
      <point x="648" y="1195"/>
      <point x="644" y="1168"/>
      <point x="644" y="1136" type="curve" smooth="yes"/>
      <point x="644" y="988"/>
      <point x="540" y="897"/>
      <point x="424" y="897" type="curve" smooth="yes"/>
      <point x="338" y="897"/>
      <point x="200" y="959"/>
      <point x="200" y="1136" type="curve" smooth="yes"/>
      <point x="200" y="1294"/>
      <point x="337" y="1345"/>
      <point x="424" y="1345" type="curve" smooth="yes"/>
      <point x="451" y="1345"/>
      <point x="496" y="1352"/>
      <point x="524" y="1323" type="curve" smooth="yes"/>
      <point x="547" y="1299"/>
      <point x="547" y="1270"/>
      <point x="564" y="1253" type="curve" smooth="yes"/>
      <point x="582" y="1235"/>
      <point x="610" y="1241"/>
    </contour>
  </outline>
</glyph>
<glyph name="threesuperior" format="2">
  <advance width="761"/>
  <unicode hex="00B3"/>
  <note>
uni00B3
</note>
  <outline>
    <contour identifier="ID0x1325f95f0">
      <point x="209" y="1221" type="move"/>
      <point x="217" y="1287"/>
      <point x="279" y="1356"/>
      <point x="367" y="1356" type="curve" smooth="yes"/>
      <point x="468" y="1356"/>
      <point x="533" y="1287"/>
      <point x="533" y="1198" type="curve" smooth="yes"/>
      <point x="533" y="1130"/>
      <point x="500" y="1104"/>
      <point x="464" y="1086" type="curve" smooth="yes"/>
      <point x="418" y="1063"/>
      <point x="366" y="1055"/>
      <point x="366" y="999" type="curve" smooth="yes"/>
      <point x="366" y="943"/>
      <point x="414" y="925"/>
      <point x="462" y="901" type="curve" smooth="yes"/>
      <point x="513" y="877"/>
      <point x="566" y="848"/>
      <point x="566" y="768" type="curve" smooth="yes"/>
      <point x="566" y="659"/>
      <point x="495" y="591"/>
      <point x="391" y="591" type="curve" smooth="yes"/>
      <point x="282" y="591"/>
      <point x="216" y="652"/>
      <point x="195" y="736" type="curve"/>
    </contour>
    <contour>
      <point x="361" y="999" type="move"/>
      <point x="325" y="999" type="line"/>
    </contour>
  </outline>
</glyph>
<glyph name="uni00B5" format="2">
  <advance width="969"/>
  <unicode hex="00B5"/>
  <note>
uni00B5
</note>
  <outline>
    <component base="_fut2" xScale="-1" yScale="-1" xOffset="907" yOffset="1005"/>
    <contour>
      <point x="246" y="114" type="move"/>
      <point x="275" y="73"/>
      <point x="309" y="39"/>
      <point x="309" y="2" type="curve" smooth="yes"/>
      <point x="309" y="-27"/>
      <point x="289" y="-51"/>
      <point x="266" y="-78" type="curve" smooth="yes"/>
      <point x="236" y="-112"/>
      <point x="203" y="-151"/>
      <point x="203" y="-209" type="curve" smooth="yes"/>
      <point x="203" y="-290" type="line"/>
    </contour>
    <contour identifier="ID0x7fc43b852950">
      <point x="674" y="234" type="move"/>
      <point x="556" y="198"/>
      <point x="549" y="30"/>
      <point x="392" y="30" type="curve" smooth="yes"/>
      <point x="222" y="30"/>
      <point x="200" y="190"/>
      <point x="200" y="425" type="curve" smooth="yes"/>
      <point x="200" y="914" type="line"/>
    </contour>
  </outline>
</glyph>
<glyph name="ordmasculine" format="2">
  <advance width="761"/>
  <unicode hex="00BA"/>
  <note>
ordmasculine
</note>
  <anchor x="381" y="832" name="bottom"/>
  <anchor x="381" y="1104" name="center"/>
  <anchor x="608" y="837" name="ogonek"/>
  <anchor x="384" y="1359" name="top"/>
  <anchor x="654" y="1375" name="topright"/>
  <outline>
    <contour identifier="ID0x126c41fc0">
      <point x="384" y="873" type="curve" smooth="yes"/>
      <point x="486" y="873"/>
      <point x="551" y="968"/>
      <point x="551" y="1104" type="curve" smooth="yes"/>
      <point x="551" y="1236"/>
      <point x="488" y="1332"/>
      <point x="384" y="1332" type="curve" smooth="yes"/>
      <point x="279" y="1332"/>
      <point x="210" y="1238"/>
      <point x="210" y="1104" type="curve" smooth="yes"/>
      <point x="210" y="986"/>
      <point x="269" y="873"/>
    </contour>
  </outline>
</glyph>
<glyph name="onequarter" format="2">
  <advance width="1705"/>
  <unicode hex="00BC"/>
  <note>
onequarter
</note>
  <outline>
    <contour>
      <point x="1515" y="190" type="move"/>
      <point x="1418" y="189" type="line" smooth="yes"/>
      <point x="1374" y="189"/>
      <point x="1364" y="206"/>
      <point x="1364" y="247" type="curve" smooth="yes"/>
      <point x="1364" y="679" type="line" smooth="yes"/>
      <point x="1364" y="745"/>
      <point x="1317" y="766"/>
      <point x="1278" y="702" type="curve" smooth="yes"/>
      <point x="1051" y="332" type="line" smooth="yes"/>
      <point x="1006" y="258"/>
      <point x="1021" y="213"/>
      <point x="1099" y="213" type="curve" smooth="yes"/>
      <point x="1327" y="213" type="line" smooth="yes"/>
      <point x="1372" y="213"/>
      <point x="1380" y="195"/>
      <point x="1380" y="136" type="curve" smooth="yes"/>
      <point x="1380" y="63" type="line"/>
    </contour>
    <contour>
      <point x="530" y="0" type="move"/>
      <point x="1223" y="1353" type="line"/>
    </contour>
    <contour identifier="ID0x16d649f50">
      <point x="348" y="1229" type="move"/>
      <point x="327" y="1156"/>
      <point x="270" y="1072"/>
      <point x="190" y="1072" type="curve"/>
    </contour>
    <contour>
      <point x="510" y="601" type="move"/>
      <point x="238" y="601" type="line"/>
    </contour>
    <contour identifier="ID0x7fbdd7c5f0b0">
      <point x="378" y="609" type="move"/>
      <point x="378" y="1050" type="line" smooth="yes"/>
      <point x="378" y="1104"/>
      <point x="369" y="1134"/>
      <point x="361" y="1155" type="curve" smooth="yes"/>
      <point x="352" y="1176"/>
      <point x="346" y="1189"/>
      <point x="346" y="1210" type="curve" smooth="yes"/>
      <point x="346" y="1232"/>
      <point x="355" y="1247"/>
      <point x="363" y="1262" type="curve" smooth="yes"/>
      <point x="370" y="1276"/>
      <point x="377" y="1301"/>
      <point x="378" y="1316" type="curve"/>
    </contour>
  </outline>
</glyph>
<glyph name="onehalf" format="2">
  <advance width="1689"/>
  <unicode hex="00BD"/>
  <note>
onehalf
</note>
  <outline>
    <contour>
      <point x="1193" y="1353" type="move"/>
      <point x="500" y="0" type="line"/>
    </contour>
    <contour identifier="ID0x16d649f50">
      <point x="348" y="1229" type="move"/>
      <point x="327" y="1156"/>
      <point x="270" y="1072"/>
      <point x="190" y="1072" type="curve"/>
    </contour>
    <contour>
      <point x="510" y="601" type="move"/>
      <point x="238" y="601" type="line"/>
    </contour>
    <contour identifier="ID0x7fbdd7c5f0b0">
      <point x="378" y="609" type="move"/>
      <point x="378" y="1050" type="line" smooth="yes"/>
      <point x="378" y="1104"/>
      <point x="369" y="1134"/>
      <point x="361" y="1155" type="curve" smooth="yes"/>
      <point x="352" y="1176"/>
      <point x="346" y="1189"/>
      <point x="346" y="1210" type="curve" smooth="yes"/>
      <point x="346" y="1232"/>
      <point x="355" y="1247"/>
      <point x="363" y="1262" type="curve" smooth="yes"/>
      <point x="370" y="1276"/>
      <point x="377" y="1301"/>
      <point x="378" y="1316" type="curve"/>
    </contour>
    <contour>
      <point x="1147" y="706" type="move"/>
      <point x="1165" y="758"/>
      <point x="1217" y="812"/>
      <point x="1309" y="812" type="curve" smooth="yes"/>
      <point x="1416" y="812"/>
      <point x="1477" y="728"/>
      <point x="1477" y="633" type="curve" smooth="yes"/>
      <point x="1475" y="508"/>
      <point x="1368" y="421"/>
      <point x="1278" y="330" type="curve" smooth="yes"/>
      <point x="1227" y="279"/>
      <point x="1167" y="225"/>
      <point x="1139" y="163" type="curve" smooth="yes"/>
      <point x="1115" y="106"/>
      <point x="1127" y="76"/>
      <point x="1193" y="76" type="curve" smooth="yes"/>
      <point x="1499" y="76" type="line"/>
    </contour>
  </outline>
</glyph>
<glyph name="Eth" format="2">
  <advance width="1325"/>
  <unicode hex="00D0"/>
  <note>
Eth
</note>
  <anchor x="658" y="0" name="bottom"/>
  <anchor x="658" y="1320" name="top"/>
  <outline>
    <component base="D" xOffset="50"/>
    <contour>
      <point x="215" y="689" type="move"/>
      <point x="612" y="690" type="line"/>
    </contour>
  </outline>
</glyph>
<glyph name="Oslash" format="2">
  <advance width="1568"/>
  <unicode hex="00D8"/>
  <note>
Oslash
</note>
  <anchor x="784" y="0" name="bottom"/>
  <anchor x="784" y="1320" name="top"/>
  <outline>
    <contour>
      <point x="1318" y="1280" type="move"/>
      <point x="1292" y="1226"/>
      <point x="1225" y="1130"/>
      <point x="1137" y="1127" type="curve" smooth="yes"/>
      <point x="1079" y="1127"/>
      <point x="1034" y="1153"/>
      <point x="974" y="1179" type="curve" smooth="yes"/>
      <point x="921" y="1200"/>
      <point x="858" y="1217"/>
      <point x="765" y="1217" type="curve" smooth="yes"/>
      <point x="500" y="1211"/>
      <point x="286" y="1015"/>
      <point x="286" y="679" type="curve" smooth="yes"/>
      <point x="286" y="489"/>
      <point x="346" y="323"/>
      <point x="463" y="323" type="curve" smooth="yes"/>
      <point x="544" y="323"/>
      <point x="664" y="491"/>
      <point x="788" y="656" type="curve" smooth="yes"/>
      <point x="906" y="817"/>
      <point x="1028" y="974"/>
      <point x="1119" y="978" type="curve" smooth="yes"/>
      <point x="1202" y="981"/>
      <point x="1273" y="846"/>
      <point x="1273" y="653" type="curve" smooth="yes"/>
      <point x="1273" y="357"/>
      <point x="1067" y="79"/>
      <point x="790" y="73" type="curve" smooth="yes"/>
      <point x="700" y="72"/>
      <point x="641" y="93"/>
      <point x="594" y="116" type="curve" smooth="yes"/>
      <point x="535" y="147"/>
      <point x="494" y="178"/>
      <point x="433" y="178" type="curve" smooth="yes"/>
      <point x="336" y="178"/>
      <point x="285" y="81"/>
      <point x="250" y="28" type="curve" smooth="yes"/>
    </contour>
    <contour>
      <point x="446" y="312" type="move"/>
      <point x="446" y="192" type="line"/>
    </contour>
    <contour>
      <point x="1123" y="993" type="move"/>
      <point x="1123" y="1108" type="line"/>
    </contour>
  </outline>
</glyph>
<glyph name="Thorn" format="2">
  <advance width="1148"/>
  <unicode hex="00DE"/>
  <note>
Thorn
</note>
  <anchor x="574" y="0" name="bottom"/>
  <anchor x="574" y="1320" name="top"/>
  <outline>
    <contour>
      <point x="200" y="1270" type="move"/>
      <point x="200" y="1217" type="line" smooth="yes"/>
      <point x="200" y="1183"/>
      <point x="216" y="1157"/>
      <point x="232" y="1132" type="curve" smooth="yes"/>
      <point x="246" y="1108"/>
      <point x="260" y="1085"/>
      <point x="260" y="1054" type="curve" smooth="yes"/>
      <point x="260" y="1025"/>
      <point x="245" y="1006"/>
      <point x="231" y="985" type="curve" smooth="yes"/>
      <point x="216" y="962"/>
      <point x="200" y="935"/>
      <point x="200" y="874" type="curve" smooth="yes"/>
      <point x="200" y="567" type="line" smooth="yes"/>
      <point x="200" y="491"/>
      <point x="222" y="455"/>
      <point x="245" y="427" type="curve" smooth="yes"/>
      <point x="271" y="394"/>
      <point x="300" y="370"/>
      <point x="300" y="338" type="curve" smooth="yes"/>
      <point x="300" y="315"/>
      <point x="279" y="298"/>
      <point x="256" y="275" type="curve" smooth="yes"/>
      <point x="229" y="249"/>
      <point x="200" y="217"/>
      <point x="200" y="163" type="curve" smooth="yes"/>
      <point x="200" y="57" type="line"/>
    </contour>
    <contour>
      <point x="277" y="1053" type="move"/>
      <point x="609" y="1053" type="line" smooth="yes"/>
      <point x="793" y="1053"/>
      <point x="939" y="928"/>
      <point x="938" y="705" type="curve" smooth="yes"/>
      <point x="937" y="482"/>
      <point x="803" y="338"/>
      <point x="594" y="338" type="curve" smooth="yes"/>
      <point x="321" y="338" type="line"/>
    </contour>
  </outline>
</glyph>
<glyph name="germandbls" format="2">
  <advance width="1103"/>
  <unicode hex="00DF"/>
  <note>
germandbls
</note>
  <anchor x="557" y="0" name="bottom"/>
  <anchor x="557" y="1425" name="top"/>
  <outline>
    <contour>
      <point x="250" y="101" type="move"/>
      <point x="250" y="897" type="line" smooth="yes"/>
      <point x="250" y="1188"/>
      <point x="389" y="1295"/>
      <point x="555" y="1294" type="curve" smooth="yes"/>
      <point x="699" y="1293"/>
      <point x="817" y="1178"/>
      <point x="817" y="1064" type="curve" smooth="yes"/>
      <point x="817" y="988"/>
      <point x="791" y="940"/>
      <point x="761" y="897" type="curve" smooth="yes"/>
      <point x="722" y="843"/>
      <point x="658" y="812"/>
      <point x="658" y="734" type="curve" smooth="yes"/>
      <point x="658" y="656"/>
      <point x="743" y="603"/>
      <point x="820" y="534" type="curve" smooth="yes"/>
      <point x="886" y="475"/>
      <point x="943" y="405"/>
      <point x="943" y="297" type="curve" smooth="yes"/>
      <point x="943" y="186"/>
      <point x="848" y="74"/>
      <point x="725" y="74" type="curve" smooth="yes"/>
      <point x="661" y="74"/>
      <point x="599" y="101"/>
      <point x="568" y="122" type="curve"/>
    </contour>
  </outline>
</glyph>
<glyph name="ae" format="2">
  <advance width="1524"/>
  <unicode hex="00E6"/>
  <note>
ae
</note>
  <anchor x="765" y="0" name="bottom"/>
  <anchor x="675" y="985" name="top"/>
  <outline>
    <contour identifier="ID0x147822e10">
      <point x="792" y="456" type="move"/>
      <point x="1180" y="456" type="line" smooth="yes"/>
      <point x="1286" y="456"/>
      <point x="1347" y="491"/>
      <point x="1338" y="605" type="curve" smooth="yes"/>
      <point x="1329" y="719"/>
      <point x="1223" y="845"/>
      <point x="1047" y="845" type="curve" smooth="yes"/>
      <point x="859" y="845"/>
      <point x="762" y="724"/>
      <point x="741" y="626" type="curve" smooth="yes"/>
      <point x="724" y="546"/>
      <point x="784" y="504"/>
      <point x="784" y="454" type="curve" smooth="yes"/>
      <point x="784" y="408"/>
      <point x="724" y="369"/>
      <point x="737" y="275" type="curve" smooth="yes"/>
      <point x="760" y="103"/>
      <point x="876" y="8"/>
      <point x="1043" y="8" type="curve" smooth="yes"/>
      <point x="1155" y="8"/>
      <point x="1261" y="80"/>
      <point x="1303" y="148" type="curve" smooth="yes"/>
    </contour>
    <contour identifier="ID0x2f3416d60">
      <point x="268" y="801" type="move"/>
      <point x="302" y="914"/>
      <point x="398" y="955"/>
      <point x="516" y="955" type="curve" smooth="yes"/>
      <point x="662" y="955"/>
      <point x="753" y="875"/>
      <point x="768" y="741" type="curve" smooth="yes"/>
      <point x="770" y="724"/>
      <point x="771" y="703"/>
      <point x="762" y="685" type="curve"/>
    </contour>
    <contour>
      <point x="731" y="586" type="move"/>
      <point x="552" y="586" type="line" smooth="yes"/>
      <point x="429" y="586"/>
      <point x="334" y="564"/>
      <point x="274" y="514" type="curve" smooth="yes"/>
      <point x="222" y="472"/>
      <point x="195" y="410"/>
      <point x="195" y="325" type="curve" smooth="yes"/>
      <point x="195" y="252"/>
      <point x="217" y="199"/>
      <point x="255" y="164" type="curve" smooth="yes"/>
      <point x="290" y="131"/>
      <point x="340" y="115"/>
      <point x="400" y="116" type="curve" smooth="yes"/>
      <point x="492" y="116"/>
      <point x="545" y="175"/>
      <point x="601" y="231" type="curve" smooth="yes"/>
      <point x="639" y="269"/>
      <point x="679" y="308"/>
      <point x="734" y="326" type="curve" smooth="yes"/>
    </contour>
  </outline>
</glyph>
<glyph name="eth" format="2">
  <advance width="1084"/>
  <unicode hex="00F0"/>
  <note>
eth
</note>
  <anchor x="542" y="0" name="bottom"/>
  <anchor x="542" y="1425" name="top"/>
  <outline>
    <contour>
      <point x="232" y="1380" type="move"/>
      <point x="301" y="1360"/>
      <point x="388" y="1339"/>
      <point x="419" y="1313" type="curve" smooth="yes"/>
      <point x="431" y="1302"/>
      <point x="437" y="1290"/>
      <point x="441" y="1279" type="curve" smooth="yes"/>
      <point x="447" y="1263"/>
      <point x="450" y="1248"/>
      <point x="466" y="1238" type="curve" smooth="yes"/>
      <point x="480" y="1230"/>
      <point x="500" y="1232"/>
      <point x="522" y="1229" type="curve" smooth="yes"/>
      <point x="541" y="1226"/>
      <point x="560" y="1219"/>
      <point x="576" y="1199" type="curve" smooth="yes"/>
      <point x="643" y="1119"/>
      <point x="703" y="1021"/>
      <point x="725" y="947" type="curve" smooth="yes"/>
      <point x="746" y="878"/>
      <point x="711" y="842"/>
      <point x="721" y="795" type="curve" smooth="yes"/>
      <point x="730" y="755"/>
      <point x="777" y="713"/>
      <point x="794" y="663" type="curve" smooth="yes"/>
      <point x="810" y="613"/>
      <point x="809" y="551"/>
      <point x="809" y="486" type="curve" smooth="yes"/>
      <point x="809" y="202"/>
      <point x="666" y="103"/>
      <point x="486" y="103" type="curve" smooth="yes"/>
      <point x="291" y="103"/>
      <point x="177" y="249"/>
      <point x="177" y="483" type="curve" smooth="yes"/>
      <point x="177" y="676"/>
      <point x="267" y="874"/>
      <point x="480" y="874" type="curve" smooth="yes"/>
      <point x="573" y="874"/>
      <point x="675" y="831"/>
      <point x="720" y="795" type="curve" smooth="yes"/>
    </contour>
    <contour>
      <point x="260" y="1137" type="move"/>
      <point x="445" y="1234" type="line"/>
    </contour>
    <contour>
      <point x="583" y="1219" type="move"/>
      <point x="768" y="1333" type="line"/>
    </contour>
  </outline>
</glyph>
<glyph name="oslash" format="2">
  <advance width="1176"/>
  <unicode hex="00F8"/>
  <note>
oslash
</note>
  <anchor x="588" y="1005" name="top"/>
  <outline>
    <contour>
      <point x="894" y="991" type="move"/>
      <point x="877" y="921"/>
      <point x="809" y="879"/>
      <point x="764" y="879" type="curve" smooth="yes"/>
      <point x="718" y="879"/>
      <point x="693" y="898"/>
      <point x="650" y="916" type="curve" smooth="yes"/>
      <point x="613" y="931"/>
      <point x="568" y="944"/>
      <point x="502" y="944" type="curve" smooth="yes"/>
      <point x="337" y="944"/>
      <point x="168" y="802"/>
      <point x="168" y="554" type="curve" smooth="yes"/>
      <point x="168" y="460"/>
      <point x="186" y="337"/>
      <point x="305" y="337" type="curve" smooth="yes"/>
      <point x="379" y="337"/>
      <point x="463" y="447"/>
      <point x="543" y="552" type="curve" smooth="yes"/>
      <point x="615" y="648"/>
      <point x="685" y="739"/>
      <point x="741" y="739" type="curve" smooth="yes"/>
      <point x="847" y="739"/>
      <point x="862" y="636"/>
      <point x="862" y="562" type="curve" smooth="yes"/>
      <point x="862" y="299"/>
      <point x="688" y="104"/>
      <point x="520" y="104" type="curve" smooth="yes"/>
      <point x="456" y="104"/>
      <point x="414" y="120"/>
      <point x="381" y="137" type="curve" smooth="yes"/>
      <point x="339" y="160"/>
      <point x="310" y="182"/>
      <point x="267" y="182" type="curve" smooth="yes"/>
      <point x="208" y="182"/>
      <point x="152" y="120"/>
      <point x="137" y="72" type="curve" smooth="yes"/>
    </contour>
    <contour>
      <point x="276" y="330" type="move"/>
      <point x="276" y="192" type="line"/>
    </contour>
    <contour>
      <point x="756" y="750" type="move"/>
      <point x="756" y="865" type="line"/>
    </contour>
  </outline>
</glyph>
<glyph name="thorn" format="2">
  <advance width="934"/>
  <unicode hex="00FE"/>
  <note>
thorn
</note>
  <anchor x="467" y="0" name="bottom"/>
  <anchor x="467" y="1425" name="top"/>
  <outline>
    <contour identifier="ID0x17f3406d0">
      <point x="139" y="1274" type="move"/>
      <point x="139" y="993" type="line" smooth="yes"/>
      <point x="139" y="916"/>
      <point x="151" y="882"/>
      <point x="164" y="851" type="curve" smooth="yes"/>
      <point x="175" y="822"/>
      <point x="187" y="795"/>
      <point x="187" y="760" type="curve" smooth="yes"/>
      <point x="187" y="725"/>
      <point x="175" y="699"/>
      <point x="164" y="668" type="curve" smooth="yes"/>
      <point x="151" y="634"/>
      <point x="139" y="597"/>
      <point x="139" y="531" type="curve" smooth="yes"/>
      <point x="139" y="462" type="line" smooth="yes"/>
      <point x="139" y="409"/>
      <point x="147" y="381"/>
      <point x="157" y="358" type="curve" smooth="yes"/>
      <point x="174" y="317"/>
      <point x="196" y="293"/>
      <point x="196" y="252" type="curve" smooth="yes"/>
      <point x="196" y="227"/>
      <point x="184" y="203"/>
      <point x="172" y="176" type="curve" smooth="yes"/>
      <point x="156" y="144"/>
      <point x="139" y="107"/>
      <point x="139" y="46" type="curve" smooth="yes"/>
      <point x="139" y="-286" type="line"/>
    </contour>
    <component base="_panse" xOffset="26" yOffset="-14"/>
  </outline>
</glyph>
<glyph name="hcircumflex" format="2">
  <advance width="1057"/>
  <unicode hex="0125"/>
  <note>
hcircumflex
</note>
  <anchor x="519" y="1433" name="top"/>
  <outline>
    <component base="h"/>
    <contour identifier="ID0x139f34870">
      <point x="338" y="1186" type="move"/>
      <point x="409" y="1194"/>
      <point x="449" y="1221"/>
      <point x="478" y="1250" type="curve" smooth="yes"/>
      <point x="510" y="1282"/>
      <point x="514" y="1345"/>
      <point x="578" y="1345" type="curve" smooth="yes"/>
      <point x="642" y="1345"/>
      <point x="647" y="1284"/>
      <point x="676" y="1253" type="curve" smooth="yes"/>
      <point x="705" y="1222"/>
      <point x="746" y="1194"/>
      <point x="818" y="1186" type="curve"/>
    </contour>
  </outline>
</glyph>
<glyph name="Hbar" format="2">
  <advance width="1619"/>
  <unicode hex="0126"/>
  <note>
Hbar
</note>
  <outline>
    <contour>
      <point x="240" y="1043" type="move"/>
      <point x="1379" y="1043" type="line"/>
    </contour>
    <component base="H" xOffset="173"/>
  </outline>
</glyph>
<glyph name="idotless" format="2">
  <advance width="420"/>
  <unicode hex="0131"/>
  <anchor x="198" y="0" name="bottom"/>
  <anchor x="317" y="-4" name="ogonek"/>
  <anchor x="208" y="995" name="top"/>
  <outline>
    <contour>
      <point x="210" y="912" type="move"/>
      <point x="210" y="88" type="line"/>
    </contour>
  </outline>
</glyph>
<glyph name="kgreenlandic" format="2">
  <advance width="836"/>
  <unicode hex="0138"/>
  <note>
kgreenlandic
</note>
  <anchor x="418" y="0" name="bottom"/>
  <anchor x="418" y="1005" name="top"/>
  <outline>
    <contour identifier="ID0x17d34fa60">
      <point x="137" y="92" type="move"/>
      <point x="137" y="248" type="line" smooth="yes"/>
      <point x="137" y="356"/>
      <point x="200" y="413"/>
      <point x="200" y="475" type="curve" smooth="yes"/>
      <point x="200" y="539"/>
      <point x="137" y="594"/>
      <point x="137" y="711" type="curve" smooth="yes"/>
      <point x="137" y="946" type="line"/>
    </contour>
    <contour>
      <point x="209" y="476" type="move"/>
      <point x="254" y="504"/>
      <point x="325" y="482"/>
      <point x="364" y="518" type="curve" smooth="yes"/>
      <point x="411" y="561"/>
      <point x="387" y="669"/>
      <point x="455" y="760" type="curve" smooth="yes"/>
      <point x="596" y="947" type="line"/>
    </contour>
    <contour>
      <point x="365" y="508" type="move"/>
      <point x="423" y="479"/>
      <point x="475" y="378"/>
      <point x="536" y="271" type="curve" smooth="yes"/>
      <point x="636" y="97" type="line"/>
    </contour>
  </outline>
</glyph>
<glyph name="Lslash" format="2">
  <advance width="997"/>
  <unicode hex="0141"/>
  <note>
Lslash
</note>
  <outline>
    <component base="L"/>
    <contour>
      <point x="581" y="865" type="move"/>
      <point x="147" y="587" type="line"/>
    </contour>
  </outline>
</glyph>
<glyph name="lslash" format="2">
  <advance width="747"/>
  <unicode hex="0142"/>
  <note>
lslash
</note>
  <outline>
    <contour identifier="ID0x17d594a60">
      <point x="372" y="1331" type="move"/>
      <point x="372" y="855" type="line" smooth="yes"/>
      <point x="372" y="788"/>
      <point x="402" y="755"/>
      <point x="402" y="700" type="curve" smooth="yes"/>
      <point x="402" y="679"/>
      <point x="391" y="660"/>
      <point x="378" y="641" type="curve" smooth="yes"/>
      <point x="362" y="618"/>
      <point x="343" y="595"/>
      <point x="343" y="567" type="curve" smooth="yes"/>
      <point x="343" y="526"/>
      <point x="372" y="483"/>
      <point x="372" y="415" type="curve" smooth="yes"/>
      <point x="372" y="73" type="line"/>
    </contour>
    <contour>
      <point x="220" y="526" type="move"/>
      <point x="334" y="564" type="line"/>
    </contour>
    <contour>
      <point x="411" y="697" type="move"/>
      <point x="527" y="739" type="line"/>
    </contour>
  </outline>
</glyph>
<glyph name="Eng" format="2">
  <advance width="1303"/>
  <unicode hex="014A"/>
  <note>
Eng
</note>
  <anchor x="657" y="-396" name="bottom"/>
  <anchor x="657" y="1320" name="top"/>
  <outline>
    <contour identifier="ID0x2e2555bb0">
      <point x="246" y="88" type="move"/>
      <point x="240" y="771" type="line" smooth="yes"/>
      <point x="239" y="851"/>
      <point x="254" y="894"/>
      <point x="268" y="925" type="curve" smooth="yes"/>
      <point x="281" y="955"/>
      <point x="293" y="976"/>
      <point x="293" y="1007" type="curve" smooth="yes"/>
      <point x="293" y="1038"/>
      <point x="278" y="1060"/>
      <point x="264" y="1083" type="curve" smooth="yes"/>
      <point x="252" y="1105"/>
      <point x="240" y="1128"/>
      <point x="240" y="1164" type="curve" smooth="yes"/>
      <point x="240" y="1220" type="line"/>
    </contour>
    <contour>
      <point x="304" y="1014" type="move"/>
      <point x="458" y="1067"/>
      <point x="507" y="1231"/>
      <point x="713" y="1229" type="curve" smooth="yes"/>
      <point x="951" y="1227"/>
      <point x="1042" y="1067"/>
      <point x="1048" y="800" type="curve" smooth="yes"/>
      <point x="1052" y="618" type="line" smooth="yes"/>
      <point x="1058" y="359"/>
      <point x="1006" y="90"/>
      <point x="816" y="90" type="curve" smooth="yes"/>
      <point x="720" y="90"/>
      <point x="648" y="167"/>
      <point x="618" y="233" type="curve" smooth="yes"/>
    </contour>
  </outline>
</glyph>
<glyph name="eng" format="2">
  <advance width="934"/>
  <unicode hex="014B"/>
  <note>
eng
</note>
  <anchor x="467" y="-396" name="bottom"/>
  <anchor x="467" y="1005" name="top"/>
  <outline>
    <contour>
      <point x="148" y="123" type="move"/>
      <point x="148" y="903" type="line"/>
    </contour>
    <contour>
      <point x="156" y="736" type="move"/>
      <point x="210" y="756"/>
      <point x="251" y="790"/>
      <point x="290" y="824" type="curve" smooth="yes"/>
      <point x="346" y="872"/>
      <point x="397" y="919"/>
      <point x="476" y="918" type="curve" smooth="yes"/>
      <point x="633" y="917"/>
      <point x="696" y="819"/>
      <point x="696" y="625" type="curve" smooth="yes"/>
      <point x="696" y="102" type="line" smooth="yes"/>
      <point x="696" y="-86"/>
      <point x="720" y="-287"/>
      <point x="536" y="-287" type="curve"/>
    </contour>
  </outline>
</glyph>
<glyph name="OE" format="2">
  <advance width="1749"/>
  <unicode hex="0152"/>
  <note>
OE
</note>
  <anchor x="875" y="0" name="bottom"/>
  <anchor x="875" y="1320" name="top"/>
  <outline>
    <contour identifier="ID0x16fb69d10">
      <point x="1516" y="1216" type="move"/>
      <point x="1041" y="1220" type="line" smooth="yes"/>
      <point x="926" y="1221"/>
      <point x="869" y="1164"/>
      <point x="872" y="1043" type="curve" smooth="yes"/>
      <point x="873" y="995" type="line" smooth="yes"/>
      <point x="875" y="914"/>
      <point x="902" y="862"/>
      <point x="929" y="816" type="curve" smooth="yes"/>
      <point x="955" y="768"/>
      <point x="982" y="725"/>
      <point x="983" y="670" type="curve" smooth="yes"/>
      <point x="984" y="618"/>
      <point x="962" y="575"/>
      <point x="937" y="531" type="curve" smooth="yes"/>
      <point x="906" y="478"/>
      <point x="872" y="421"/>
      <point x="873" y="324" type="curve" smooth="yes"/>
      <point x="874" y="245" type="line" smooth="yes"/>
      <point x="875" y="155"/>
      <point x="933" y="92"/>
      <point x="1017" y="92" type="curve" smooth="yes"/>
      <point x="1539" y="95" type="line"/>
    </contour>
    <contour>
      <point x="987" y="670" type="move"/>
      <point x="1467" y="670" type="line"/>
    </contour>
    <contour identifier="ID0x17a0cab00">
      <point x="1124" y="1220" type="move"/>
      <point x="685" y="1218" type="line" smooth="yes"/>
      <point x="376" y="1217"/>
      <point x="200" y="1011"/>
      <point x="200" y="654" type="curve" smooth="yes"/>
      <point x="200" y="305"/>
      <point x="401" y="92"/>
      <point x="685" y="92" type="curve" smooth="yes"/>
      <point x="1007" y="92" type="line"/>
    </contour>
  </outline>
</glyph>
<glyph name="oe" format="2">
  <advance width="1670"/>
  <unicode hex="0153"/>
  <note>
oe
</note>
  <anchor x="835" y="0" name="bottom"/>
  <anchor x="835" y="1005" name="top"/>
  <outline>
    <contour identifier="ID0x17de24400">
      <point x="927" y="542" type="move"/>
      <point x="1326" y="542" type="line" smooth="yes"/>
      <point x="1432" y="542"/>
      <point x="1493" y="577"/>
      <point x="1484" y="689" type="curve" smooth="yes"/>
      <point x="1475" y="802"/>
      <point x="1369" y="927"/>
      <point x="1193" y="927" type="curve" smooth="yes"/>
      <point x="1100" y="927"/>
      <point x="1052" y="891"/>
      <point x="1010" y="854" type="curve" smooth="yes"/>
      <point x="968" y="816"/>
      <point x="934" y="779"/>
      <point x="868" y="779" type="curve" smooth="yes"/>
      <point x="819" y="779"/>
      <point x="782" y="814"/>
      <point x="738" y="851" type="curve" smooth="yes"/>
      <point x="690" y="893"/>
      <point x="633" y="935"/>
      <point x="543" y="935" type="curve" smooth="yes"/>
      <point x="340" y="935"/>
      <point x="199" y="738"/>
      <point x="211" y="481" type="curve" smooth="yes"/>
      <point x="223" y="224"/>
      <point x="339" y="106"/>
      <point x="523" y="103" type="curve" smooth="yes"/>
      <point x="618" y="100"/>
      <point x="675" y="136"/>
      <point x="719" y="173" type="curve" smooth="yes"/>
      <point x="768" y="216"/>
      <point x="800" y="262"/>
      <point x="850" y="262" type="curve" smooth="yes"/>
      <point x="902" y="262"/>
      <point x="938" y="221"/>
      <point x="984" y="182" type="curve" smooth="yes"/>
      <point x="1032" y="139"/>
      <point x="1091" y="97"/>
      <point x="1189" y="97" type="curve" smooth="yes"/>
      <point x="1346" y="97"/>
      <point x="1428" y="213"/>
      <point x="1456" y="280" type="curve" smooth="yes"/>
    </contour>
    <contour>
      <point x="876" y="769" type="move"/>
      <point x="859" y="690"/>
      <point x="919" y="589"/>
      <point x="919" y="539" type="curve" smooth="yes"/>
      <point x="919" y="493"/>
      <point x="856" y="464"/>
      <point x="862" y="371" type="curve" smooth="yes"/>
      <point x="864" y="337"/>
      <point x="859" y="290"/>
      <point x="845" y="270" type="curve"/>
    </contour>
  </outline>
</glyph>
<glyph name="longs" format="2">
  <advance width="499"/>
  <unicode hex="017F"/>
  <note>
longs
</note>
  <anchor x="255" y="0" name="bottom"/>
  <anchor x="255" y="1425" name="top"/>
  <outline>
    <contour>
      <point x="379" y="1300" type="move"/>
      <point x="256" y="1301"/>
      <point x="200" y="1252"/>
      <point x="200" y="1021" type="curve" smooth="yes"/>
      <point x="200" y="119" type="line"/>
    </contour>
  </outline>
</glyph>
<glyph name="florin" format="2">
  <advance width="871"/>
  <unicode hex="0192"/>
  <note>
florin
</note>
  <outline>
    <contour identifier="ID0x17fd55c40">
      <point x="671" y="1320" type="move"/>
      <point x="516" y="1356"/>
      <point x="464" y="1262"/>
      <point x="429" y="1058" type="curve" smooth="yes"/>
      <point x="200" y="-287" type="line"/>
    </contour>
    <contour>
      <point x="263" y="917" type="move"/>
      <point x="573" y="917" type="line"/>
    </contour>
  </outline>
</glyph>
<glyph name="Aringacute" format="2">
  <advance width="1232"/>
  <unicode hex="01FA"/>
  <note>
Aringacute
</note>
  <anchor x="616" y="1634" name="top"/>
  <outline>
    <component base="A"/>
    <contour identifier="ID0x16aaa8040">
      <point x="624" y="1519" type="curve" smooth="yes"/>
      <point x="701" y="1519"/>
      <point x="761" y="1448"/>
      <point x="761" y="1380" type="curve" smooth="yes"/>
      <point x="761" y="1301"/>
      <point x="685" y="1238"/>
      <point x="608" y="1239" type="curve" smooth="yes"/>
      <point x="532" y="1240"/>
      <point x="469" y="1312"/>
      <point x="472" y="1386" type="curve" smooth="yes"/>
      <point x="475" y="1453"/>
      <point x="545" y="1522"/>
    </contour>
    <contour identifier="ID0x16aa771e0">
      <point x="420" y="1623" type="move"/>
      <point x="474" y="1560"/>
      <point x="584" y="1531"/>
      <point x="672" y="1552" type="curve" smooth="yes"/>
      <point x="760" y="1574"/>
      <point x="815" y="1646"/>
      <point x="827" y="1712" type="curve"/>
    </contour>
  </outline>
</glyph>
<glyph name="jdotless" format="2">
  <advance width="373"/>
  <unicode hex="0237"/>
  <anchor x="187" y="-396" name="bottom"/>
  <anchor x="144" y="989" name="top"/>
  <outline>
    <contour>
      <point x="144" y="919" type="move"/>
      <point x="144" y="-16" type="line" smooth="yes"/>
      <point x="144" y="-168"/>
      <point x="120" y="-279"/>
      <point x="43" y="-337" type="curve"/>
    </contour>
  </outline>
</glyph>
<glyph name="gravecomb" format="2">
  <advance width="934"/>
  <unicode hex="0300"/>
  <anchor x="447" y="1005" name="_top"/>
  <anchor x="447" y="1374" name="top"/>
  <outline>
    <contour identifier="ID0x7fc43dde69e0">
      <point x="224" y="1274" type="move"/>
      <point x="239" y="1165"/>
      <point x="286" y="1089"/>
      <point x="351" y="1044" type="curve" smooth="yes"/>
      <point x="437" y="983"/>
      <point x="555" y="979"/>
      <point x="669" y="1025" type="curve" smooth="yes"/>
    </contour>
  </outline>
</glyph>
<glyph name="circumflexcomb" format="2">
  <advance width="934"/>
  <unicode hex="0302"/>
  <anchor x="421" y="1005" name="_top"/>
  <anchor x="421" y="1482" name="top"/>
  <outline>
    <contour identifier="ID0x7fc43ef6d960">
      <point x="67" y="1108" type="move"/>
      <point x="167" y="1108"/>
      <point x="218" y="1165"/>
      <point x="260" y="1226" type="curve" smooth="yes"/>
      <point x="307" y="1298"/>
      <point x="341" y="1382"/>
      <point x="416" y="1382" type="curve" smooth="yes"/>
      <point x="495" y="1382"/>
      <point x="525" y="1298"/>
      <point x="575" y="1228" type="curve" smooth="yes"/>
      <point x="619" y="1166"/>
      <point x="674" y="1108"/>
      <point x="775" y="1108" type="curve"/>
    </contour>
  </outline>
</glyph>
<glyph name="tildecomb" format="2">
  <advance width="934"/>
  <unicode hex="0303"/>
  <anchor x="460" y="1005" name="_top"/>
  <anchor x="460" y="1435" name="top"/>
  <outline>
    <contour>
      <point x="183" y="1274" type="move"/>
      <point x="222" y="1314"/>
      <point x="263" y="1335"/>
      <point x="332" y="1335" type="curve" smooth="yes"/>
      <point x="382" y="1335"/>
      <point x="421" y="1306"/>
      <point x="461" y="1276" type="curve" smooth="yes"/>
      <point x="504" y="1245"/>
      <point x="546" y="1212"/>
      <point x="600" y="1212" type="curve" smooth="yes"/>
      <point x="676" y="1212"/>
      <point x="729" y="1280"/>
      <point x="737" y="1294" type="curve" smooth="yes"/>
    </contour>
  </outline>
</glyph>
<glyph name="macroncomb" format="2">
  <advance width="934"/>
  <unicode hex="0304"/>
  <anchor x="414" y="1005" name="_top"/>
  <anchor x="414" y="1372" name="top"/>
  <outline>
    <contour>
      <point x="250" y="1272" type="move"/>
      <point x="578" y="1272" type="line"/>
    </contour>
  </outline>
</glyph>
<glyph name="brevecomb" format="2">
  <advance width="934"/>
  <unicode hex="0306"/>
  <anchor x="419" y="1126" name="_top"/>
  <anchor x="421" y="1393" name="top"/>
  <outline>
    <contour identifier="ID0x16881e130">
      <point x="126" y="1293" type="move"/>
      <point x="156" y="1190"/>
      <point x="262" y="1076"/>
      <point x="419" y="1076" type="curve" smooth="yes"/>
      <point x="573" y="1076"/>
      <point x="673" y="1179"/>
      <point x="715" y="1293" type="curve" smooth="yes"/>
    </contour>
  </outline>
</glyph>
<glyph name="dotaccentcomb" format="2">
  <advance width="633"/>
  <unicode hex="0307"/>
  <anchor x="255" y="1005" name="_top"/>
  <anchor x="255" y="1496" name="top"/>
  <outline>
    <contour>
      <point x="274" y="1395" type="move"/>
      <point x="258" y="1351" type="line"/>
    </contour>
  </outline>
</glyph>
<glyph name="ringcomb" format="2">
  <advance width="559"/>
  <unicode hex="030A"/>
  <anchor x="219" y="1105" name="_top"/>
  <anchor x="219" y="1560" name="top"/>
  <outline>
    <contour>
      <point x="221" y="1502" type="curve" smooth="yes"/>
      <point x="284" y="1502"/>
      <point x="326" y="1447"/>
      <point x="326" y="1381" type="curve" smooth="yes"/>
      <point x="326" y="1314"/>
      <point x="284" y="1261"/>
      <point x="217" y="1261" type="curve" smooth="yes"/>
      <point x="154" y="1261"/>
      <point x="111" y="1314"/>
      <point x="111" y="1381" type="curve" smooth="yes"/>
      <point x="111" y="1447"/>
      <point x="154" y="1502"/>
    </contour>
  </outline>
</glyph>
<glyph name="cedillacomb" format="2">
  <advance width="1315"/>
  <unicode hex="0327"/>
  <anchor x="622" y="0" name="_bottom"/>
  <anchor x="622" y="-445" name="bottom"/>
  <outline>
    <contour>
      <point x="598" y="87" type="move"/>
      <point x="559" y="28"/>
      <point x="575" y="-18"/>
      <point x="606" y="-60" type="curve" smooth="yes"/>
      <point x="650" y="-118"/>
      <point x="725" y="-170"/>
      <point x="725" y="-240" type="curve" smooth="yes"/>
      <point x="725" y="-312"/>
      <point x="598" y="-387"/>
      <point x="519" y="-318" type="curve" smooth="yes"/>
    </contour>
  </outline>
</glyph>
<glyph name="ogonekcomb" format="2">
  <advance width="1120"/>
  <unicode hex="0328"/>
  <anchor x="1035" y="-62" name="_ogonek"/>
  <outline>
    <contour identifier="ID0x13a720630">
      <point x="928" y="30" type="move"/>
      <point x="849" y="-27"/>
      <point x="800" y="-142"/>
      <point x="825" y="-239" type="curve" smooth="yes"/>
      <point x="851" y="-336"/>
      <point x="954" y="-411"/>
      <point x="1061" y="-410" type="curve" smooth="yes"/>
    </contour>
  </outline>
</glyph>
<glyph name="Delta" format="2">
  <advance width="1145"/>
  <unicode hex="0394"/>
  <note>
Delta
</note>
  <outline>
    <contour>
      <point x="503.51" y="1319.82" type="curve" smooth="yes"/>
      <point x="503.48" y="1319.82" type="line" smooth="yes"/>
      <point x="493.32" y="1319.82"/>
      <point x="483.49" y="1318.13"/>
      <point x="474.01" y="1314.74" type="curve" smooth="yes"/>
      <point x="464.52" y="1310.67"/>
      <point x="455.54" y="1304.41"/>
      <point x="447.08" y="1295.94" type="curve" smooth="yes"/>
      <point x="437.46" y="1286.92"/>
      <point x="428.65" y="1274.72"/>
      <point x="420.65" y="1259.35" type="curve" smooth="yes"/>
      <point x="412" y="1241.34"/>
      <point x="402.52" y="1212.54"/>
      <point x="392.19" y="1172.96" type="curve" smooth="yes"/>
      <point x="380.84" y="1129.45"/>
      <point x="361.87" y="1069.31"/>
      <point x="335.27" y="992.55" type="curve" smooth="yes"/>
      <point x="328.81" y="973.62"/>
      <point x="317.63" y="940.61"/>
      <point x="301.74" y="893.53" type="curve" smooth="yes"/>
      <point x="285.84" y="846.45"/>
      <point x="264.84" y="784.17"/>
      <point x="238.71" y="706.7" type="curve" smooth="yes"/>
      <point x="212.59" y="629.23"/>
      <point x="191.58" y="566.97"/>
      <point x="175.7" y="519.93" type="curve" smooth="yes"/>
      <point x="122.27" y="360.66"/>
      <point x="88.83" y="259.24"/>
      <point x="75.4" y="215.68" type="curve" smooth="yes"/>
      <point x="61.96" y="172.11"/>
      <point x="54.74" y="141.4"/>
      <point x="53.74" y="123.55" type="curve" smooth="yes"/>
      <point x="51.92" y="96.7"/>
      <point x="53.61" y="76.88"/>
      <point x="58.82" y="64.09" type="curve" smooth="yes"/>
      <point x="64.02" y="51.81"/>
      <point x="73.84" y="41.82"/>
      <point x="88.3" y="34.11" type="curve" smooth="yes"/>
      <point x="98.97" y="28.78"/>
      <point x="121.45" y="25.64"/>
      <point x="155.76" y="24.71" type="curve" smooth="yes"/>
      <point x="190.06" y="23.78"/>
      <point x="304.45" y="23.18"/>
      <point x="498.92" y="22.93" type="curve" smooth="yes"/>
      <point x="758.32" y="22.93"/>
      <point x="894.34" y="24.96"/>
      <point x="907" y="29.03" type="curve" smooth="yes"/>
      <point x="919.92" y="33.34"/>
      <point x="929.74" y="39.77"/>
      <point x="936.48" y="48.34" type="curve" smooth="yes"/>
      <point x="942.76" y="56.34"/>
      <point x="947.17" y="66.33"/>
      <point x="949.69" y="78.32" type="curve" smooth="yes"/>
      <point x="951.69" y="90.35"/>
      <point x="950" y="112.54"/>
      <point x="944.61" y="144.89" type="curve" smooth="yes"/>
      <point x="939.14" y="176.82"/>
      <point x="895.77" y="315.38"/>
      <point x="814.51" y="560.59" type="curve" smooth="yes"/>
      <point x="730.09" y="815.77"/>
      <point x="680.97" y="965.35"/>
      <point x="667.14" y="1009.32" type="curve" smooth="yes"/>
      <point x="646.63" y="1075.26"/>
      <point x="632.23" y="1123.87"/>
      <point x="623.94" y="1155.17" type="curve" smooth="yes"/>
      <point x="611.78" y="1198.69"/>
      <point x="601.45" y="1228.68"/>
      <point x="592.94" y="1245.12" type="curve" smooth="yes"/>
      <point x="584.09" y="1263.46"/>
      <point x="574.26" y="1278.03"/>
      <point x="563.47" y="1288.82" type="curve" smooth="yes"/>
      <point x="553.57" y="1299.88"/>
      <point x="543.75" y="1308.01"/>
      <point x="534" y="1313.21" type="curve" smooth="yes"/>
      <point x="524.6" y="1318.22"/>
      <point x="514.44" y="1320.42"/>
    </contour>
    <contour>
      <point x="502.49" y="1269.5" type="curve" smooth="yes"/>
      <point x="509.8" y="1269.51"/>
      <point x="518.61" y="1263.75"/>
      <point x="528.92" y="1252.23" type="curve" smooth="yes"/>
      <point x="539.61" y="1239.54"/>
      <point x="548.42" y="1223.95"/>
      <point x="555.35" y="1205.48" type="curve" smooth="yes"/>
      <point x="565.27" y="1176.63"/>
      <point x="573.9" y="1148.17"/>
      <point x="581.27" y="1120.1" type="curve" smooth="yes"/>
      <point x="590.27" y="1085.79"/>
      <point x="609.75" y="1022.09"/>
      <point x="639.71" y="929.02" type="curve" smooth="yes"/>
      <point x="667.43" y="842.9"/>
      <point x="714.86" y="699.76"/>
      <point x="782" y="499.6" type="curve" smooth="yes"/>
      <point x="848.08" y="302.98"/>
      <point x="884.33" y="187.28"/>
      <point x="890.75" y="152.51" type="curve" smooth="yes"/>
      <point x="897.53" y="118.01"/>
      <point x="900.91" y="97.34"/>
      <point x="900.91" y="90.51" type="curve" smooth="yes"/>
      <point x="900.91" y="84.19"/>
      <point x="897.18" y="79.78"/>
      <point x="889.73" y="77.3" type="curve" smooth="yes"/>
      <point x="882.02" y="74.93"/>
      <point x="751.42" y="73.74"/>
      <point x="497.92" y="73.74" type="curve" smooth="yes"/>
      <point x="244.53" y="74.16"/>
      <point x="115.29" y="76.53"/>
      <point x="110.17" y="80.85" type="curve" smooth="yes"/>
      <point x="106.7" y="83.58"/>
      <point x="104.62" y="87.77"/>
      <point x="103.95" y="93.43" type="curve" smooth="yes"/>
      <point x="103.27" y="99.09"/>
      <point x="103.48" y="109.12"/>
      <point x="104.58" y="123.54" type="curve" smooth="yes"/>
      <point x="106.84" y="148.37"/>
      <point x="142.58" y="263.56"/>
      <point x="211.81" y="469.11" type="curve" smooth="yes"/>
      <point x="274.35" y="656.73"/>
      <point x="326.19" y="810.04"/>
      <point x="367.32" y="929.02" type="curve" smooth="yes"/>
      <point x="399.99" y="1023.53"/>
      <point x="423.88" y="1097.9"/>
      <point x="438.97" y="1152.11" type="curve" smooth="yes"/>
      <point x="452.4" y="1200.96"/>
      <point x="461.04" y="1228.91"/>
      <point x="464.89" y="1235.96" type="curve" smooth="yes"/>
      <point x="467.94" y="1242.06"/>
      <point x="473.19" y="1249.51"/>
      <point x="480.64" y="1258.32" type="curve" smooth="yes"/>
      <point x="487.47" y="1265.77"/>
      <point x="494.76" y="1269.5"/>
    </contour>
  </outline>
</glyph>
<glyph name="Omega" format="2">
  <advance width="1274"/>
  <unicode hex="03A9"/>
  <note>
Omega
</note>
  <anchor x="637" y="0" name="bottom"/>
  <anchor x="20" y="1320" name="topleft"/>
  <outline>
    <contour>
      <point x="608.12" y="1339.98" type="curve" smooth="yes"/>
      <point x="608.14" y="1339.98" type="line" smooth="yes"/>
      <point x="566.75" y="1341.86"/>
      <point x="534.74" y="1341.01"/>
      <point x="512.09" y="1337.44" type="curve" smooth="yes"/>
      <point x="488.13" y="1334.29"/>
      <point x="466.11" y="1330.05"/>
      <point x="446.03" y="1324.73" type="curve" smooth="yes"/>
      <point x="425.51" y="1319.3"/>
      <point x="403.15" y="1311"/>
      <point x="378.95" y="1299.83" type="curve" smooth="yes"/>
      <point x="354.39" y="1288.5"/>
      <point x="332.37" y="1276.13"/>
      <point x="312.89" y="1262.73" type="curve" smooth="yes"/>
      <point x="293.72" y="1249.95"/>
      <point x="273.39" y="1232.5"/>
      <point x="251.91" y="1210.39" type="curve" smooth="yes"/>
      <point x="231.4" y="1188.63"/>
      <point x="215.98" y="1170.17"/>
      <point x="205.66" y="1155" type="curve" smooth="yes"/>
      <point x="195.42" y="1139.94"/>
      <point x="184.07" y="1119.96"/>
      <point x="171.61" y="1095.03" type="curve" smooth="yes"/>
      <point x="159.08" y="1070.57"/>
      <point x="148.07" y="1043.47"/>
      <point x="138.58" y="1013.72" type="curve" smooth="yes"/>
      <point x="128.51" y="983.52"/>
      <point x="121.06" y="952.69"/>
      <point x="116.22" y="921.23" type="curve" smooth="yes"/>
      <point x="110.61" y="888.83"/>
      <point x="106.89" y="856.64"/>
      <point x="105.04" y="824.67" type="curve" smooth="yes"/>
      <point x="102.63" y="793.29"/>
      <point x="103.3" y="756.87"/>
      <point x="107.07" y="715.41" type="curve" smooth="yes"/>
      <point x="111.97" y="669.24"/>
      <point x="117.22" y="632.65"/>
      <point x="122.82" y="605.64" type="curve" smooth="yes"/>
      <point x="130" y="571.71"/>
      <point x="137.62" y="542.07"/>
      <point x="145.69" y="516.71" type="curve" smooth="yes"/>
      <point x="156.01" y="487.11"/>
      <point x="167.87" y="457.81"/>
      <point x="181.26" y="428.79" type="curve" smooth="yes"/>
      <point x="197.6" y="395.45"/>
      <point x="213.19" y="368.51"/>
      <point x="228.01" y="347.99" type="curve" smooth="yes"/>
      <point x="243.74" y="325.6"/>
      <point x="278.47" y="288.16"/>
      <point x="332.19" y="235.68" type="curve" smooth="yes"/>
      <point x="385.1" y="183.77"/>
      <point x="414.41" y="151.07"/>
      <point x="420.11" y="137.6" type="curve" smooth="yes"/>
      <point x="425.19" y="124.26"/>
      <point x="427.73" y="112.74"/>
      <point x="427.73" y="103.04" type="curve" smooth="yes"/>
      <point x="427.73" y="92.94"/>
      <point x="423.5" y="85.14"/>
      <point x="415.02" y="79.66" type="curve" smooth="yes"/>
      <point x="409.17" y="75.85"/>
      <point x="397.08" y="73.67"/>
      <point x="378.75" y="73.12" type="curve" smooth="yes"/>
      <point x="360.41" y="72.57"/>
      <point x="315.93" y="73.06"/>
      <point x="245.29" y="74.58" type="curve" smooth="yes"/>
      <point x="174.38" y="76.34"/>
      <point x="130.17" y="76.98"/>
      <point x="112.65" y="76.49" type="curve" smooth="yes"/>
      <point x="95.13" y="76"/>
      <point x="84.46" y="73.84"/>
      <point x="80.63" y="70.01" type="curve" smooth="yes"/>
      <point x="74.87" y="64.83"/>
      <point x="71.99" y="58.9"/>
      <point x="71.99" y="52.22" type="curve" smooth="yes"/>
      <point x="71.99" y="46.12"/>
      <point x="74.53" y="40.53"/>
      <point x="79.61" y="35.45" type="curve" smooth="yes"/>
      <point x="84.12" y="30.53"/>
      <point x="135.11" y="26.8"/>
      <point x="232.57" y="24.27" type="curve" smooth="yes"/>
      <point x="329.85" y="21.79"/>
      <point x="386.6" y="21.45"/>
      <point x="402.81" y="23.25" type="curve" smooth="yes"/>
      <point x="419.54" y="25.11"/>
      <point x="432.92" y="29.17"/>
      <point x="442.96" y="35.45" type="curve" smooth="yes"/>
      <point x="453.04" y="41.38"/>
      <point x="461.51" y="51.2"/>
      <point x="468.37" y="64.92" type="curve" smooth="yes"/>
      <point x="475.15" y="79.09"/>
      <point x="478.53" y="92.81"/>
      <point x="478.53" y="106.08" type="curve" smooth="yes"/>
      <point x="478.53" y="119.29"/>
      <point x="475.65" y="134.54"/>
      <point x="469.89" y="151.82" type="curve" smooth="yes"/>
      <point x="466.32" y="162.28"/>
      <point x="458.17" y="175.01"/>
      <point x="445.44" y="190.01" type="curve" smooth="yes"/>
      <point x="432.71" y="205.02"/>
      <point x="406.47" y="232.77"/>
      <point x="366.73" y="273.27" type="curve" smooth="yes"/>
      <point x="303.6" y="337.84"/>
      <point x="264.97" y="381.88"/>
      <point x="250.86" y="405.4" type="curve" smooth="yes"/>
      <point x="234.52" y="434.37"/>
      <point x="222.49" y="458.26"/>
      <point x="214.78" y="477.05" type="curve" smooth="yes"/>
      <point x="206" y="497.2"/>
      <point x="196.68" y="523.46"/>
      <point x="186.83" y="555.82" type="curve" smooth="yes"/>
      <point x="178.31" y="585.97"/>
      <point x="171.7" y="616.29"/>
      <point x="167.01" y="646.78" type="curve" smooth="yes"/>
      <point x="161.4" y="679.19"/>
      <point x="157.67" y="711.38"/>
      <point x="155.83" y="743.34" type="curve" smooth="yes"/>
      <point x="153.37" y="775.87"/>
      <point x="154.22" y="812.29"/>
      <point x="158.37" y="852.6" type="curve" smooth="yes"/>
      <point x="161.94" y="891.87"/>
      <point x="167.87" y="927.44"/>
      <point x="176.16" y="959.32" type="curve" smooth="yes"/>
      <point x="185.04" y="993.48"/>
      <point x="194.36" y="1021.94"/>
      <point x="204.11" y="1044.7" type="curve" smooth="yes"/>
      <point x="214.46" y="1070.28"/>
      <point x="226.49" y="1093.66"/>
      <point x="240.19" y="1114.83" type="curve" smooth="yes"/>
      <point x="253.45" y="1135.33"/>
      <point x="269.04" y="1155.15"/>
      <point x="286.94" y="1174.29" type="curve" smooth="yes"/>
      <point x="305.36" y="1193.34"/>
      <point x="326.19" y="1210.62"/>
      <point x="349.45" y="1226.13" type="curve" smooth="yes"/>
      <point x="373.63" y="1241.85"/>
      <point x="398.19" y="1254.38"/>
      <point x="423.14" y="1263.74" type="curve" smooth="yes"/>
      <point x="446.91" y="1272.65"/>
      <point x="476.38" y="1279.94"/>
      <point x="511.56" y="1285.59" type="curve" smooth="yes"/>
      <point x="546.01" y="1290.58"/>
      <point x="580.22" y="1292.11"/>
      <point x="614.21" y="1290.16" type="curve" smooth="yes"/>
      <point x="651.35" y="1287.51"/>
      <point x="681.67" y="1283.1"/>
      <point x="705.18" y="1276.95" type="curve" smooth="yes"/>
      <point x="731.54" y="1270.21"/>
      <point x="756.95" y="1260.72"/>
      <point x="781.41" y="1248.49" type="curve" smooth="yes"/>
      <point x="805.91" y="1236.56"/>
      <point x="828.95" y="1221.65"/>
      <point x="850.52" y="1203.77" type="curve" smooth="yes"/>
      <point x="872.24" y="1185.67"/>
      <point x="891.89" y="1165.01"/>
      <point x="909.47" y="1141.77" type="curve" smooth="yes"/>
      <point x="927.46" y="1118.2"/>
      <point x="942.87" y="1092.96"/>
      <point x="955.72" y="1066.05" type="curve" smooth="yes"/>
      <point x="968.63" y="1039"/>
      <point x="978.8" y="1013.42"/>
      <point x="986.21" y="989.31" type="curve" smooth="yes"/>
      <point x="993.72" y="964.89"/>
      <point x="998.98" y="943.72"/>
      <point x="1001.96" y="925.79" type="curve" smooth="yes"/>
      <point x="1005.15" y="909.86"/>
      <point x="1008.7" y="882.25"/>
      <point x="1012.63" y="842.96" type="curve" smooth="yes"/>
      <point x="1015.69" y="804.66"/>
      <point x="1015.53" y="764.85"/>
      <point x="1012.12" y="723.54" type="curve" smooth="yes"/>
      <point x="1008.54" y="681.79"/>
      <point x="1003.29" y="644.86"/>
      <point x="996.37" y="612.75" type="curve" smooth="yes"/>
      <point x="988.87" y="578.64"/>
      <point x="980.73" y="549"/>
      <point x="971.98" y="523.82" type="curve" smooth="yes"/>
      <point x="963.4" y="497.52"/>
      <point x="951.89" y="469.91"/>
      <point x="937.42" y="440.99" type="curve" smooth="yes"/>
      <point x="922.03" y="411.54"/>
      <point x="906.95" y="386.98"/>
      <point x="892.19" y="367.3" type="curve" smooth="yes"/>
      <point x="876.95" y="346.19"/>
      <point x="842.39" y="308.08"/>
      <point x="788.52" y="252.96" type="curve" smooth="yes"/>
      <point x="756.03" y="219.72"/>
      <point x="734.15" y="196.27"/>
      <point x="722.89" y="182.61" type="curve" smooth="yes"/>
      <point x="711.62" y="168.96"/>
      <point x="704.2" y="157"/>
      <point x="700.61" y="146.74" type="curve" smooth="yes"/>
      <point x="694.85" y="129.46"/>
      <point x="691.97" y="115.06"/>
      <point x="691.97" y="103.54" type="curve" smooth="yes"/>
      <point x="691.97" y="91.96"/>
      <point x="695.36" y="79.09"/>
      <point x="702.13" y="64.92" type="curve" smooth="yes"/>
      <point x="709.39" y="50.39"/>
      <point x="717.86" y="40.57"/>
      <point x="727.54" y="35.45" type="curve" smooth="yes"/>
      <point x="738.24" y="29.16"/>
      <point x="752.47" y="25.09"/>
      <point x="770.23" y="23.25" type="curve" smooth="yes"/>
      <point x="787.69" y="21.44"/>
      <point x="843.59" y="21.78"/>
      <point x="937.93" y="24.27" type="curve" smooth="yes"/>
      <point x="1032.02" y="26.81"/>
      <point x="1081.31" y="30.54"/>
      <point x="1085.81" y="35.45" type="curve" smooth="yes"/>
      <point x="1090.89" y="40.53"/>
      <point x="1093.43" y="46.12"/>
      <point x="1093.43" y="52.22" type="curve" smooth="yes"/>
      <point x="1093.43" y="58.89"/>
      <point x="1090.55" y="64.82"/>
      <point x="1084.79" y="70.01" type="curve" smooth="yes"/>
      <point x="1080.97" y="73.83"/>
      <point x="1070.4" y="75.99"/>
      <point x="1053.09" y="76.49" type="curve" smooth="yes"/>
      <point x="1035.78" y="76.99"/>
      <point x="992.31" y="76.35"/>
      <point x="922.68" y="74.58" type="curve" smooth="yes"/>
      <point x="853.06" y="73.06"/>
      <point x="809.24" y="72.57"/>
      <point x="791.25" y="73.12" type="curve" smooth="yes"/>
      <point x="773.26" y="73.67"/>
      <point x="761.33" y="75.85"/>
      <point x="755.49" y="79.66" type="curve" smooth="yes"/>
      <point x="747.02" y="85.14"/>
      <point x="742.79" y="92.93"/>
      <point x="742.79" y="103.04" type="curve" smooth="yes"/>
      <point x="742.79" y="112.19"/>
      <point x="744.48" y="121.5"/>
      <point x="747.87" y="130.99" type="curve" smooth="yes"/>
      <point x="751.8" y="140.82"/>
      <point x="781.11" y="173.68"/>
      <point x="835.79" y="229.58" type="curve" smooth="yes"/>
      <point x="890.84" y="285.86"/>
      <point x="927.26" y="327.2"/>
      <point x="945.05" y="353.58" type="curve" smooth="yes"/>
      <point x="963.63" y="380.21"/>
      <point x="979.21" y="407.31"/>
      <point x="991.8" y="434.89" type="curve" smooth="yes"/>
      <point x="1006.45" y="467.84"/>
      <point x="1017.29" y="496.13"/>
      <point x="1024.32" y="519.76" type="curve" smooth="yes"/>
      <point x="1033.94" y="549.9"/>
      <point x="1041.73" y="579.88"/>
      <point x="1047.7" y="609.71" type="curve" smooth="yes"/>
      <point x="1053.96" y="638.74"/>
      <point x="1059.04" y="676.35"/>
      <point x="1062.95" y="722.53" type="curve" smooth="yes"/>
      <point x="1066.4" y="765.93"/>
      <point x="1066.4" y="807.6"/>
      <point x="1062.95" y="847.54" type="curve" smooth="yes"/>
      <point x="1058.87" y="891.04"/>
      <point x="1054.47" y="923.56"/>
      <point x="1049.74" y="945.11" type="curve" smooth="yes"/>
      <point x="1044.89" y="969.99"/>
      <point x="1037.09" y="997.26"/>
      <point x="1026.36" y="1026.93" type="curve" smooth="yes"/>
      <point x="1016.03" y="1056.1"/>
      <point x="1006.71" y="1079.31"/>
      <point x="998.41" y="1096.55" type="curve" smooth="yes"/>
      <point x="989.86" y="1113.66"/>
      <point x="976.98" y="1134.49"/>
      <point x="959.79" y="1159.06" type="curve" smooth="yes"/>
      <point x="943.26" y="1183.55"/>
      <point x="924.46" y="1205.4"/>
      <point x="903.38" y="1224.62" type="curve" smooth="yes"/>
      <point x="883.27" y="1243.51"/>
      <point x="863.79" y="1258.93"/>
      <point x="844.94" y="1270.87" type="curve" smooth="yes"/>
      <point x="825.61" y="1283.12"/>
      <point x="805.62" y="1293.96"/>
      <point x="784.97" y="1303.39" type="curve" smooth="yes"/>
      <point x="761.57" y="1313.42"/>
      <point x="736.83" y="1321.55"/>
      <point x="710.77" y="1327.78" type="curve" smooth="yes"/>
      <point x="680.79" y="1334.8"/>
      <point x="646.58" y="1338.86"/>
    </contour>
  </outline>
</glyph>
<glyph name="alpha" format="2">
  <advance width="1013"/>
  <unicode hex="03B1"/>
  <note>
alpha
</note>
  <anchor x="507" y="1005" name="top"/>
  <outline>
    <contour>
      <point x="380.04" y="1019.42" type="curve" smooth="yes"/>
      <point x="380.03" y="1019.39" type="line" smooth="yes"/>
      <point x="349.9" y="1018.75"/>
      <point x="329.06" y="1017.05"/>
      <point x="317.52" y="1014.31" type="curve" smooth="yes"/>
      <point x="303.78" y="1011.04"/>
      <point x="287.69" y="1004.94"/>
      <point x="269.24" y="996.02" type="curve" smooth="yes"/>
      <point x="250.44" y="987.38"/>
      <point x="228.08" y="970.1"/>
      <point x="202.16" y="944.18" type="curve" smooth="yes"/>
      <point x="175.67" y="917.09"/>
      <point x="157.55" y="894.06"/>
      <point x="147.78" y="875.07" type="curve" smooth="yes"/>
      <point x="136.74" y="853.65"/>
      <point x="127.09" y="829.93"/>
      <point x="118.81" y="803.92" type="curve" smooth="yes"/>
      <point x="110.6" y="778.11"/>
      <point x="102.98" y="747.62"/>
      <point x="95.94" y="712.45" type="curve" smooth="yes"/>
      <point x="89.1" y="678.27"/>
      <point x="83.85" y="636.43"/>
      <point x="80.19" y="586.93" type="curve" smooth="yes"/>
      <point x="76.06" y="537.37"/>
      <point x="76.06" y="486.89"/>
      <point x="80.19" y="435.49" type="curve" smooth="yes"/>
      <point x="83.69" y="387.05"/>
      <point x="88.77" y="343.18"/>
      <point x="95.44" y="303.87" type="curve" smooth="yes"/>
      <point x="102.71" y="264.86"/>
      <point x="109.66" y="234.88"/>
      <point x="116.27" y="213.92" type="curve" smooth="yes"/>
      <point x="122.74" y="191.56"/>
      <point x="132.4" y="168.18"/>
      <point x="145.24" y="143.79" type="curve" smooth="yes"/>
      <point x="156.63" y="122.16"/>
      <point x="170.86" y="101.49"/>
      <point x="187.93" y="81.79" type="curve" smooth="yes"/>
      <point x="204.6" y="63.88"/>
      <point x="220.7" y="49.65"/>
      <point x="236.21" y="39.1" type="curve" smooth="yes"/>
      <point x="251.29" y="29.24"/>
      <point x="270.1" y="20.77"/>
      <point x="292.62" y="13.69" type="curve" smooth="yes"/>
      <point x="313.51" y="6.91"/>
      <point x="336.04" y="3.53"/>
      <point x="360.21" y="3.53" type="curve" smooth="yes"/>
      <point x="383.19" y="3.53"/>
      <point x="403.69" y="5.39"/>
      <point x="421.7" y="9.12" type="curve" smooth="yes"/>
      <point x="440.34" y="12.98"/>
      <point x="459.99" y="19.92"/>
      <point x="480.65" y="29.96" type="curve" smooth="yes"/>
      <point x="501.44" y="39.46"/>
      <point x="522.78" y="54.54"/>
      <point x="544.68" y="75.19" type="curve" smooth="yes"/>
      <point x="565.94" y="94.62"/>
      <point x="587.45" y="120.2"/>
      <point x="609.22" y="151.93" type="curve" smooth="yes"/>
      <point x="631.95" y="184.4"/>
      <point x="648.55" y="206.42"/>
      <point x="659.02" y="217.99" type="curve" smooth="yes"/>
      <point x="671.35" y="231.61"/>
      <point x="681.85" y="241.61"/>
      <point x="690.53" y="247.97" type="curve" smooth="yes"/>
      <point x="704.76" y="258.13" type="line"/>
      <point x="711.88" y="240.85" type="line" smooth="yes"/>
      <point x="716.94" y="229.47"/>
      <point x="722.87" y="208.63"/>
      <point x="729.67" y="178.34" type="curve" smooth="yes"/>
      <point x="736.04" y="149.95"/>
      <point x="742.48" y="116.58"/>
      <point x="748.98" y="78.23" type="curve" smooth="yes"/>
      <point x="754.35" y="42.42"/>
      <point x="759.6" y="21.59"/>
      <point x="764.73" y="15.72" type="curve" smooth="yes"/>
      <point x="769.47" y="10.98"/>
      <point x="775.06" y="8.61"/>
      <point x="781.5" y="8.61" type="curve" smooth="yes"/>
      <point x="788.2" y="8.61"/>
      <point x="793.96" y="11.32"/>
      <point x="798.78" y="16.74" type="curve" smooth="yes"/>
      <point x="804.2" y="21.56"/>
      <point x="806.91" y="26.13"/>
      <point x="806.91" y="30.46" type="curve" smooth="yes"/>
      <point x="806.91" y="34.37"/>
      <point x="803.52" y="57.58"/>
      <point x="796.75" y="100.08" type="curve" smooth="yes"/>
      <point x="788.81" y="145.72"/>
      <point x="781.87" y="180.44"/>
      <point x="775.91" y="204.26" type="curve" smooth="yes"/>
      <point x="768.57" y="233.64"/>
      <point x="760.44" y="257.52"/>
      <point x="751.52" y="275.91" type="curve" smooth="yes"/>
      <point x="744.45" y="291.06"/>
      <point x="740.57" y="301.31"/>
      <point x="739.9" y="306.66" type="curve" smooth="yes"/>
      <point x="739.22" y="312.01"/>
      <point x="740.55" y="321.24"/>
      <point x="743.9" y="334.36" type="curve" smooth="yes"/>
      <point x="748.81" y="353.45"/>
      <point x="751.01" y="388.01"/>
      <point x="750.51" y="438.03" type="curve" smooth="yes"/>
      <point x="750.51" y="482.09"/>
      <point x="749.15" y="541.38"/>
      <point x="746.44" y="615.9" type="curve" smooth="yes"/>
      <point x="742.88" y="717.54" type="line"/>
      <point x="761.17" y="749.05" type="line" smooth="yes"/>
      <point x="773.37" y="769.79"/>
      <point x="783.2" y="793.51"/>
      <point x="790.65" y="820.2" type="curve" smooth="yes"/>
      <point x="795.68" y="838.22"/>
      <point x="804.49" y="872.78"/>
      <point x="817.08" y="923.87" type="curve" smooth="yes"/>
      <point x="827.31" y="966.01"/>
      <point x="831.38" y="990.23"/>
      <point x="829.28" y="996.54" type="curve" smooth="yes"/>
      <point x="827.27" y="1001.89"/>
      <point x="823.04" y="1005.45"/>
      <point x="816.57" y="1007.21" type="curve" smooth="yes"/>
      <point x="810.13" y="1009.78"/>
      <point x="803.7" y="1009.78"/>
      <point x="797.26" y="1007.21" type="curve" smooth="yes"/>
      <point x="790.25" y="1004.87"/>
      <point x="784.32" y="995.9"/>
      <point x="779.47" y="980.28" type="curve" smooth="yes"/>
      <point x="774.48" y="965.85"/>
      <point x="767.53" y="939.26"/>
      <point x="758.63" y="900.49" type="curve" smooth="yes"/>
      <point x="750.2" y="864.35"/>
      <point x="742.41" y="835.56"/>
      <point x="735.25" y="814.1" type="curve" smooth="yes"/>
      <point x="728.18" y="792.9"/>
      <point x="722.42" y="779.52"/>
      <point x="717.97" y="773.95" type="curve" smooth="yes"/>
      <point x="714.21" y="769.08"/>
      <point x="711.05" y="767.09"/>
      <point x="708.51" y="767.98" type="curve" smooth="yes"/>
      <point x="705.96" y="768.87"/>
      <point x="699.63" y="774.25"/>
      <point x="689.52" y="784.12" type="curve" smooth="yes"/>
      <point x="674.9" y="798.08"/>
      <point x="655.59" y="823.66"/>
      <point x="631.59" y="860.86" type="curve" smooth="yes"/>
      <point x="605.97" y="899.61"/>
      <point x="583.44" y="928.4"/>
      <point x="564" y="947.25" type="curve" smooth="yes"/>
      <point x="544.58" y="966.67"/>
      <point x="526.12" y="981.07"/>
      <point x="508.61" y="990.45" type="curve" smooth="yes"/>
      <point x="493.02" y="999.11"/>
      <point x="474.72" y="1006.4"/>
      <point x="453.73" y="1012.3" type="curve" smooth="yes"/>
      <point x="431.83" y="1017.61"/>
      <point x="407.27" y="1019.98"/>
    </contour>
    <contour>
      <point x="380.57" y="968.61" type="curve" smooth="yes"/>
      <point x="380.55" y="968.6" type="line" smooth="yes"/>
      <point x="405.35" y="969.19"/>
      <point x="427.2" y="966.65"/>
      <point x="446.11" y="960.98" type="curve" smooth="yes"/>
      <point x="464.91" y="955.14"/>
      <point x="479.99" y="948.54"/>
      <point x="491.34" y="941.16" type="curve" smooth="yes"/>
      <point x="502.96" y="933.61"/>
      <point x="517.86" y="920.73"/>
      <point x="536.06" y="902.54" type="curve" smooth="yes"/>
      <point x="553.3" y="884.07"/>
      <point x="572.95" y="857.98"/>
      <point x="595.01" y="824.28" type="curve" smooth="yes"/>
      <point x="616.19" y="791.92"/>
      <point x="636.01" y="766.51"/>
      <point x="654.47" y="748.05" type="curve" smooth="yes"/>
      <point x="671.18" y="731.94"/>
      <point x="682.19" y="719.23"/>
      <point x="687.5" y="709.94" type="curve" smooth="yes"/>
      <point x="691.96" y="701.02"/>
      <point x="695.35" y="642.41"/>
      <point x="697.66" y="534.11" type="curve" smooth="yes"/>
      <point x="699.44" y="461.19"/>
      <point x="700.06" y="414.23"/>
      <point x="699.5" y="393.21" type="curve" smooth="yes"/>
      <point x="698.95" y="372.2"/>
      <point x="696.64" y="354.96"/>
      <point x="692.58" y="341.5" type="curve" smooth="yes"/>
      <point x="688.76" y="328.26"/>
      <point x="684.31" y="317.98"/>
      <point x="679.21" y="310.65" type="curve" smooth="yes"/>
      <point x="674.12" y="303.32"/>
      <point x="663.84" y="292.43"/>
      <point x="648.37" y="277.98" type="curve" smooth="yes"/>
      <point x="625.25" y="257.23"/>
      <point x="602.89" y="230.97"/>
      <point x="581.29" y="199.21" type="curve" smooth="yes"/>
      <point x="561.57" y="169.94"/>
      <point x="542.09" y="145.03"/>
      <point x="522.85" y="124.51" type="curve" smooth="yes"/>
      <point x="505.45" y="105.23"/>
      <point x="483.6" y="89.13"/>
      <point x="457.29" y="76.23" type="curve" smooth="yes"/>
      <point x="438.87" y="66.89"/>
      <point x="425.4" y="61.34"/>
      <point x="416.87" y="59.57" type="curve" smooth="yes"/>
      <point x="408.34" y="57.8"/>
      <point x="391.16" y="56.92"/>
      <point x="365.31" y="56.92" type="curve" smooth="yes"/>
      <point x="342.2" y="56.92"/>
      <point x="326.01" y="57.61"/>
      <point x="316.72" y="58.99" type="curve" smooth="yes"/>
      <point x="307.43" y="60.37"/>
      <point x="297.88" y="63.58"/>
      <point x="288.07" y="68.61" type="curve" smooth="yes"/>
      <point x="273.53" y="75.59"/>
      <point x="258.45" y="85.58"/>
      <point x="242.84" y="98.59" type="curve" smooth="yes"/>
      <point x="228.52" y="111.12"/>
      <point x="214.8" y="127.38"/>
      <point x="201.68" y="147.38" type="curve" smooth="yes"/>
      <point x="189.29" y="166.27"/>
      <point x="178.61" y="189.14"/>
      <point x="169.66" y="215.99" type="curve" smooth="yes"/>
      <point x="161.21" y="241.34"/>
      <point x="154.43" y="267.09"/>
      <point x="149.33" y="293.24" type="curve" smooth="yes"/>
      <point x="143.21" y="324.61"/>
      <point x="138.63" y="353.4"/>
      <point x="135.61" y="379.63" type="curve" smooth="yes"/>
      <point x="131.54" y="409.83"/>
      <point x="129.51" y="455.57"/>
      <point x="129.51" y="516.84" type="curve" smooth="yes"/>
      <point x="129.51" y="574.27"/>
      <point x="132.39" y="621.7"/>
      <point x="138.15" y="659.13" type="curve" smooth="yes"/>
      <point x="143.91" y="696.26"/>
      <point x="150.86" y="729.63"/>
      <point x="158.99" y="759.24" type="curve" smooth="yes"/>
      <point x="166.39" y="788.26"/>
      <point x="176.55" y="816.04"/>
      <point x="189.48" y="842.58" type="curve" smooth="yes"/>
      <point x="202.42" y="867.81"/>
      <point x="216.48" y="888.3"/>
      <point x="231.66" y="904.07" type="curve" smooth="yes"/>
      <point x="247.01" y="920.65"/>
      <point x="262.26" y="933.35"/>
      <point x="277.4" y="942.18" type="curve" smooth="yes"/>
      <point x="290.9" y="950.4"/>
      <point x="305.3" y="956.84"/>
      <point x="320.6" y="961.49" type="curve" smooth="yes"/>
      <point x="334.24" y="966.23"/>
      <point x="354.23" y="968.61"/>
    </contour>
  </outline>
</glyph>
<glyph name="delta" format="2">
  <advance width="934"/>
  <unicode hex="03B4"/>
  <note>
delta
</note>
  <outline>
    <contour>
      <point x="356.61" y="1413.73" type="curve" smooth="yes"/>
      <point x="356.62" y="1413.74" type="line" smooth="yes"/>
      <point x="303.51" y="1413.24"/>
      <point x="272.01" y="1410.87"/>
      <point x="262.1" y="1406.63" type="curve" smooth="yes"/>
      <point x="251.67" y="1401.72"/>
      <point x="242.86" y="1394.77"/>
      <point x="235.67" y="1385.79" type="curve" smooth="yes"/>
      <point x="228.22" y="1376.58"/>
      <point x="224.49" y="1362.69"/>
      <point x="224.49" y="1344.12" type="curve" smooth="yes"/>
      <point x="224.49" y="1325.25"/>
      <point x="228.22" y="1307.29"/>
      <point x="235.67" y="1290.25" type="curve" smooth="yes"/>
      <point x="243.43" y="1271.49"/>
      <point x="254.27" y="1251.68"/>
      <point x="268.19" y="1230.79" type="curve" smooth="yes"/>
      <point x="282.62" y="1208.2"/>
      <point x="306.84" y="1176.87"/>
      <point x="340.86" y="1136.77" type="curve" smooth="yes"/>
      <point x="374.46" y="1096.56"/>
      <point x="398.34" y="1062.85"/>
      <point x="412.51" y="1035.64" type="curve" smooth="yes"/>
      <point x="426.06" y="1009.15"/>
      <point x="432.84" y="993.91"/>
      <point x="432.84" y="989.9" type="curve" smooth="yes"/>
      <point x="432.84" y="986.26"/>
      <point x="423.01" y="978.3"/>
      <point x="403.36" y="966.02" type="curve" smooth="yes"/>
      <point x="380.7" y="951.4"/>
      <point x="354.27" y="935.31"/>
      <point x="324.08" y="917.74" type="curve" smooth="yes"/>
      <point x="291.35" y="898.34"/>
      <point x="262.89" y="877.51"/>
      <point x="238.7" y="855.23" type="curve" smooth="yes"/>
      <point x="216.12" y="834.43"/>
      <point x="196.81" y="813.76"/>
      <point x="180.77" y="793.23" type="curve" smooth="yes"/>
      <point x="166.05" y="773.8"/>
      <point x="150.8" y="749.57"/>
      <point x="135.03" y="720.56" type="curve" smooth="yes"/>
      <point x="119.39" y="690.59"/>
      <point x="107.87" y="664.5"/>
      <point x="100.47" y="642.3" type="curve" smooth="yes"/>
      <point x="92.29" y="619.52"/>
      <point x="85.01" y="593.43"/>
      <point x="78.62" y="564.04" type="curve" smooth="yes"/>
      <point x="72.86" y="536.13"/>
      <point x="69.98" y="492.43"/>
      <point x="69.98" y="432.93" type="curve" smooth="yes"/>
      <point x="69.98" y="394.56"/>
      <point x="70.79" y="366.92"/>
      <point x="72.4" y="350.04" type="curve" smooth="yes"/>
      <point x="74.01" y="333.15"/>
      <point x="77.78" y="311.83"/>
      <point x="83.7" y="286.06" type="curve" smooth="yes"/>
      <point x="92.55" y="247.55"/>
      <point x="104.91" y="212.15"/>
      <point x="120.8" y="179.85" type="curve" smooth="yes"/>
      <point x="136.12" y="147.93"/>
      <point x="155.94" y="119.81"/>
      <point x="180.26" y="95.49" type="curve" smooth="yes"/>
      <point x="204.25" y="71.5"/>
      <point x="228.65" y="53.03"/>
      <point x="253.44" y="40.1" type="curve" smooth="yes"/>
      <point x="276.59" y="27.95"/>
      <point x="301.83" y="18.29"/>
      <point x="329.16" y="11.13" type="curve" smooth="yes"/>
      <point x="354.7" y="4.35"/>
      <point x="383.16" y="0.97"/>
      <point x="414.54" y="0.97" type="curve" smooth="yes"/>
      <point x="445.37" y="0.97"/>
      <point x="470.95" y="3.51"/>
      <point x="491.28" y="8.59" type="curve" smooth="yes"/>
      <point x="514.39" y="14.89"/>
      <point x="535.23" y="22.69"/>
      <point x="553.79" y="31.97" type="curve" smooth="yes"/>
      <point x="574.67" y="42.13"/>
      <point x="597.2" y="58.39"/>
      <point x="621.38" y="80.76" type="curve" smooth="yes"/>
      <point x="645.4" y="104.13"/>
      <point x="663.7" y="125.82"/>
      <point x="676.26" y="145.81" type="curve" smooth="yes"/>
      <point x="688.29" y="164.4"/>
      <point x="699.47" y="185.41"/>
      <point x="709.8" y="208.83" type="curve" smooth="yes"/>
      <point x="718.21" y="229.25"/>
      <point x="726.17" y="254.48"/>
      <point x="733.69" y="284.55" type="curve" smooth="yes"/>
      <point x="738.51" y="303.59"/>
      <point x="741.58" y="321.55"/>
      <point x="742.9" y="338.44" type="curve" smooth="yes"/>
      <point x="744.22" y="355.33"/>
      <point x="744.87" y="385.13"/>
      <point x="744.87" y="427.86" type="curve" smooth="yes"/>
      <point x="744.87" y="470.3"/>
      <point x="744.18" y="500.73"/>
      <point x="742.79" y="519.15" type="curve" smooth="yes"/>
      <point x="741.41" y="537.57"/>
      <point x="738.2" y="557.96"/>
      <point x="733.18" y="580.31" type="curve" smooth="yes"/>
      <point x="726.34" y="613.36"/>
      <point x="717.53" y="646.4"/>
      <point x="706.75" y="679.41" type="curve" smooth="yes"/>
      <point x="698.02" y="706.69"/>
      <point x="686.16" y="735.66"/>
      <point x="671.18" y="766.31" type="curve" smooth="yes"/>
      <point x="657.72" y="793.85"/>
      <point x="639.25" y="825.53"/>
      <point x="615.79" y="861.34" type="curve" smooth="yes"/>
      <point x="591.98" y="897.69"/>
      <point x="571.31" y="924.62"/>
      <point x="553.79" y="942.14" type="curve" smooth="yes"/>
      <point x="534.82" y="961.11"/>
      <point x="519.4" y="974.83"/>
      <point x="507.54" y="983.3" type="curve" smooth="yes"/>
      <point x="494.86" y="992.81"/>
      <point x="480.97" y="1013.14"/>
      <point x="465.87" y="1044.28" type="curve" smooth="yes"/>
      <point x="449.91" y="1076.84"/>
      <point x="432.63" y="1104.45"/>
      <point x="414.03" y="1127.12" type="curve" smooth="yes"/>
      <point x="388.09" y="1158.73"/>
      <point x="365.9" y="1185.83"/>
      <point x="347.46" y="1208.43" type="curve" smooth="yes"/>
      <point x="322.21" y="1239.36"/>
      <point x="303.92" y="1266.46"/>
      <point x="292.58" y="1289.74" type="curve" smooth="yes"/>
      <point x="280.3" y="1313.81"/>
      <point x="274.88" y="1331.59"/>
      <point x="276.32" y="1343.1" type="curve" smooth="yes"/>
      <point x="277.84" y="1360.38" type="line"/>
      <point x="477.56" y="1360.38" type="line" smooth="yes"/>
      <point x="563.63" y="1360.38"/>
      <point x="618.68" y="1360.83"/>
      <point x="642.73" y="1361.72" type="curve" smooth="yes"/>
      <point x="666.78" y="1362.61"/>
      <point x="679.82" y="1364.71"/>
      <point x="681.85" y="1368" type="curve" smooth="yes"/>
      <point x="685.24" y="1373.42"/>
      <point x="686.93" y="1378.84"/>
      <point x="686.93" y="1384.26" type="curve" smooth="yes"/>
      <point x="686.93" y="1390.02"/>
      <point x="684.56" y="1395.27"/>
      <point x="679.82" y="1400.01" type="curve" smooth="yes"/>
      <point x="675.24" y="1404.59"/>
      <point x="633.23" y="1407.98"/>
      <point x="553.79" y="1410.17" type="curve" smooth="yes"/>
      <point x="477.91" y="1412.54"/>
      <point x="412.19" y="1413.73"/>
    </contour>
    <contour>
      <point x="467.4" y="946.2" type="curve" smooth="yes"/>
      <point x="468.25" y="946.2"/>
      <point x="476.04" y="941.29"/>
      <point x="490.78" y="931.46" type="curve" smooth="yes"/>
      <point x="504.62" y="921.83"/>
      <point x="517.83" y="909.47"/>
      <point x="530.42" y="894.36" type="curve" smooth="yes"/>
      <point x="544.93" y="876.03"/>
      <point x="560.18" y="854.35"/>
      <point x="576.16" y="829.31" type="curve" smooth="yes"/>
      <point x="595.06" y="800.65"/>
      <point x="611.33" y="772.7"/>
      <point x="624.95" y="745.46" type="curve" smooth="yes"/>
      <point x="637.47" y="720.43"/>
      <point x="649.32" y="690.78"/>
      <point x="660.52" y="656.53" type="curve" smooth="yes"/>
      <point x="670.99" y="623.88"/>
      <point x="679.29" y="592.55"/>
      <point x="685.42" y="562.52" type="curve" smooth="yes"/>
      <point x="691.61" y="529.68"/>
      <point x="694.49" y="483.09"/>
      <point x="694.06" y="422.77" type="curve" smooth="yes"/>
      <point x="694.06" y="383.46"/>
      <point x="693.36" y="355.58"/>
      <point x="691.96" y="339.12" type="curve" smooth="yes"/>
      <point x="690.56" y="322.66"/>
      <point x="687.53" y="305.65"/>
      <point x="682.88" y="288.1" type="curve" smooth="yes"/>
      <point x="675.74" y="261.91"/>
      <point x="664.9" y="233.96"/>
      <point x="650.36" y="204.25" type="curve" smooth="yes"/>
      <point x="636.79" y="176.23"/>
      <point x="617.82" y="149.8"/>
      <point x="593.44" y="124.97" type="curve" smooth="yes"/>
      <point x="568.78" y="100.86"/>
      <point x="546.93" y="84.43"/>
      <point x="527.88" y="75.68" type="curve" smooth="yes"/>
      <point x="510.09" y="67.34"/>
      <point x="493.15" y="61.08"/>
      <point x="477.06" y="56.88" type="curve" smooth="yes"/>
      <point x="461.48" y="53.49"/>
      <point x="440.81" y="51.8"/>
      <point x="415.06" y="51.8" type="curve" smooth="yes"/>
      <point x="387.96" y="51.8"/>
      <point x="364.24" y="54.34"/>
      <point x="343.91" y="59.42" type="curve" smooth="yes"/>
      <point x="320.39" y="65.83"/>
      <point x="299.39" y="73.8"/>
      <point x="280.89" y="83.3" type="curve" smooth="yes"/>
      <point x="258.06" y="94.42"/>
      <point x="236.89" y="110.01"/>
      <point x="217.37" y="130.05" type="curve" smooth="yes"/>
      <point x="197.2" y="149.73"/>
      <point x="180.43" y="172.94"/>
      <point x="167.06" y="199.67" type="curve" smooth="yes"/>
      <point x="154.2" y="226.03"/>
      <point x="144.55" y="252.11"/>
      <point x="138.09" y="277.93" type="curve" smooth="yes"/>
      <point x="131.25" y="304.67"/>
      <point x="126" y="333.3"/>
      <point x="122.34" y="363.81" type="curve" smooth="yes"/>
      <point x="118.52" y="395.62"/>
      <point x="117.51" y="429.67"/>
      <point x="119.29" y="465.96" type="curve" smooth="yes"/>
      <point x="121.83" y="504.77"/>
      <point x="125.39" y="535.6"/>
      <point x="129.96" y="558.45" type="curve" smooth="yes"/>
      <point x="135.69" y="583.93"/>
      <point x="142.64" y="608.32"/>
      <point x="150.8" y="631.63" type="curve" smooth="yes"/>
      <point x="159.51" y="656.53"/>
      <point x="169.85" y="679.74"/>
      <point x="181.8" y="701.25" type="curve" smooth="yes"/>
      <point x="193.16" y="722.77"/>
      <point x="206.71" y="743.6"/>
      <point x="222.46" y="763.76" type="curve" smooth="yes"/>
      <point x="238.45" y="784.41"/>
      <point x="255.9" y="803.05"/>
      <point x="274.8" y="819.66" type="curve" smooth="yes"/>
      <point x="295.6" y="838.57"/>
      <point x="324.06" y="858.56"/>
      <point x="360.18" y="879.63" type="curve" smooth="yes"/>
      <point x="397.21" y="902.23"/>
      <point x="423.98" y="918.83"/>
      <point x="440.47" y="929.43" type="curve" smooth="yes"/>
      <point x="457.24" y="940.61"/>
      <point x="466.22" y="946.2"/>
    </contour>
  </outline>
</glyph>
<glyph name="epsilon" format="2">
  <advance width="729"/>
  <unicode hex="03B5"/>
  <note>
epsilon
</note>
  <anchor x="365" y="1005" name="top"/>
  <outline>
    <contour>
      <point x="333.36" y="1018.87" type="curve" smooth="yes"/>
      <point x="333.37" y="1018.88" type="line" smooth="yes"/>
      <point x="308.41" y="1020.71"/>
      <point x="286.39" y="1020.03"/>
      <point x="267.3" y="1016.85" type="curve" smooth="yes"/>
      <point x="249.87" y="1013.95"/>
      <point x="229.88" y="1007.34"/>
      <point x="207.33" y="997.03" type="curve" smooth="yes"/>
      <point x="186.68" y="987.32"/>
      <point x="166.86" y="973.59"/>
      <point x="147.87" y="955.87" type="curve" smooth="yes"/>
      <point x="129.09" y="938.16"/>
      <point x="114.52" y="918.68"/>
      <point x="104.17" y="897.43" type="curve" smooth="yes"/>
      <point x="94.38" y="876.76"/>
      <point x="87.43" y="852.37"/>
      <point x="83.33" y="824.25" type="curve" smooth="yes"/>
      <point x="79.34" y="797.2"/>
      <point x="79.34" y="769.93"/>
      <point x="83.33" y="742.43" type="curve" smooth="yes"/>
      <point x="87.1" y="714.75"/>
      <point x="93.54" y="691.2"/>
      <point x="102.64" y="671.79" type="curve" smooth="yes"/>
      <point x="111.05" y="652.48"/>
      <point x="125.11" y="633.51"/>
      <point x="144.82" y="614.87" type="curve" smooth="yes"/>
      <point x="166.33" y="594.74"/>
      <point x="187.17" y="578.14"/>
      <point x="207.33" y="565.07" type="curve" smooth="yes"/>
      <point x="229.78" y="549.9"/>
      <point x="241.3" y="541.43"/>
      <point x="241.89" y="539.66" type="curve" smooth="yes"/>
      <point x="241.89" y="537.72"/>
      <point x="229.02" y="527.56"/>
      <point x="203.27" y="509.17" type="curve" smooth="yes"/>
      <point x="176.85" y="490.3"/>
      <point x="155.16" y="474.2"/>
      <point x="138.22" y="460.89" type="curve" smooth="yes"/>
      <point x="120.64" y="446.45"/>
      <point x="106.41" y="431.37"/>
      <point x="95.53" y="415.66" type="curve" smooth="yes"/>
      <point x="84.79" y="399.54"/>
      <point x="75.64" y="379.21"/>
      <point x="68.09" y="354.68" type="curve" smooth="yes"/>
      <point x="60.64" y="329.99"/>
      <point x="56.91" y="300.18"/>
      <point x="56.91" y="265.24" type="curve" smooth="yes"/>
      <point x="56.3" y="229.84"/>
      <point x="58.5" y="202.73"/>
      <point x="63.52" y="183.93" type="curve" smooth="yes"/>
      <point x="69.13" y="162.88"/>
      <point x="76.59" y="143.06"/>
      <point x="85.88" y="124.47" type="curve" smooth="yes"/>
      <point x="95.25" y="104.57"/>
      <point x="108.29" y="85.93"/>
      <point x="125.01" y="68.57" type="curve" smooth="yes"/>
      <point x="139.82" y="53.19"/>
      <point x="156.25" y="40.48"/>
      <point x="174.3" y="30.45" type="curve" smooth="yes"/>
      <point x="189.89" y="21.79"/>
      <point x="208.19" y="14.5"/>
      <point x="229.18" y="8.6" type="curve" smooth="yes"/>
      <point x="250.14" y="3.52"/>
      <point x="274.37" y="0.98"/>
      <point x="301.85" y="0.98" type="curve" smooth="yes"/>
      <point x="330.27" y="0.98"/>
      <point x="356.53" y="3.69"/>
      <point x="380.62" y="9.11" type="curve" smooth="yes"/>
      <point x="406.67" y="14.97"/>
      <point x="432.75" y="24.29"/>
      <point x="458.88" y="37.06" type="curve" smooth="yes"/>
      <point x="486.08" y="49.89"/>
      <point x="509.11" y="65.47"/>
      <point x="527.99" y="83.81" type="curve" smooth="yes"/>
      <point x="546.09" y="101.31"/>
      <point x="559.31" y="117.74"/>
      <point x="567.63" y="133.1" type="curve" smooth="yes"/>
      <point x="575.5" y="149.3"/>
      <point x="580.07" y="172.33"/>
      <point x="581.35" y="202.21" type="curve" smooth="yes"/>
      <point x="582.96" y="232.44"/>
      <point x="580.76" y="250.57"/>
      <point x="574.74" y="256.59" type="curve" smooth="yes"/>
      <point x="568.98" y="262.35"/>
      <point x="563.39" y="265.23"/>
      <point x="557.97" y="265.23" type="curve" smooth="yes"/>
      <point x="552.55" y="265.23"/>
      <point x="547.13" y="263.54"/>
      <point x="541.71" y="260.15" type="curve" smooth="yes"/>
      <point x="536.35" y="256.74"/>
      <point x="532.96" y="239.97"/>
      <point x="531.55" y="209.84" type="curve" smooth="yes"/>
      <point x="530.28" y="189.45"/>
      <point x="528.6" y="175.5"/>
      <point x="526.51" y="167.97" type="curve" smooth="yes"/>
      <point x="524.43" y="160.45"/>
      <point x="519.84" y="151.87"/>
      <point x="512.74" y="142.25" type="curve" smooth="yes"/>
      <point x="502.25" y="127.44"/>
      <point x="486.67" y="113.05"/>
      <point x="465.99" y="99.05" type="curve" smooth="yes"/>
      <point x="445.29" y="84.44"/>
      <point x="422.59" y="73.43"/>
      <point x="397.89" y="66.02" type="curve" smooth="yes"/>
      <point x="374.1" y="58.23"/>
      <point x="341.58" y="54.33"/>
      <point x="300.32" y="54.33" type="curve" smooth="yes"/>
      <point x="274.79" y="54.33"/>
      <point x="256.84" y="55.03"/>
      <point x="246.48" y="56.43" type="curve" smooth="yes"/>
      <point x="236.12" y="57.83"/>
      <point x="225.78" y="60.86"/>
      <point x="215.45" y="65.51" type="curve" smooth="yes"/>
      <point x="199.48" y="72.88"/>
      <point x="183.22" y="84.23"/>
      <point x="166.66" y="99.56" type="curve" smooth="yes"/>
      <point x="149.24" y="116.4"/>
      <point x="136.36" y="134.19"/>
      <point x="128.04" y="152.92" type="curve" smooth="yes"/>
      <point x="119.39" y="172.68"/>
      <point x="112.96" y="195.55"/>
      <point x="108.73" y="221.53" type="curve" smooth="yes"/>
      <point x="104.74" y="247.21"/>
      <point x="104.74" y="272.45"/>
      <point x="108.73" y="297.25" type="curve" smooth="yes"/>
      <point x="112.44" y="321.37"/>
      <point x="116.17" y="339.66"/>
      <point x="119.91" y="352.13" type="curve" smooth="yes"/>
      <point x="123.65" y="364.6"/>
      <point x="130.26" y="377.64"/>
      <point x="139.73" y="391.26" type="curve" smooth="yes"/>
      <point x="149.96" y="405.32"/>
      <point x="174.35" y="425.82"/>
      <point x="212.91" y="452.75" type="curve" smooth="yes"/>
      <point x="249.66" y="479"/>
      <point x="272.7" y="496.79"/>
      <point x="282.02" y="506.11" type="curve" smooth="yes"/>
      <point x="286.86" y="511.2"/>
      <point x="291.14" y="514.19"/>
      <point x="294.85" y="515.07" type="curve" smooth="yes"/>
      <point x="298.57" y="515.95"/>
      <point x="305.13" y="515.5"/>
      <point x="314.54" y="513.74" type="curve" smooth="yes"/>
      <point x="328.46" y="511.32"/>
      <point x="346.08" y="509.79"/>
      <point x="367.39" y="509.17" type="curve" smooth="yes"/>
      <point x="388.06" y="509.17"/>
      <point x="401.1" y="511.88"/>
      <point x="406.52" y="517.3" type="curve" smooth="yes"/>
      <point x="411.94" y="522.12"/>
      <point x="414.65" y="527.54"/>
      <point x="414.65" y="533.56" type="curve" smooth="yes"/>
      <point x="414.65" y="539.88"/>
      <point x="412.96" y="545.3"/>
      <point x="409.57" y="549.82" type="curve" smooth="yes"/>
      <point x="406.76" y="554.5"/>
      <point x="389.31" y="558.06"/>
      <point x="357.23" y="560.49" type="curve" smooth="yes"/>
      <point x="325.96" y="562.82"/>
      <point x="302.58" y="567.74"/>
      <point x="287.1" y="575.23" type="curve" smooth="yes"/>
      <point x="271.49" y="583.69"/>
      <point x="251.16" y="596.56"/>
      <point x="226.12" y="613.85" type="curve" smooth="yes"/>
      <point x="199.6" y="632.8"/>
      <point x="180.62" y="648.55"/>
      <point x="169.2" y="661.11" type="curve" smooth="yes"/>
      <point x="157.55" y="673.98"/>
      <point x="148.58" y="689.57"/>
      <point x="142.27" y="707.86" type="curve" smooth="yes"/>
      <point x="135.83" y="725.79"/>
      <point x="132.61" y="751.88"/>
      <point x="132.61" y="786.12" type="curve" smooth="yes"/>
      <point x="132.61" y="808.41"/>
      <point x="133.45" y="824.16"/>
      <point x="135.14" y="833.36" type="curve" smooth="yes"/>
      <point x="136.83" y="842.56"/>
      <point x="140.9" y="854.26"/>
      <point x="147.35" y="868.45" type="curve" smooth="yes"/>
      <point x="156.34" y="888.55"/>
      <point x="168.71" y="906.17"/>
      <point x="184.45" y="921.3" type="curve" smooth="yes"/>
      <point x="201.21" y="936.04"/>
      <point x="216.28" y="946.21"/>
      <point x="229.68" y="951.79" type="curve" smooth="yes"/>
      <point x="246.35" y="959.13"/>
      <point x="264.31" y="964.21"/>
      <point x="283.55" y="967.04" type="curve" smooth="yes"/>
      <point x="304.89" y="970.6"/>
      <point x="327.25" y="970.43"/>
      <point x="350.63" y="966.53" type="curve" smooth="yes"/>
      <point x="374.01" y="963.48"/>
      <point x="399.59" y="955.01"/>
      <point x="427.37" y="941.12" type="curve" smooth="yes"/>
      <point x="455.32" y="927.14"/>
      <point x="477" y="912.75"/>
      <point x="492.42" y="897.92" type="curve" smooth="yes"/>
      <point x="508.27" y="882.67"/>
      <point x="519.62" y="875.05"/>
      <point x="526.47" y="875.05" type="curve" smooth="yes"/>
      <point x="533.17" y="875.05"/>
      <point x="538.93" y="877.76"/>
      <point x="543.75" y="883.18" type="curve" smooth="yes"/>
      <point x="549.17" y="888"/>
      <point x="551.88" y="894.1"/>
      <point x="551.88" y="901.47" type="curve" smooth="yes"/>
      <point x="551.88" y="908.53"/>
      <point x="544.77" y="918.86"/>
      <point x="530.54" y="932.47" type="curve" smooth="yes"/>
      <point x="517.69" y="944.76"/>
      <point x="500.41" y="958.15"/>
      <point x="478.71" y="972.62" type="curve" smooth="yes"/>
      <point x="458.34" y="985.58"/>
      <point x="435.47" y="996.08"/>
      <point x="410.1" y="1004.13" type="curve" smooth="yes"/>
      <point x="384.37" y="1012.09"/>
      <point x="358.79" y="1017.01"/>
    </contour>
  </outline>
</glyph>
<glyph name="zeta" format="2">
  <advance width="737"/>
  <unicode hex="03B6"/>
  <note>
zeta
</note>
  <outline>
    <contour>
      <point x="412.78" y="1406.93" type="curve" smooth="yes"/>
      <point x="412.79" y="1406.92" type="line" smooth="yes"/>
      <point x="335.52" y="1406.21"/>
      <point x="274.37" y="1404.86"/>
      <point x="229.33" y="1402.85" type="curve" smooth="yes"/>
      <point x="174.02" y="1401.15"/>
      <point x="144.88" y="1397.76"/>
      <point x="141.92" y="1392.69" type="curve" smooth="yes"/>
      <point x="138.53" y="1387.27"/>
      <point x="136.84" y="1381.85"/>
      <point x="136.84" y="1376.43" type="curve" smooth="yes"/>
      <point x="136.84" y="1370.67"/>
      <point x="139.55" y="1365.08"/>
      <point x="144.97" y="1359.66" type="curve" smooth="yes"/>
      <point x="148.75" y="1355.88"/>
      <point x="160.87" y="1353.63"/>
      <point x="181.3" y="1352.93" type="curve" smooth="yes"/>
      <point x="201.74" y="1352.23"/>
      <point x="251.97" y="1352.27"/>
      <point x="331.98" y="1353.06" type="curve" smooth="yes"/>
      <point x="510.35" y="1354.59" type="line"/>
      <point x="509.84" y="1335.28" type="line" smooth="yes"/>
      <point x="509.23" y="1322.55"/>
      <point x="503.64" y="1305.61"/>
      <point x="493.07" y="1284.46" type="curve" smooth="yes"/>
      <point x="481.27" y="1262.17"/>
      <point x="458.06" y="1226.26"/>
      <point x="423.45" y="1176.72" type="curve" smooth="yes"/>
      <point x="390.35" y="1129.93"/>
      <point x="359.35" y="1083.34"/>
      <point x="330.45" y="1036.97" type="curve" smooth="yes"/>
      <point x="301.4" y="990.35"/>
      <point x="272.94" y="941.74"/>
      <point x="245.07" y="891.12" type="curve" smooth="yes"/>
      <point x="217.01" y="841.18"/>
      <point x="191.94" y="792.05"/>
      <point x="169.86" y="743.75" type="curve" smooth="yes"/>
      <point x="150.08" y="700.49"/>
      <point x="133.14" y="656.78"/>
      <point x="119.04" y="612.64" type="curve" smooth="yes"/>
      <point x="103.99" y="568.12"/>
      <point x="93.15" y="527.46"/>
      <point x="86.52" y="490.68" type="curve" smooth="yes"/>
      <point x="79.23" y="454.22"/>
      <point x="74.66" y="415.26"/>
      <point x="72.8" y="373.8" type="curve" smooth="yes"/>
      <point x="70.93" y="333.52"/>
      <point x="72.62" y="298.8"/>
      <point x="77.88" y="269.62" type="curve" smooth="yes"/>
      <point x="83.2" y="240.34"/>
      <point x="92.52" y="212.39"/>
      <point x="105.83" y="185.77" type="curve" smooth="yes"/>
      <point x="119.6" y="158.23"/>
      <point x="137.89" y="133.5"/>
      <point x="160.71" y="111.57" type="curve" smooth="yes"/>
      <point x="183.53" y="89.37"/>
      <point x="206.06" y="72.09"/>
      <point x="228.3" y="59.73" type="curve" smooth="yes"/>
      <point x="249.98" y="47.68"/>
      <point x="292.16" y="31.42"/>
      <point x="354.84" y="10.94" type="curve" smooth="yes"/>
      <point x="418.01" y="-10.33"/>
      <point x="456.63" y="-25.06"/>
      <point x="470.71" y="-33.27" type="curve" smooth="yes"/>
      <point x="484.68" y="-41.42"/>
      <point x="498.23" y="-51.08"/>
      <point x="511.37" y="-62.24" type="curve" smooth="yes"/>
      <point x="524.53" y="-74.08"/>
      <point x="534.52" y="-87.97"/>
      <point x="541.35" y="-103.91" type="curve" smooth="yes"/>
      <point x="549.48" y="-121.13"/>
      <point x="553.55" y="-140.61"/>
      <point x="553.55" y="-162.35" type="curve" smooth="yes"/>
      <point x="553.55" y="-185.12"/>
      <point x="549.32" y="-213.75"/>
      <point x="540.85" y="-248.23" type="curve" smooth="yes"/>
      <point x="532.22" y="-283.37"/>
      <point x="528.83" y="-304.04"/>
      <point x="530.69" y="-310.23" type="curve" smooth="yes"/>
      <point x="532.56" y="-316.47"/>
      <point x="536.97" y="-320.53"/>
      <point x="543.9" y="-322.43" type="curve" smooth="yes"/>
      <point x="550.19" y="-324.95"/>
      <point x="556.8" y="-324.95"/>
      <point x="563.72" y="-322.43" type="curve" smooth="yes"/>
      <point x="570.11" y="-320.61"/>
      <point x="576.72" y="-308.24"/>
      <point x="583.54" y="-285.33" type="curve" smooth="yes"/>
      <point x="589.75" y="-264.44"/>
      <point x="595.17" y="-242.42"/>
      <point x="599.8" y="-219.27" type="curve" smooth="yes"/>
      <point x="603.59" y="-197.19"/>
      <point x="604.6" y="-173.3"/>
      <point x="602.85" y="-147.62" type="curve" smooth="yes"/>
      <point x="601.08" y="-121.48"/>
      <point x="595.15" y="-98.1"/>
      <point x="585.06" y="-77.49" type="curve" smooth="yes"/>
      <point x="574.14" y="-56.79"/>
      <point x="559.91" y="-38.5"/>
      <point x="542.37" y="-22.61" type="curve" smooth="yes"/>
      <point x="524.1" y="-6.23"/>
      <point x="503.26" y="7.66"/>
      <point x="479.86" y="19.06" type="curve" smooth="yes"/>
      <point x="456.79" y="29.99"/>
      <point x="420.37" y="43.54"/>
      <point x="370.6" y="59.72" type="curve" smooth="yes"/>
      <point x="321.81" y="74.97"/>
      <point x="285.56" y="88.52"/>
      <point x="261.85" y="100.38" type="curve" smooth="yes"/>
      <point x="238.61" y="112"/>
      <point x="217.6" y="126.57"/>
      <point x="198.83" y="144.08" type="curve" smooth="yes"/>
      <point x="179.65" y="163.26"/>
      <point x="166.27" y="179.35"/>
      <point x="158.68" y="192.36" type="curve" smooth="yes"/>
      <point x="149.89" y="206.81"/>
      <point x="142.43" y="224.42"/>
      <point x="136.32" y="245.21" type="curve" smooth="yes"/>
      <point x="130.12" y="264.38"/>
      <point x="125.71" y="289.28"/>
      <point x="123.11" y="319.91" type="curve" smooth="yes"/>
      <point x="121.35" y="348.15"/>
      <point x="122.36" y="380"/>
      <point x="126.16" y="415.45" type="curve" smooth="yes"/>
      <point x="130.54" y="450.47"/>
      <point x="136.64" y="484.51"/>
      <point x="144.45" y="517.6" type="curve" smooth="yes"/>
      <point x="152.33" y="550.35"/>
      <point x="160.97" y="580.5"/>
      <point x="170.37" y="608.06" type="curve" smooth="yes"/>
      <point x="179.58" y="634.46"/>
      <point x="193.47" y="669.01"/>
      <point x="212.04" y="711.73" type="curve" smooth="yes"/>
      <point x="230.19" y="753.47"/>
      <point x="250.52" y="794.97"/>
      <point x="273.02" y="836.24" type="curve" smooth="yes"/>
      <point x="293.64" y="875.13"/>
      <point x="320.24" y="921.72"/>
      <point x="352.81" y="975.99" type="curve" smooth="yes"/>
      <point x="385.08" y="1028.74"/>
      <point x="420.49" y="1082.95"/>
      <point x="459.02" y="1138.61" type="curve" smooth="yes"/>
      <point x="498.28" y="1194.44"/>
      <point x="524.71" y="1235.94"/>
      <point x="538.3" y="1263.12" type="curve" smooth="yes"/>
      <point x="552.2" y="1290.93"/>
      <point x="560" y="1312.95"/>
      <point x="561.68" y="1329.18" type="curve" smooth="yes"/>
      <point x="563.68" y="1346.19"/>
      <point x="562.16" y="1360.76"/>
      <point x="557.11" y="1372.88" type="curve" smooth="yes"/>
      <point x="552.53" y="1384.59"/>
      <point x="544.06" y="1393.4"/>
      <point x="531.7" y="1399.31" type="curve" smooth="yes"/>
      <point x="523.95" y="1402.93"/>
      <point x="512.7" y="1405.23"/>
      <point x="497.96" y="1406.21" type="curve" smooth="yes"/>
      <point x="483.22" y="1407.19"/>
      <point x="454.82" y="1407.43"/>
    </contour>
  </outline>
</glyph>
<glyph name="eta" format="2">
  <advance width="934"/>
  <unicode hex="03B7"/>
  <note>
eta
</note>
  <anchor x="467" y="1005" name="top"/>
  <outline>
    <contour>
      <point x="470.41" y="1015.08" type="curve" smooth="yes"/>
      <point x="470.37" y="1015.09" type="line" smooth="yes"/>
      <point x="446.16" y="1015.09"/>
      <point x="421.27" y="1011.9"/>
      <point x="395.71" y="1005.51" type="curve" smooth="yes"/>
      <point x="370.67" y="998.63"/>
      <point x="348.14" y="989.88"/>
      <point x="328.12" y="979.28" type="curve" smooth="yes"/>
      <point x="308.19" y="968.59"/>
      <point x="287.67" y="951.43"/>
      <point x="266.58" y="927.83" type="curve" smooth="yes"/>
      <point x="248.08" y="905.97"/>
      <point x="226.23" y="882.43"/>
      <point x="201" y="857.21" type="curve" smooth="yes"/>
      <point x="192.73" y="849.08"/>
      <point x="186.48" y="843.05"/>
      <point x="182.24" y="839.12" type="curve" smooth="yes"/>
      <point x="178" y="835.19"/>
      <point x="174.36" y="832.22"/>
      <point x="171.3" y="830.2" type="curve" smooth="yes"/>
      <point x="168.25" y="828.18"/>
      <point x="166.16" y="827.41"/>
      <point x="165.04" y="827.88" type="curve" smooth="yes"/>
      <point x="163.92" y="828.35"/>
      <point x="162.96" y="829.72"/>
      <point x="162.15" y="831.99" type="curve" smooth="yes"/>
      <point x="159.34" y="839.01"/>
      <point x="154.3" y="867.09"/>
      <point x="147.02" y="916.23" type="curve" smooth="yes"/>
      <point x="139.71" y="966.24"/>
      <point x="133.66" y="993.65"/>
      <point x="128.86" y="998.45" type="curve" smooth="yes"/>
      <point x="124.15" y="1003.16"/>
      <point x="118.6" y="1005.51"/>
      <point x="112.21" y="1005.51" type="curve" smooth="yes"/>
      <point x="105.56" y="1005.51"/>
      <point x="99.84" y="1002.82"/>
      <point x="95.06" y="997.44" type="curve" smooth="yes"/>
      <point x="89.68" y="992.66"/>
      <point x="86.99" y="987.78"/>
      <point x="86.99" y="982.81" type="curve" smooth="yes"/>
      <point x="86.99" y="978.2"/>
      <point x="92.2" y="943.4"/>
      <point x="102.63" y="878.39" type="curve" smooth="yes"/>
      <point x="112.41" y="813.61"/>
      <point x="117.62" y="778.64"/>
      <point x="118.27" y="773.47" type="curve" smooth="yes"/>
      <point x="118.27" y="768.43"/>
      <point x="116.76" y="758.34"/>
      <point x="113.73" y="743.2" type="curve" smooth="yes"/>
      <point x="110.85" y="728.82"/>
      <point x="110.01" y="608.09"/>
      <point x="111.21" y="381.02" type="curve" smooth="yes"/>
      <point x="112.22" y="237.29"/>
      <point x="113.3" y="144.35"/>
      <point x="114.48" y="102.23" type="curve" smooth="yes"/>
      <point x="115.65" y="60.1"/>
      <point x="117.76" y="37.52"/>
      <point x="120.8" y="34.48" type="curve" smooth="yes"/>
      <point x="125.85" y="29.44"/>
      <point x="131.39" y="26.91"/>
      <point x="137.45" y="26.91" type="curve" smooth="yes"/>
      <point x="143.5" y="26.91"/>
      <point x="149.39" y="29.77"/>
      <point x="155.11" y="35.49" type="curve" smooth="yes"/>
      <point x="159.13" y="39.26"/>
      <point x="161.51" y="59.5"/>
      <point x="162.24" y="96.21" type="curve" smooth="yes"/>
      <point x="162.97" y="132.92"/>
      <point x="162.95" y="230.72"/>
      <point x="162.18" y="389.6" type="curve" smooth="yes"/>
      <point x="161.44" y="552.81"/>
      <point x="161.44" y="652.18"/>
      <point x="162.18" y="687.72" type="curve" smooth="yes"/>
      <point x="162.92" y="723.26"/>
      <point x="165.45" y="745.45"/>
      <point x="169.75" y="754.3" type="curve" smooth="yes"/>
      <point x="175.77" y="766.93"/>
      <point x="186.7" y="779.04"/>
      <point x="202.54" y="790.62" type="curve" smooth="yes"/>
      <point x="217.34" y="801.44"/>
      <point x="233.48" y="816.23"/>
      <point x="250.97" y="835.01" type="curve" smooth="yes"/>
      <point x="266.83" y="852"/>
      <point x="284.14" y="871.5"/>
      <point x="302.93" y="893.52" type="curve" smooth="yes"/>
      <point x="320.08" y="913.83"/>
      <point x="339.42" y="929.13"/>
      <point x="360.94" y="939.42" type="curve" smooth="yes"/>
      <point x="381.61" y="949.15"/>
      <point x="400.95" y="955.87"/>
      <point x="418.95" y="959.6" type="curve" smooth="yes"/>
      <point x="436.83" y="963.3"/>
      <point x="455.49" y="965.15"/>
      <point x="474.94" y="965.15" type="curve" smooth="yes"/>
      <point x="494.9" y="965.15"/>
      <point x="515.58" y="961.79"/>
      <point x="536.99" y="955.06" type="curve" smooth="yes"/>
      <point x="558.51" y="948.55"/>
      <point x="577.01" y="938.63"/>
      <point x="592.48" y="925.3" type="curve" smooth="yes"/>
      <point x="607.78" y="911.18"/>
      <point x="620.56" y="893.86"/>
      <point x="630.82" y="873.34" type="curve" smooth="yes"/>
      <point x="641.13" y="852.11"/>
      <point x="649.04" y="828.06"/>
      <point x="654.53" y="801.21" type="curve" smooth="yes"/>
      <point x="658.53" y="782.94"/>
      <point x="660.92" y="741.94"/>
      <point x="661.7" y="678.21" type="curve" smooth="yes"/>
      <point x="662.47" y="614.48"/>
      <point x="662.61" y="452.7"/>
      <point x="662.1" y="192.86" type="curve" smooth="yes"/>
      <point x="661.85" y="-68.7"/>
      <point x="662.1" y="-229.24"/>
      <point x="662.87" y="-288.77" type="curve" smooth="yes"/>
      <point x="663.64" y="-348.3"/>
      <point x="665.9" y="-379.95"/>
      <point x="669.66" y="-383.71" type="curve" smooth="yes"/>
      <point x="675.04" y="-389.09"/>
      <point x="680.93" y="-391.78"/>
      <point x="687.32" y="-391.78" type="curve" smooth="yes"/>
      <point x="693.08" y="-391.78"/>
      <point x="698.8" y="-389.26"/>
      <point x="704.47" y="-384.21" type="curve" smooth="yes"/>
      <point x="707.73" y="-380.95"/>
      <point x="709.86" y="-348.02"/>
      <point x="710.88" y="-285.41" type="curve" smooth="yes"/>
      <point x="711.9" y="-222.8"/>
      <point x="712.79" y="-72.12"/>
      <point x="713.55" y="166.63" type="curve" smooth="yes"/>
      <point x="714.77" y="527.68"/>
      <point x="714.09" y="723.91"/>
      <point x="711.53" y="755.3" type="curve" smooth="yes"/>
      <point x="709.33" y="782.2"/>
      <point x="705.47" y="807.43"/>
      <point x="699.93" y="830.97" type="curve" smooth="yes"/>
      <point x="694.36" y="852.01"/>
      <point x="686.79" y="872.69"/>
      <point x="677.23" y="893.01" type="curve" smooth="yes"/>
      <point x="667.23" y="914.26"/>
      <point x="654.79" y="932.93"/>
      <point x="639.9" y="949" type="curve" smooth="yes"/>
      <point x="625.3" y="964.77"/>
      <point x="609.49" y="977.38"/>
      <point x="592.48" y="986.83" type="curve" smooth="yes"/>
      <point x="575.61" y="995.58"/>
      <point x="557.61" y="1002.64"/>
      <point x="538.51" y="1008.02" type="curve" smooth="yes"/>
      <point x="516.77" y="1013.29"/>
      <point x="494.07" y="1015.65"/>
    </contour>
  </outline>
</glyph>
<glyph name="theta" format="2">
  <advance width="934"/>
  <unicode hex="03B8"/>
  <note>
theta
</note>
  <outline>
    <contour>
      <point x="410.21" y="1408.6" type="curve" smooth="yes"/>
      <point x="410.21" y="1408.58" type="line" smooth="yes"/>
      <point x="397" y="1408.58"/>
      <point x="378.87" y="1406.21"/>
      <point x="355.83" y="1401.46" type="curve" smooth="yes"/>
      <point x="335.19" y="1397.21"/>
      <point x="315.88" y="1390.44"/>
      <point x="297.9" y="1381.13" type="curve" smooth="yes"/>
      <point x="280.81" y="1372.29"/>
      <point x="262.69" y="1359.25"/>
      <point x="243.52" y="1342" type="curve" smooth="yes"/>
      <point x="227.01" y="1326.06"/>
      <point x="211.76" y="1308.1"/>
      <point x="197.78" y="1288.13" type="curve" smooth="yes"/>
      <point x="186.52" y="1271.25"/>
      <point x="174.67" y="1248.38"/>
      <point x="162.21" y="1219.52" type="curve" smooth="yes"/>
      <point x="151.4" y="1193.7"/>
      <point x="141.57" y="1164.05"/>
      <point x="132.74" y="1130.59" type="curve" smooth="yes"/>
      <point x="124.13" y="1094.81"/>
      <point x="116.67" y="1058.89"/>
      <point x="110.38" y="1022.85" type="curve" smooth="yes"/>
      <point x="106.1" y="998.33"/>
      <point x="100.51" y="961.06"/>
      <point x="93.61" y="911.05" type="curve" smooth="yes"/>
      <point x="89.21" y="873.61"/>
      <point x="87" y="802.47"/>
      <point x="87" y="697.61" type="curve" smooth="yes"/>
      <point x="87.43" y="591.16"/>
      <point x="90.48" y="516.79"/>
      <point x="96.15" y="474.52" type="curve" smooth="yes"/>
      <point x="102.46" y="431.61"/>
      <point x="108.9" y="394.34"/>
      <point x="115.46" y="362.72" type="curve" smooth="yes"/>
      <point x="120.42" y="336.45"/>
      <point x="128.04" y="304.94"/>
      <point x="138.33" y="268.2" type="curve" smooth="yes"/>
      <point x="146.76" y="238.71"/>
      <point x="156.75" y="211.43"/>
      <point x="168.31" y="186.38" type="curve" smooth="yes"/>
      <point x="179.23" y="162.71"/>
      <point x="191.6" y="140.52"/>
      <point x="205.41" y="119.81" type="curve" smooth="yes"/>
      <point x="218.72" y="99.84"/>
      <point x="234.31" y="81.89"/>
      <point x="252.16" y="65.94" type="curve" smooth="yes"/>
      <point x="270.31" y="49.66"/>
      <point x="289.45" y="36.79"/>
      <point x="309.59" y="27.32" type="curve" smooth="yes"/>
      <point x="328.56" y="17.83"/>
      <point x="350.58" y="10.72"/>
      <point x="375.65" y="5.98" type="curve" smooth="yes"/>
      <point x="398.69" y="2.37"/>
      <point x="423.08" y="2.37"/>
      <point x="448.83" y="5.98" type="curve" smooth="yes"/>
      <point x="476.66" y="10.41"/>
      <point x="500.71" y="17.69"/>
      <point x="520.99" y="27.83" type="curve" smooth="yes"/>
      <point x="543.97" y="38.82"/>
      <point x="567.01" y="56.1"/>
      <point x="590.1" y="79.67" type="curve" smooth="yes"/>
      <point x="614.17" y="104.25"/>
      <point x="632.97" y="129.83"/>
      <point x="646.51" y="156.41" type="curve" smooth="yes"/>
      <point x="660.53" y="183.24"/>
      <point x="671.88" y="209.66"/>
      <point x="680.56" y="235.69" type="curve" smooth="yes"/>
      <point x="689.06" y="261.21"/>
      <point x="697.7" y="293.39"/>
      <point x="706.48" y="332.25" type="curve" smooth="yes"/>
      <point x="715.18" y="371.4"/>
      <point x="721.96" y="407.65"/>
      <point x="726.81" y="441" type="curve" smooth="yes"/>
      <point x="732.73" y="481.68"/>
      <point x="736.96" y="518.1"/>
      <point x="739.51" y="550.26" type="curve" smooth="yes"/>
      <point x="743.24" y="589.39"/>
      <point x="745.1" y="644.44"/>
      <point x="745.1" y="715.42" type="curve" smooth="yes"/>
      <point x="745.1" y="782.84"/>
      <point x="743.41" y="837.89"/>
      <point x="740.02" y="880.58" type="curve" smooth="yes"/>
      <point x="736.44" y="918.12"/>
      <point x="730.52" y="963.01"/>
      <point x="722.23" y="1015.25" type="curve" smooth="yes"/>
      <point x="713.16" y="1069.02"/>
      <point x="704.69" y="1110.52"/>
      <point x="696.82" y="1139.76" type="curve" smooth="yes"/>
      <point x="688.08" y="1172.21"/>
      <point x="675.21" y="1205.75"/>
      <point x="658.2" y="1240.38" type="curve" smooth="yes"/>
      <point x="648.1" y="1261.58"/>
      <point x="638.95" y="1278.08"/>
      <point x="630.76" y="1289.88" type="curve" smooth="yes"/>
      <point x="622.56" y="1301.67"/>
      <point x="611.04" y="1314.99"/>
      <point x="596.21" y="1329.83" type="curve" smooth="yes"/>
      <point x="572.59" y="1353.92"/>
      <point x="549.39" y="1371.54"/>
      <point x="526.59" y="1382.68" type="curve" smooth="yes"/>
      <point x="505.47" y="1392.65"/>
      <point x="484.46" y="1399.6"/>
      <point x="463.57" y="1403.52" type="curve" smooth="yes"/>
      <point x="441.88" y="1407.46"/>
      <point x="424.1" y="1409.16"/>
    </contour>
    <contour>
      <point x="412.24" y="1357.8" type="curve" smooth="yes"/>
      <point x="412.24" y="1357.78" type="line" smooth="yes"/>
      <point x="429.11" y="1357.78"/>
      <point x="444.87" y="1356.26"/>
      <point x="459.5" y="1353.21" type="curve" smooth="yes"/>
      <point x="474.78" y="1349.39"/>
      <point x="490.03" y="1343.97"/>
      <point x="505.24" y="1336.95" type="curve" smooth="yes"/>
      <point x="520.97" y="1329.69"/>
      <point x="539.09" y="1315.8"/>
      <point x="559.62" y="1295.28" type="curve" smooth="yes"/>
      <point x="580.91" y="1273.36"/>
      <point x="597.18" y="1251.17"/>
      <point x="608.41" y="1228.71" type="curve" smooth="yes"/>
      <point x="620.23" y="1206.75"/>
      <point x="630.73" y="1181.35"/>
      <point x="639.92" y="1152.48" type="curve" smooth="yes"/>
      <point x="647.4" y="1128.96"/>
      <point x="655.19" y="1097.62"/>
      <point x="663.3" y="1058.46" type="curve" smooth="yes"/>
      <point x="671.49" y="1015.26"/>
      <point x="677.59" y="977.15"/>
      <point x="681.59" y="944.12" type="curve" smooth="yes"/>
      <point x="687.22" y="902.86"/>
      <point x="690.94" y="858.48"/>
      <point x="692.77" y="810.97" type="curve" smooth="yes"/>
      <point x="695.82" y="738.3" type="line"/>
      <point x="415.81" y="738.3" type="line"/>
      <point x="135.29" y="738.3" type="line"/>
      <point x="135.29" y="770.32" type="line" smooth="yes"/>
      <point x="135.29" y="787.94"/>
      <point x="136.98" y="817.07"/>
      <point x="140.37" y="857.73" type="curve" smooth="yes"/>
      <point x="145.03" y="905.06"/>
      <point x="150.28" y="947.24"/>
      <point x="156.12" y="984.27" type="curve" smooth="yes"/>
      <point x="163.11" y="1033.22"/>
      <point x="171.58" y="1076.41"/>
      <point x="181.53" y="1113.86" type="curve" smooth="yes"/>
      <point x="190.51" y="1150.89"/>
      <point x="202.7" y="1185.79"/>
      <point x="218.12" y="1218.55" type="curve" smooth="yes"/>
      <point x="232.95" y="1249.45"/>
      <point x="248.54" y="1273.68"/>
      <point x="264.87" y="1291.22" type="curve" smooth="yes"/>
      <point x="279.72" y="1307.79"/>
      <point x="295.31" y="1321.17"/>
      <point x="311.62" y="1331.37" type="curve" smooth="yes"/>
      <point x="325.9" y="1339.94"/>
      <point x="342.33" y="1346.54"/>
      <point x="360.91" y="1351.19" type="curve" smooth="yes"/>
      <point x="378.53" y="1355.59"/>
      <point x="395.63" y="1357.8"/>
    </contour>
    <contour>
      <point x="135.28" y="687.5" type="line"/>
      <point x="415.8" y="687.5" type="line"/>
      <point x="695.81" y="687.5" type="line"/>
      <point x="692.76" y="617.88" type="line" smooth="yes"/>
      <point x="689.95" y="564.54"/>
      <point x="686.23" y="520.83"/>
      <point x="681.58" y="486.77" type="curve" smooth="yes"/>
      <point x="677.58" y="453.74"/>
      <point x="671.48" y="415.63"/>
      <point x="663.29" y="372.43" type="curve" smooth="yes"/>
      <point x="655.13" y="332.97"/>
      <point x="647.33" y="300.79"/>
      <point x="639.91" y="275.87" type="curve" smooth="yes"/>
      <point x="631.76" y="247.04"/>
      <point x="620.58" y="218.41"/>
      <point x="606.37" y="189.99" type="curve" smooth="yes"/>
      <point x="592.91" y="161.62"/>
      <point x="575.63" y="136.89"/>
      <point x="554.54" y="115.79" type="curve" smooth="yes"/>
      <point x="533.79" y="94.41"/>
      <point x="515.15" y="80.18"/>
      <point x="498.64" y="73.1" type="curve" smooth="yes"/>
      <point x="482.69" y="65.42"/>
      <point x="462.88" y="59.66"/>
      <point x="439.18" y="55.82" type="curve" smooth="yes"/>
      <point x="416.56" y="52.47"/>
      <point x="393.86" y="53.48"/>
      <point x="371.08" y="58.87" type="curve" smooth="yes"/>
      <point x="347.48" y="65.25"/>
      <point x="327.83" y="73.38"/>
      <point x="312.13" y="83.26" type="curve" smooth="yes"/>
      <point x="296.63" y="93.39"/>
      <point x="282.06" y="105.93"/>
      <point x="268.42" y="120.87" type="curve" smooth="yes"/>
      <point x="253.79" y="138.43"/>
      <point x="241.93" y="155.03"/>
      <point x="232.85" y="170.67" type="curve" smooth="yes"/>
      <point x="220.96" y="190.49"/>
      <point x="209.44" y="216.24"/>
      <point x="198.29" y="247.91" type="curve" smooth="yes"/>
      <point x="186.37" y="281.17"/>
      <point x="175.53" y="322.51"/>
      <point x="165.77" y="371.91" type="curve" smooth="yes"/>
      <point x="156.29" y="419.33"/>
      <point x="148.66" y="468.96"/>
      <point x="142.9" y="520.81" type="curve" smooth="yes"/>
      <point x="137.82" y="572.27"/>
      <point x="135.28" y="612.58"/>
      <point x="135.28" y="641.76" type="curve" smooth="yes"/>
    </contour>
  </outline>
</glyph>
<glyph name="mu" format="2">
  <advance width="934"/>
  <unicode hex="03BC"/>
  <note>
mu
</note>
  <outline>
    <contour>
      <point x="137.03" y="996.01" type="curve" smooth="yes"/>
      <point x="137.07" y="996.02" type="line" smooth="yes"/>
      <point x="130.97" y="996.02"/>
      <point x="125.38" y="993.48"/>
      <point x="120.3" y="988.4" type="curve" smooth="yes"/>
      <point x="117.24" y="985.34"/>
      <point x="115.11" y="960.77"/>
      <point x="113.93" y="914.7" type="curve" smooth="yes"/>
      <point x="112.75" y="868.63"/>
      <point x="111.65" y="766.66"/>
      <point x="110.64" y="608.78" type="curve" smooth="yes"/>
      <point x="109.55" y="359.66"/>
      <point x="110.56" y="227.02"/>
      <point x="113.69" y="210.87" type="curve" smooth="yes"/>
      <point x="116.74" y="194.41"/>
      <point x="118.26" y="173.23"/>
      <point x="118.26" y="147.35" type="curve" smooth="yes"/>
      <point x="118.26" y="136.81"/>
      <point x="116.9" y="47.87"/>
      <point x="114.19" y="-119.45" type="curve" smooth="yes"/>
      <point x="112.44" y="-225.44"/>
      <point x="111.8" y="-290.55"/>
      <point x="112.28" y="-314.78" type="curve" smooth="yes"/>
      <point x="112.76" y="-339.02"/>
      <point x="114.92" y="-353.18"/>
      <point x="118.76" y="-357.28" type="curve" smooth="yes"/>
      <point x="125.16" y="-363.04"/>
      <point x="131.26" y="-365.92"/>
      <point x="137.05" y="-365.92" type="curve" smooth="yes"/>
      <point x="143.49" y="-365.92"/>
      <point x="149.08" y="-363.55"/>
      <point x="153.82" y="-358.81" type="curve" smooth="yes"/>
      <point x="156.85" y="-355.78"/>
      <point x="158.96" y="-339.53"/>
      <point x="160.15" y="-310.07" type="curve" smooth="yes"/>
      <point x="161.34" y="-280.61"/>
      <point x="162.45" y="-218.09"/>
      <point x="163.47" y="-122.5" type="curve" smooth="yes"/>
      <point x="164.69" y="29.33"/>
      <point x="166.56" y="106.91"/>
      <point x="169.06" y="110.25" type="curve"/>
      <point x="171.56" y="112.13"/>
      <point x="176.99" y="111.28"/>
      <point x="185.32" y="107.71" type="curve" smooth="yes"/>
      <point x="193.76" y="103.81"/>
      <point x="215.95" y="90.09"/>
      <point x="251.89" y="66.55" type="curve" smooth="yes"/>
      <point x="287.13" y="43.25"/>
      <point x="316.44" y="27.5"/>
      <point x="339.81" y="19.29" type="curve" smooth="yes"/>
      <point x="361.81" y="11.5"/>
      <point x="386.54" y="7.6"/>
      <point x="414.01" y="7.6" type="curve" smooth="yes"/>
      <point x="441.31" y="8.02"/>
      <point x="464.51" y="12.59"/>
      <point x="483.63" y="21.32" type="curve" smooth="yes"/>
      <point x="502.31" y="29.76"/>
      <point x="519.93" y="41.62"/>
      <point x="536.48" y="56.89" type="curve" smooth="yes"/>
      <point x="552.2" y="70.79"/>
      <point x="570.15" y="91.63"/>
      <point x="590.35" y="119.4" type="curve" smooth="yes"/>
      <point x="609.73" y="146.04"/>
      <point x="625.82" y="164.17"/>
      <point x="638.63" y="173.78" type="curve" smooth="yes"/>
      <point x="650.69" y="182.83"/>
      <point x="657.97" y="186.72"/>
      <point x="660.48" y="185.47" type="curve" smooth="yes"/>
      <point x="662.73" y="184.34"/>
      <point x="665.1" y="158.26"/>
      <point x="667.6" y="107.21" type="curve" smooth="yes"/>
      <point x="669.4" y="57.34"/>
      <point x="671.43" y="29.39"/>
      <point x="673.7" y="23.36" type="curve" smooth="yes"/>
      <point x="675.46" y="18.07"/>
      <point x="679.7" y="14.52"/>
      <point x="686.41" y="12.69" type="curve" smooth="yes"/>
      <point x="692.85" y="10.11"/>
      <point x="699.28" y="10.11"/>
      <point x="705.72" y="12.69" type="curve" smooth="yes"/>
      <point x="712.54" y="14.55"/>
      <point x="716.95" y="18.79"/>
      <point x="718.93" y="25.39" type="curve" smooth="yes"/>
      <point x="721.13" y="33.46"/>
      <point x="720.11" y="71.07"/>
      <point x="715.88" y="138.21" type="curve" smooth="yes"/>
      <point x="712.15" y="207.78"/>
      <point x="710.29" y="243.86"/>
      <point x="710.29" y="246.45" type="curve" smooth="yes"/>
      <point x="710.29" y="249.84"/>
      <point x="711.81" y="259.15"/>
      <point x="714.86" y="274.4" type="curve" smooth="yes"/>
      <point x="717.78" y="289.02"/>
      <point x="718.63" y="410.65"/>
      <point x="717.4" y="639.28" type="curve" smooth="yes"/>
      <point x="716.39" y="784.09"/>
      <point x="715.29" y="877.71"/>
      <point x="714.11" y="920.15" type="curve" smooth="yes"/>
      <point x="712.93" y="962.59"/>
      <point x="710.81" y="985.34"/>
      <point x="707.75" y="988.4" type="curve" smooth="yes"/>
      <point x="702.67" y="993.48"/>
      <point x="697.08" y="996.02"/>
      <point x="690.98" y="996.02" type="curve" smooth="yes"/>
      <point x="684.88" y="996.02"/>
      <point x="678.95" y="993.14"/>
      <point x="673.19" y="987.38" type="curve" smooth="yes"/>
      <point x="669.14" y="983.58"/>
      <point x="666.74" y="963.19"/>
      <point x="666.01" y="926.21" type="curve" smooth="yes"/>
      <point x="665.28" y="889.23"/>
      <point x="665.3" y="790.7"/>
      <point x="666.07" y="630.63" type="curve" smooth="yes"/>
      <point x="666.83" y="468.77"/>
      <point x="666.85" y="369.25"/>
      <point x="666.13" y="332.07" type="curve" smooth="yes"/>
      <point x="665.41" y="294.89"/>
      <point x="663.02" y="272.1"/>
      <point x="658.95" y="263.72" type="curve" smooth="yes"/>
      <point x="652.43" y="251.26"/>
      <point x="638.53" y="237.2"/>
      <point x="617.28" y="221.54" type="curve" smooth="yes"/>
      <point x="595.72" y="205.63"/>
      <point x="574.71" y="183.77"/>
      <point x="554.26" y="155.98" type="curve" smooth="yes"/>
      <point x="532.73" y="126.63"/>
      <point x="516.98" y="107.49"/>
      <point x="507" y="98.56" type="curve" smooth="yes"/>
      <point x="496.81" y="88.37"/>
      <point x="483.59" y="79.05"/>
      <point x="467.36" y="70.61" type="curve" smooth="yes"/>
      <point x="452.86" y="62.93"/>
      <point x="433.38" y="58.87"/>
      <point x="408.92" y="58.41" type="curve" smooth="yes"/>
      <point x="385.57" y="58.41"/>
      <point x="363.55" y="63.15"/>
      <point x="342.86" y="72.64" type="curve" smooth="yes"/>
      <point x="324.11" y="81.16"/>
      <point x="299.04" y="95.56"/>
      <point x="267.65" y="115.84" type="curve" smooth="yes"/>
      <point x="259.39" y="121.06"/>
      <point x="247" y="129.06"/>
      <point x="230.47" y="139.82" type="curve" smooth="yes"/>
      <point x="213.94" y="150.58"/>
      <point x="203.47" y="157.33"/>
      <point x="199.04" y="160.05" type="curve" smooth="yes"/>
      <point x="182.96" y="170.45"/>
      <point x="172.63" y="182.31"/>
      <point x="168.04" y="195.62" type="curve" smooth="yes"/>
      <point x="164.99" y="204"/>
      <point x="163.09" y="233.33"/>
      <point x="162.32" y="283.59" type="curve" smooth="yes"/>
      <point x="161.56" y="333.86"/>
      <point x="161.43" y="438.52"/>
      <point x="161.94" y="597.59" type="curve" smooth="yes"/>
      <point x="162.71" y="772.91"/>
      <point x="162.73" y="880.75"/>
      <point x="162" y="921.12" type="curve" smooth="yes"/>
      <point x="161.27" y="961.49"/>
      <point x="158.88" y="983.57"/>
      <point x="154.82" y="987.37" type="curve" smooth="yes"/>
      <point x="149.06" y="993.13"/>
      <point x="143.13" y="996.01"/>
    </contour>
  </outline>
</glyph>
<glyph name="xi" format="2">
  <advance width="643"/>
  <unicode hex="03BE"/>
  <note>
xi
</note>
  <outline>
    <contour>
      <point x="294.8" y="1405.1" type="curve" smooth="yes"/>
      <point x="294.78" y="1405.12" type="line" smooth="yes"/>
      <point x="219.87" y="1405.12"/>
      <point x="171.98" y="1404.65"/>
      <point x="151.12" y="1403.71" type="curve" smooth="yes"/>
      <point x="130.26" y="1402.77"/>
      <point x="118.18" y="1400.53"/>
      <point x="114.88" y="1396.98" type="curve" smooth="yes"/>
      <point x="109.46" y="1392.16"/>
      <point x="106.75" y="1386.4"/>
      <point x="106.75" y="1379.7" type="curve" smooth="yes"/>
      <point x="106.75" y="1373"/>
      <point x="109.46" y="1367.24"/>
      <point x="114.88" y="1362.42" type="curve" smooth="yes"/>
      <point x="118.15" y="1358.9"/>
      <point x="126.65" y="1356.67"/>
      <point x="140.38" y="1355.71" type="curve" smooth="yes"/>
      <point x="154.11" y="1354.76"/>
      <point x="183.73" y="1354.28"/>
      <point x="229.22" y="1354.28" type="curve" smooth="yes"/>
      <point x="335.94" y="1354.28" type="line"/>
      <point x="319.17" y="1330.9" type="line" smooth="yes"/>
      <point x="308.08" y="1315.5"/>
      <point x="291.14" y="1298.56"/>
      <point x="268.35" y="1280.08" type="curve" smooth="yes"/>
      <point x="244.61" y="1260.19"/>
      <point x="227.33" y="1244.27"/>
      <point x="216.52" y="1232.31" type="curve" smooth="yes"/>
      <point x="204.68" y="1218.61"/>
      <point x="194.52" y="1203.87"/>
      <point x="186.03" y="1188.1" type="curve" smooth="yes"/>
      <point x="178.32" y="1172.68"/>
      <point x="171.55" y="1155.24"/>
      <point x="165.7" y="1135.76" type="curve" smooth="yes"/>
      <point x="160.09" y="1117.06"/>
      <point x="156.36" y="1094.19"/>
      <point x="154.52" y="1067.15" type="curve" smooth="yes"/>
      <point x="152.54" y="1039.99"/>
      <point x="154.24" y="1013.73"/>
      <point x="159.6" y="988.38" type="curve" smooth="yes"/>
      <point x="165.43" y="961.81"/>
      <point x="173.22" y="938.77"/>
      <point x="182.98" y="919.27" type="curve" smooth="yes"/>
      <point x="193" y="898.68"/>
      <point x="208.08" y="878.86"/>
      <point x="228.21" y="859.81" type="curve" smooth="yes"/>
      <point x="248.1" y="840.89"/>
      <point x="273.17" y="824.12"/>
      <point x="303.42" y="809.5" type="curve" smooth="yes"/>
      <point x="334.29" y="794.71"/>
      <point x="352.08" y="785.22"/>
      <point x="356.78" y="781.04" type="curve" smooth="yes"/>
      <point x="362.52" y="776.58"/>
      <point x="364.38" y="771.66"/>
      <point x="362.37" y="766.3" type="curve" smooth="yes"/>
      <point x="360.01" y="760.99"/>
      <point x="344.6" y="751.68"/>
      <point x="316.12" y="738.35" type="curve" smooth="yes"/>
      <point x="289.23" y="726.07"/>
      <point x="265.68" y="713.54"/>
      <point x="245.48" y="700.74" type="curve" smooth="yes"/>
      <point x="225.84" y="688.3"/>
      <point x="208.05" y="674.41"/>
      <point x="192.12" y="659.07" type="curve" smooth="yes"/>
      <point x="174.65" y="642.85"/>
      <point x="158.73" y="624.56"/>
      <point x="144.35" y="604.19" type="curve" smooth="yes"/>
      <point x="130.82" y="585.59"/>
      <point x="117.44" y="562.72"/>
      <point x="104.2" y="535.58" type="curve" smooth="yes"/>
      <point x="91.64" y="508.48"/>
      <point x="81.31" y="479.01"/>
      <point x="73.2" y="447.16" type="curve" smooth="yes"/>
      <point x="64.39" y="412.76"/>
      <point x="59.99" y="374.65"/>
      <point x="59.99" y="332.82" type="curve" smooth="yes"/>
      <point x="59.99" y="290.58"/>
      <point x="63.38" y="256.37"/>
      <point x="70.15" y="230.17" type="curve" smooth="yes"/>
      <point x="77.98" y="202.78"/>
      <point x="86.11" y="180.92"/>
      <point x="94.54" y="164.61" type="curve" smooth="yes"/>
      <point x="103.35" y="146.99"/>
      <point x="119.1" y="126.83"/>
      <point x="141.8" y="104.14" type="curve" smooth="yes"/>
      <point x="164.33" y="81.61"/>
      <point x="189.06" y="63.48"/>
      <point x="216" y="49.76" type="curve" smooth="yes"/>
      <point x="241.46" y="36.45"/>
      <point x="270.26" y="23.24"/>
      <point x="302.39" y="10.12" type="curve" smooth="yes"/>
      <point x="329.57" y="-0.75"/>
      <point x="358.03" y="-13.8"/>
      <point x="387.77" y="-29.01" type="curve" smooth="yes"/>
      <point x="414.23" y="-43.05"/>
      <point x="434.56" y="-57.96"/>
      <point x="448.75" y="-73.73" type="curve" smooth="yes"/>
      <point x="463.66" y="-89.88"/>
      <point x="472.97" y="-104.79"/>
      <point x="476.7" y="-118.45" type="curve" smooth="yes"/>
      <point x="480.77" y="-130.65"/>
      <point x="482.8" y="-148.94"/>
      <point x="482.8" y="-173.33" type="curve" smooth="yes"/>
      <point x="482.8" y="-197.64"/>
      <point x="479.24" y="-223.72"/>
      <point x="472.13" y="-251.59" type="curve" smooth="yes"/>
      <point x="465.45" y="-280.11"/>
      <point x="463.08" y="-298.24"/>
      <point x="465.02" y="-305.97" type="curve" smooth="yes"/>
      <point x="466.95" y="-313.67"/>
      <point x="471.18" y="-318.41"/>
      <point x="477.73" y="-320.2" type="curve" smooth="yes"/>
      <point x="485.58" y="-322.34"/>
      <point x="492.19" y="-322.34"/>
      <point x="497.55" y="-320.2" type="curve" smooth="yes"/>
      <point x="504.01" y="-318.44"/>
      <point x="509.09" y="-312"/>
      <point x="512.8" y="-300.89" type="curve" smooth="yes"/>
      <point x="515.75" y="-290.26"/>
      <point x="520.33" y="-271.63"/>
      <point x="526.52" y="-244.99" type="curve" smooth="yes"/>
      <point x="532.04" y="-217.9"/>
      <point x="534.07" y="-189.1"/>
      <point x="532.62" y="-158.6" type="curve" smooth="yes"/>
      <point x="531.16" y="-126.93"/>
      <point x="526.92" y="-103.38"/>
      <point x="519.92" y="-87.96" type="curve" smooth="yes"/>
      <point x="512.55" y="-72"/>
      <point x="500.87" y="-55.4"/>
      <point x="484.85" y="-38.16" type="curve" smooth="yes"/>
      <point x="468.33" y="-20.37"/>
      <point x="450.89" y="-6.14"/>
      <point x="432.51" y="4.53" type="curve" smooth="yes"/>
      <point x="413.43" y="16.22"/>
      <point x="377.01" y="33.5"/>
      <point x="323.25" y="56.36" type="curve" smooth="yes"/>
      <point x="269.73" y="78.86"/>
      <point x="232.97" y="96.99"/>
      <point x="212.97" y="110.74" type="curve" smooth="yes"/>
      <point x="192.9" y="123.91"/>
      <point x="176.81" y="137.46"/>
      <point x="164.69" y="151.4" type="curve" smooth="yes"/>
      <point x="152.14" y="165.84"/>
      <point x="142.14" y="181.42"/>
      <point x="134.71" y="198.15" type="curve" smooth="yes"/>
      <point x="126.88" y="216.41"/>
      <point x="120.96" y="235.04"/>
      <point x="116.92" y="254.05" type="curve" smooth="yes"/>
      <point x="112.52" y="274.82"/>
      <point x="110.31" y="301.07"/>
      <point x="110.31" y="332.82" type="curve" smooth="yes"/>
      <point x="110.31" y="365.28"/>
      <point x="113.19" y="394.75"/>
      <point x="118.95" y="421.24" type="curve" smooth="yes"/>
      <point x="125.04" y="448.05"/>
      <point x="133.68" y="474.82"/>
      <point x="144.87" y="501.53" type="curve" smooth="yes"/>
      <point x="155.63" y="527.23"/>
      <point x="169.01" y="551.28"/>
      <point x="185.02" y="573.69" type="curve" smooth="yes"/>
      <point x="200.59" y="595.49"/>
      <point x="217.19" y="614.29"/>
      <point x="234.82" y="630.1" type="curve" smooth="yes"/>
      <point x="253.75" y="645.88"/>
      <point x="283.06" y="663.83"/>
      <point x="322.74" y="683.97" type="curve" smooth="yes"/>
      <point x="362.67" y="703.94"/>
      <point x="387.24" y="718.84"/>
      <point x="396.43" y="728.69" type="curve" smooth="yes"/>
      <point x="405.33" y="738.22"/>
      <point x="414.13" y="744.15"/>
      <point x="422.86" y="746.48" type="curve" smooth="yes"/>
      <point x="432.14" y="748.34"/>
      <point x="437.73" y="752.74"/>
      <point x="439.63" y="759.69" type="curve" smooth="yes"/>
      <point x="441.48" y="766.47"/>
      <point x="441.48" y="773.24"/>
      <point x="439.63" y="780.02" type="curve" smooth="yes"/>
      <point x="437.82" y="786.67"/>
      <point x="432.23" y="791.24"/>
      <point x="422.86" y="793.74" type="curve" smooth="yes"/>
      <point x="414.08" y="795.62"/>
      <point x="405.44" y="801.72"/>
      <point x="396.94" y="812.03" type="curve" smooth="yes"/>
      <point x="388.33" y="822.48"/>
      <point x="368.35" y="834.68"/>
      <point x="336.97" y="848.62" type="curve" smooth="yes"/>
      <point x="306.09" y="863"/>
      <point x="282.03" y="878.24"/>
      <point x="264.81" y="894.36" type="curve" smooth="yes"/>
      <point x="247.52" y="910.42"/>
      <point x="234.81" y="927.19"/>
      <point x="226.7" y="944.67" type="curve" smooth="yes"/>
      <point x="218.74" y="961.17"/>
      <point x="212.47" y="981.5"/>
      <point x="207.9" y="1005.65" type="curve" smooth="yes"/>
      <point x="204.02" y="1030.88"/>
      <point x="203.17" y="1053.07"/>
      <point x="205.36" y="1072.22" type="curve" smooth="yes"/>
      <point x="207.11" y="1092.69"/>
      <point x="211.52" y="1113.19"/>
      <point x="218.57" y="1133.71" type="curve" smooth="yes"/>
      <point x="225.53" y="1152.85"/>
      <point x="233.15" y="1169.11"/>
      <point x="241.44" y="1182.5" type="curve" smooth="yes"/>
      <point x="249.43" y="1194.8"/>
      <point x="268.07" y="1213.1"/>
      <point x="297.34" y="1237.38" type="curve" smooth="yes"/>
      <point x="325.8" y="1261.18"/>
      <point x="349.69" y="1286.76"/>
      <point x="368.99" y="1314.12" type="curve" smooth="yes"/>
      <point x="397.45" y="1354.27" type="line"/>
      <point x="432.01" y="1354.27" type="line" smooth="yes"/>
      <point x="455.5" y="1354.27"/>
      <point x="469.73" y="1356.98"/>
      <point x="474.7" y="1362.4" type="curve" smooth="yes"/>
      <point x="480.12" y="1367.22"/>
      <point x="482.83" y="1372.98"/>
      <point x="482.83" y="1379.68" type="curve" smooth="yes"/>
      <point x="482.83" y="1386.38"/>
      <point x="480.12" y="1392.14"/>
      <point x="474.7" y="1396.96" type="curve" smooth="yes"/>
      <point x="471.41" y="1400.51"/>
      <point x="459.33" y="1402.75"/>
      <point x="438.46" y="1403.69" type="curve" smooth="yes"/>
      <point x="417.6" y="1404.63"/>
      <point x="369.71" y="1405.1"/>
    </contour>
  </outline>
</glyph>
<glyph name="omicron" format="2">
  <advance width="934"/>
  <unicode hex="03BF"/>
  <note>
omicron
</note>
  <anchor x="467" y="1005" name="top"/>
  <outline>
    <contour>
      <point x="434.35" y="1022.96" type="curve" smooth="yes"/>
      <point x="434.36" y="1022.95" type="line" smooth="yes"/>
      <point x="404.5" y="1024.31"/>
      <point x="380.61" y="1023.63"/>
      <point x="362.7" y="1020.92" type="curve" smooth="yes"/>
      <point x="339.34" y="1017.48"/>
      <point x="317.15" y="1011.89"/>
      <point x="296.13" y="1004.15" type="curve" smooth="yes"/>
      <point x="274.08" y="996.8"/>
      <point x="252.74" y="986.47"/>
      <point x="232.1" y="973.15" type="curve" smooth="yes"/>
      <point x="212.01" y="959.54"/>
      <point x="194.74" y="944.64"/>
      <point x="180.27" y="928.43" type="curve" smooth="yes"/>
      <point x="165.72" y="912.07"/>
      <point x="153.02" y="894.62"/>
      <point x="142.16" y="876.09" type="curve" smooth="yes"/>
      <point x="131.11" y="856.59"/>
      <point x="121.8" y="835.76"/>
      <point x="114.21" y="813.58" type="curve" smooth="yes"/>
      <point x="105.73" y="788.79"/>
      <point x="98.27" y="760.33"/>
      <point x="91.85" y="728.21" type="curve" smooth="yes"/>
      <point x="84.59" y="692.55"/>
      <point x="79.5" y="659.34"/>
      <point x="76.6" y="628.6" type="curve" smooth="yes"/>
      <point x="72.87" y="595.06"/>
      <point x="71.01" y="553.56"/>
      <point x="71.01" y="504.09" type="curve" smooth="yes"/>
      <point x="71.01" y="456.32"/>
      <point x="72.7" y="416.85"/>
      <point x="76.09" y="385.68" type="curve" smooth="yes"/>
      <point x="79.94" y="355.53"/>
      <point x="85.36" y="325.89"/>
      <point x="92.35" y="296.75" type="curve" smooth="yes"/>
      <point x="98.95" y="267.34"/>
      <point x="107.42" y="239.39"/>
      <point x="117.76" y="212.9" type="curve" smooth="yes"/>
      <point x="127.45" y="188.07"/>
      <point x="138.63" y="165.2"/>
      <point x="151.3" y="144.29" type="curve" smooth="yes"/>
      <point x="164.19" y="123.02"/>
      <point x="180.62" y="102.69"/>
      <point x="200.59" y="83.31" type="curve" smooth="yes"/>
      <point x="220.38" y="63.52"/>
      <point x="240.7" y="47.94"/>
      <point x="261.57" y="36.56" type="curve" smooth="yes"/>
      <point x="281.76" y="26.16"/>
      <point x="302.08" y="17.86"/>
      <point x="322.55" y="11.66" type="curve" smooth="yes"/>
      <point x="343.19" y="5.56"/>
      <point x="373.68" y="2.51"/>
      <point x="414.02" y="2.51" type="curve" smooth="yes"/>
      <point x="440.93" y="2.51"/>
      <point x="460.14" y="3.28"/>
      <point x="471.66" y="4.83" type="curve" smooth="yes"/>
      <point x="483.18" y="6.38"/>
      <point x="497.51" y="10.18"/>
      <point x="514.64" y="16.23" type="curve" smooth="yes"/>
      <point x="542.6" y="25.99"/>
      <point x="564.63" y="36.32"/>
      <point x="580.71" y="47.23" type="curve" smooth="yes"/>
      <point x="597.49" y="57.64"/>
      <point x="616.46" y="74.07"/>
      <point x="637.63" y="96.52" type="curve" smooth="yes"/>
      <point x="658.01" y="118.76"/>
      <point x="673.6" y="139.76"/>
      <point x="684.38" y="159.54" type="curve" smooth="yes"/>
      <point x="695.26" y="180.65"/>
      <point x="704.24" y="201.83"/>
      <point x="711.31" y="223.06" type="curve" smooth="yes"/>
      <point x="718.7" y="245.24"/>
      <point x="725.48" y="272.34"/>
      <point x="731.64" y="304.37" type="curve" smooth="yes"/>
      <point x="737.42" y="331.67"/>
      <point x="742.67" y="374.02"/>
      <point x="747.39" y="431.42" type="curve" smooth="yes"/>
      <point x="751.44" y="483.52"/>
      <point x="752.29" y="534.34"/>
      <point x="749.93" y="583.88" type="curve" smooth="yes"/>
      <point x="748.04" y="634.38"/>
      <point x="745.33" y="670.8"/>
      <point x="741.8" y="693.14" type="curve" smooth="yes"/>
      <point x="737.45" y="721.38"/>
      <point x="732.2" y="746.79"/>
      <point x="726.05" y="769.37" type="curve" smooth="yes"/>
      <point x="719.07" y="797.3"/>
      <point x="708.05" y="826.61"/>
      <point x="693.02" y="857.29" type="curve" smooth="yes"/>
      <point x="677.21" y="889.36"/>
      <point x="658.24" y="916.47"/>
      <point x="636.1" y="938.6" type="curve" smooth="yes"/>
      <point x="612.89" y="961.81"/>
      <point x="591.21" y="978.75"/>
      <point x="571.05" y="989.42" type="curve" smooth="yes"/>
      <point x="549.29" y="1000.3"/>
      <point x="528.12" y="1008.09"/>
      <point x="507.53" y="1012.8" type="curve" smooth="yes"/>
      <point x="486.02" y="1017.72"/>
      <point x="461.63" y="1021.1"/>
    </contour>
    <contour>
      <point x="433.34" y="972.15" type="curve" smooth="yes"/>
      <point x="433.33" y="972.14" type="line" smooth="yes"/>
      <point x="460.03" y="970.28"/>
      <point x="482.9" y="966.89"/>
      <point x="501.94" y="961.98" type="curve" smooth="yes"/>
      <point x="521.36" y="956.97"/>
      <point x="540.16" y="949.01"/>
      <point x="558.35" y="938.1" type="curve" smooth="yes"/>
      <point x="577.25" y="926.37"/>
      <point x="593.68" y="912.65"/>
      <point x="607.64" y="896.94" type="curve" smooth="yes"/>
      <point x="623" y="880.3"/>
      <point x="636.38" y="859.98"/>
      <point x="647.79" y="835.96" type="curve" smooth="yes"/>
      <point x="660.1" y="810.7"/>
      <point x="670.09" y="782.41"/>
      <point x="677.77" y="751.09" type="curve" smooth="yes"/>
      <point x="685.74" y="720.92"/>
      <point x="692.01" y="683.65"/>
      <point x="696.57" y="639.29" type="curve" smooth="yes"/>
      <point x="700.36" y="596.5"/>
      <point x="701.21" y="546.53"/>
      <point x="699.11" y="489.37" type="curve" smooth="yes"/>
      <point x="697.35" y="434.68"/>
      <point x="693.79" y="388.95"/>
      <point x="688.44" y="352.16" type="curve" smooth="yes"/>
      <point x="681.75" y="312.03"/>
      <point x="675.65" y="282.56"/>
      <point x="670.15" y="263.74" type="curve" smooth="yes"/>
      <point x="663.86" y="240.3"/>
      <point x="655.05" y="216.58"/>
      <point x="643.72" y="192.59" type="curve" smooth="yes"/>
      <point x="631.4" y="168.63"/>
      <point x="615.98" y="147.12"/>
      <point x="597.47" y="128.05" type="curve" smooth="yes"/>
      <point x="578.35" y="107.07"/>
      <point x="556.33" y="90.47"/>
      <point x="531.41" y="78.25" type="curve" smooth="yes"/>
      <point x="507.56" y="66.32"/>
      <point x="481.64" y="58.36"/>
      <point x="453.66" y="54.37" type="curve" smooth="yes"/>
      <point x="425.44" y="50.4"/>
      <point x="397.66" y="50.4"/>
      <point x="370.32" y="54.37" type="curve" smooth="yes"/>
      <point x="343.23" y="58.09"/>
      <point x="318.5" y="65.54"/>
      <point x="296.12" y="76.73" type="curve" smooth="yes"/>
      <point x="273.25" y="87.87"/>
      <point x="252.25" y="103.29"/>
      <point x="233.1" y="122.98" type="curve" smooth="yes"/>
      <point x="212.98" y="143.1"/>
      <point x="195.36" y="168.51"/>
      <point x="180.25" y="199.21" type="curve" smooth="yes"/>
      <point x="164.87" y="230.59"/>
      <point x="153.18" y="262.27"/>
      <point x="145.19" y="294.24" type="curve" smooth="yes"/>
      <point x="136.99" y="327.03"/>
      <point x="131.06" y="358.37"/>
      <point x="127.4" y="388.25" type="curve" smooth="yes"/>
      <point x="123.67" y="419.31"/>
      <point x="121.81" y="459.12"/>
      <point x="121.81" y="507.67" type="curve" smooth="yes"/>
      <point x="121.81" y="555.87"/>
      <point x="124.35" y="600.93"/>
      <point x="129.43" y="642.85" type="curve" smooth="yes"/>
      <point x="134.08" y="681.76"/>
      <point x="140.68" y="718.35"/>
      <point x="149.25" y="752.62" type="curve" smooth="yes"/>
      <point x="156.71" y="782.47"/>
      <point x="167.05" y="810.93"/>
      <point x="180.25" y="838" type="curve" smooth="yes"/>
      <point x="192.18" y="861.85"/>
      <point x="207.25" y="883.2"/>
      <point x="225.48" y="902.03" type="curve" smooth="yes"/>
      <point x="243.76" y="919.68"/>
      <point x="261.04" y="932.72"/>
      <point x="277.32" y="941.16" type="curve" smooth="yes"/>
      <point x="294.86" y="949.6"/>
      <point x="309.76" y="955.87"/>
      <point x="322.04" y="959.96" type="curve" smooth="yes"/>
      <point x="332.83" y="963.56"/>
      <point x="348.07" y="967.11"/>
      <point x="367.78" y="970.63" type="curve" smooth="yes"/>
      <point x="383.88" y="972.93"/>
      <point x="405.73" y="973.44"/>
    </contour>
  </outline>
</glyph>
